<?xml version="1.0" standalone="no"?>
<!DOCTYPE svg PUBLIC "-//W3C//DTD SVG 1.1//EN" "http://www.w3.org/Graphics/SVG/1.1/DTD/svg11.dtd" >
<svg xmlns="http://www.w3.org/2000/svg">
<metadata>
This is a custom SVG webfont generated by Font Squirrel.
Designer    : hatayas
Foundry     : hatayas
Foundry URL : http://www.hatayas.co.il
</metadata>
<defs>
<font id="webfontos4qb89T" horiz-adv-x="0" >
<font-face units-per-em="1000" ascent="700" descent="-300" />
<missing-glyph horiz-adv-x="270" />
<glyph unicode=" "  horiz-adv-x="270" />
<glyph unicode="&#x09;" horiz-adv-x="270" />
<glyph unicode="&#xa0;" horiz-adv-x="270" />
<glyph unicode="!" horiz-adv-x="338" d="M64 210l82 435l185 -34l-117 -421zM4 -29l38 160l166 -12l-30 -150z" />
<glyph unicode="&#x22;" horiz-adv-x="387" d="M222 200l37 236l148 -26l-87 -225zM42 200l37 236l148 -26l-87 -225z" />
<glyph unicode="#" horiz-adv-x="609" d="M599 244h-95l-29 -76l111 1l-24 -86h-119l-39 -103l-104 18l25 85h-124l-29 -100l-104 18l17 82h-101l14 83h105l17 78h-99l14 83h103l26 120l137 -27l-27 -92h124l33 111l137 -27l-32 -83l87 1zM226 167h124l23 77h-124z" />
<glyph unicode="$" horiz-adv-x="439" d="M383 297q0 -1 -20 8t-45.5 16.5t-50.5 7t-37 -20.5q-14 -25 0 -41.5t68 -33.5l24 -9q20 -8 40.5 -23.5t36 -39t12.5 -57.5q-3 -41 -20 -68.5t-44.5 -43t-63.5 -19t-77 3.5l-21 -75l-87 13l3 85l-21 7l-29 10q-18 6 -38 14l41 79q12 -5 26 -9q11 -4 25.5 -7.5t28.5 -5.5 q49 -8 74.5 -6t34.5 18q9 18 7 30.5t-12.5 21.5t-27 16t-35.5 14q-23 8 -44.5 18.5t-38 24t-25.5 31.5t-8 42q3 56 44 89t112 37q3 8 9 22l11 25l11 30l90 -12q-2 -12 -3 -24q-2 -11 -2.5 -24t-2.5 -27q6 -2 20 -8l30 -11l39 -15z" />
<glyph unicode="%" horiz-adv-x="572" d="M505 173q34 -17 47 -45.5t8.5 -57.5t-25 -53t-54.5 -32q-44 -10 -78 -8.5t-59 11.5t-41 25t-23 32l-69 -100l-153 67l120 179q-38 -5 -67 1t-49.5 17.5t-33 27.5t-16.5 33q-7 28 2 55.5t33 46.5q27 21 56.5 28.5t56 6t48 -8t33.5 -12.5q27 -14 43 -38l74 111l155 -73 l-134 -196q20 4 39 3t35.5 -4t29.5 -7.5t22 -8.5zM197 336q-14 7 -32.5 9t-41.5 -5q-16 -5 -25 -14t-11 -19.5t1.5 -21t12.5 -17.5q23 -20 55.5 -20t58.5 18q6 4 10.5 13t3.5 19t-8.5 20t-23.5 18zM461 123q-14 7 -32.5 9t-41.5 -5q-16 -5 -25 -14t-11 -19.5t1.5 -21 t12.5 -17.5q23 -20 55.5 -20.5t58.5 18.5q6 4 10.5 13t3.5 19t-8.5 20t-23.5 18z" />
<glyph unicode="&#x26;" horiz-adv-x="1051" d="M489 371q15 -9 27.5 -18t23.5 -20q47 33 114 52.5t157 17.5q65 -2 108 -13.5t69 -29.5t38 -41t15 -47q1 -11 -1.5 -28t-14 -35.5t-33.5 -36.5t-61 -32q-52 -19 -101 -19t-87 8q-45 9 -85 26l34 62q25 -8 50 -12q21 -5 44.5 -7t43.5 2q30 6 41.5 19t9.5 27.5t-15.5 26 t-35.5 14.5q-89 11 -142.5 -17t-78.5 -77q-13 -26 -11 -48t14.5 -38.5t34 -27.5t46.5 -15q63 -11 109.5 -10.5t78.5 5.5q37 5 64 15l17 -74q-75 -18 -148 -24q-31 -3 -65 -3t-68.5 3.5t-67.5 12.5t-61 24l-18 -46l-157 32l49 134q17 46 10.5 75t-28.5 45.5t-56 23t-71 8.5 l-109 -314l-153 33l94 268q-12 -2 -22 -4t-18 -4l-15 -3l-12 82q83 27 163 41q34 6 71 9.5t74 3t71.5 -6.5t63.5 -19z" />
<glyph unicode="'" horiz-adv-x="232" d="M70 200l37 236l148 -26l-87 -225z" />
<glyph unicode="(" horiz-adv-x="270" d="M172 174q-5 -26 -4 -62t7 -74t16 -73t23 -58l-117 -45q-27 39 -41.5 88t-20 98t-3.5 92.5t7 71.5q11 57 33 105.5t45 84.5q26 42 56 78l122 -45q-14 -14 -31.5 -40t-35 -60.5t-32.5 -75.5t-24 -85z" />
<glyph unicode=")" horiz-adv-x="286" d="M119 179q6 34 4.5 69.5t-8 69t-16.5 63.5t-22 54l116 57q37 -53 51.5 -112.5t16 -115t-6 -102.5t-14.5 -74q-15 -54 -37.5 -95.5t-43.5 -70.5q-25 -33 -52 -59l-110 59q15 13 33 38.5t35.5 59.5t32 74.5t21.5 84.5z" />
<glyph unicode="*" horiz-adv-x="487" d="M219 436l122 -21l-31 -102l120 24l15 -111l-121 -12l54 -80l-102 -63l-52 83l-55 -78l-103 61l78 89l-104 36l54 109l101 -56z" />
<glyph unicode="+" horiz-adv-x="505" d="M125 9l35 120h-144l39 120h141l41 136l148 -16l-35 -120h142l-34 -120h-143l-41 -142z" />
<glyph unicode="," horiz-adv-x="254" d="M21 -128l41 260l150 -26l-85 -249z" />
<glyph unicode="-" horiz-adv-x="424" d="M105 249h322l-32 -110h-327z" />
<glyph unicode="." horiz-adv-x="256" d="M4 -29l38 160l166 -12l-30 -150z" />
<glyph unicode="/" horiz-adv-x="447" d="M33 -1l243 475l159 -39l-257 -479z" />
<glyph unicode="0" horiz-adv-x="604" d="M391 276q-28 14 -68 16t-79 -8q-36 -9 -55.5 -29.5t-25 -45t2 -48.5t25.5 -39q19 -16 44.5 -25t53 -11t55.5 3t52 17q18 9 33 29.5t18.5 45.5t-8.5 51t-48 44zM474 361q42 -22 67.5 -54t35 -69.5t3 -76t-27 -73t-54.5 -61t-81 -38.5q-87 -23 -155.5 -17t-117.5 30 t-78.5 59.5t-38.5 71.5q-7 27 -7 57.5t10 60t32 55.5t58 46q50 27 103 36.5t101 7.5t87 -12.5t63 -22.5z" />
<glyph unicode="1" horiz-adv-x="380" d="M255 74h94l-19 -76l-319 -11l24 87h60l74 233l-113 -7l19 85l275 1z" />
<glyph unicode="2" horiz-adv-x="524" d="M328 103l182 6l-32 -110l-460 -6l35 98q76 21 137 45q26 10 51 22t45.5 25t34 26.5t16.5 27.5q4 23 -3.5 38t-22.5 24.5t-35 14t-42 5.5q-52 3 -120 -10l24 72q17 6 49 13t70.5 10t79.5 1.5t75 -12.5t57.5 -33t27.5 -58t-8 -66t-35.5 -55t-57 -44t-72.5 -33z" />
<glyph unicode="3" horiz-adv-x="490" d="M358 211q19 -4 39 -14.5t35.5 -29.5t22 -47.5t-1.5 -67.5q-12 -56 -44.5 -88t-75.5 -46t-92.5 -14.5t-94.5 6.5t-81.5 17.5t-53.5 18.5l26 78q70 -18 126 -21q24 -1 47.5 1t42.5 9t31.5 20.5t14.5 35.5q3 32 -14 47t-40 21q-26 7 -60 5l16 75l91 76h-196l27 91h360 l-18 -83z" />
<glyph unicode="4" horiz-adv-x="549" d="M395 220l165 -22l-91 -306l-148 31l20 78l-330 -1l134 400l154 -30l-94 -281l158 1l35 130h-3z" />
<glyph unicode="5" horiz-adv-x="503" d="M215 234q11 2 35.5 1t54.5 -7.5t61 -19.5t54 -35.5t33.5 -55.5t-0.5 -80q-11 -48 -36 -76.5t-59 -43t-73.5 -17.5t-79.5 2q-93 11 -205 55l25 74q74 -18 135 -22q26 -2 51 -1.5t46 6t35 15.5t18 28q5 24 -3.5 40.5t-25.5 28t-41 17.5t-50 9q-61 6 -141 -1l68 233h350 l-22 -88l-211 2z" />
<glyph unicode="6" horiz-adv-x="509" d="M367 511l77 -50q-41 -20 -81 -44q-35 -20 -74.5 -47t-71.5 -59q-22 -21 -35.5 -45t-19 -47t-2 -43.5t15.5 -36.5q10 -13 26 -21t34.5 -11.5t37.5 -2t37 6.5q17 5 32 18.5t21.5 31t3.5 37t-22 37.5q-11 9 -25.5 14.5t-28.5 9.5q-16 4 -33 7l71 69q67 -14 104.5 -45.5 t49.5 -71t0.5 -81.5t-42 -75.5t-78.5 -54.5t-108 -18q-91 4 -145 38.5t-74 89.5q-14 37 -11.5 77t18.5 78t44.5 73t67.5 64q46 34 85 54t67 31q33 12 59 17z" />
<glyph unicode="7" horiz-adv-x="409" d="M269 -34l-155 35l110 289l-210 -2l22 91h374z" />
<glyph unicode="8" horiz-adv-x="526" d="M414 249q62 -23 81.5 -68t2.5 -96q-19 -59 -87.5 -87.5t-174.5 -23.5q-109 5 -162.5 46.5t-53.5 102.5q0 22 8.5 45.5t25 43t40 33.5t53.5 19q-23 12 -33 29.5t-10 37.5t8 40.5t23 37.5q18 21 48.5 35t67 20t75.5 4t75 -11q49 -14 74 -46t26 -66.5t-21 -62.5t-66 -33z M373 328q5 26 -9.5 43t-43.5 19q-28 4 -51.5 -8.5t-28.5 -38.5t13.5 -40t44.5 -15q36 -1 53.5 10t21.5 30zM348 121q5 31 -15 52t-53 26q-17 2 -34 -0.5t-31.5 -9.5t-25 -18t-13.5 -26q-4 -18 1 -32t15.5 -24t26 -16t33.5 -7q17 -1 33 1.5t29 9t22 17.5t12 27z" />
<glyph unicode="9" horiz-adv-x="513" d="M38 207q3 32 18 64.5t43 59t70.5 43.5t100.5 17q76 0 127.5 -31.5t72.5 -84t8 -121t-64 -141.5q-25 -35 -53 -64t-52 -51q-28 -26 -56 -46l-113 41q25 17 47 35q19 15 38.5 33.5t31.5 35.5q-42 -2 -83.5 11.5t-73.5 40.5t-49.5 66.5t-12.5 91.5zM156 187 q-1 -35 21.5 -60.5t60.5 -32.5q45 -8 79.5 9t46.5 58q7 24 3 45t-16.5 37t-31.5 26.5t-43 12.5q-26 3 -48 -4t-37.5 -20.5t-25 -32t-9.5 -38.5z" />
<glyph unicode=":" horiz-adv-x="288" d="M15 -29l38 160l166 -12l-30 -150zM86 244l38 160l166 -12l-30 -150z" />
<glyph unicode=";" horiz-adv-x="312" d="M86 244l38 160l166 -12l-30 -150zM25 -128l41 260l150 -26l-85 -249z" />
<glyph unicode="&#x3c;" horiz-adv-x="350" d="M269 417l95 -80l-193 -156l166 -188l-109 -62l-218 259z" />
<glyph unicode="=" horiz-adv-x="479" d="M103 326h346l-25 -92h-351zM62 173h346l-25 -92h-351z" />
<glyph unicode="&#x3e;" horiz-adv-x="359" d="M78 -63l-90 86l203 149l-154 193l113 54l201 -273z" />
<glyph unicode="?" horiz-adv-x="482" d="M60 197l44 154q60 0 104 8t72.5 22t43 33.5t15.5 40.5q1 23 -15.5 43t-51.5 32t-88 12.5t-125 -16.5l19 72q114 38 200 38t143.5 -23t85 -63t24.5 -82q-5 -59 -31 -95.5t-66 -57.5t-89.5 -29t-100.5 -10l-25 -93zM6 -29l38 160l166 -12l-30 -150z" />
<glyph unicode="@" horiz-adv-x="755" d="M720 239q0 -39 -46 -109q-58 -91 -132 -91q-28 0 -40 4q-38 12 -64 54q-42 -60 -114 -60q-96 0 -100 106q-1 5 -1 9v7q0 59 26 113q14 29 47 70q42 51 107 51q54 0 87 -51l7 39h70l-65 -278q19 -28 45 -28q58 0 98 82q33 69 33 133q-14 100 -84 164q-71 65 -170 65h-12 q-6 0 -11 -1q-223 -22 -279 -260q-9 -39 -9 -74q0 -120 90 -196q86 -71 208 -71q99 0 183 51l12 -33q-113 -57 -222 -57q-156 0 -262 115q-82 88 -82 212q0 117 76 208q127 154 322 154q144 0 222 -107q62 -86 62 -193v-14zM464 226q8 37 8 58q0 64 -46 71q-30 0 -67 -43 q-30 -36 -42 -69q-15 -47 -15 -83q0 -30 9 -52q12 -31 37 -31q89 17 116 149z" />
<glyph unicode="A" horiz-adv-x="722" d="M711 0h-261v18q67 3 67 41q0 22 -19 67l-40 96h-257l-45 -105q-16 -36 -16 -57q0 -38 76 -42v-18h-208v18q41 8 54 19q23 21 55 95l233 545h17l230 -551q22 -53 40 -74q27 -31 74 -34v-18zM444 258l-112 267l-116 -267h228z" />
<glyph unicode="B" horiz-adv-x="667" d="M612 181q0 -54 -32.5 -97.5t-83.5 -62.5q-57 -21 -167 -21h-312v18h25q41 0 59 26q11 17 11 73v428q0 61 -14 78q-20 21 -56 21h-25v18h286q166 0 234 -68q45 -44 45 -109q0 -110 -121 -147q151 -31 151 -157zM479 489q0 71 -60 109q-49 31 -126 31q-50 0 -87 -10v-255 q34 -7 91 -7q124 0 162 63q20 32 20 69zM499 173q0 80 -67 119q-56 32 -140 32q-61 0 -86 -5v-271q55 -13 111 -13q76 0 123 31q59 38 59 107z" />
<glyph unicode="C" horiz-adv-x="667" d="M632 155q-96 -170 -275 -170q-163 0 -253 122q-68 92 -68 214q0 97 42 178q43 84 125 133q78 45 170 45q70 0 142 -35q22 -11 28 -11q31 0 41 46h18l15 -225h-15q-58 190 -221 190q-144 0 -203 -140q-32 -75 -32 -182q0 -187 117 -257q59 -35 132 -35q76 0 128 37 q43 30 94 100z" />
<glyph unicode="D" horiz-adv-x="722" d="M684 334q0 -163 -105 -251q-101 -83 -267 -83h-295v18h25q40 0 60 27q10 16 10 72v428q0 62 -13 78q-20 21 -57 21h-25v18h270q126 0 197 -24q98 -32 151 -118q49 -79 49 -186zM573 330q0 129 -69 209q-71 86 -198 86q-42 0 -100 -14v-563q64 -14 104 -14q125 0 195 88 q68 82 68 208z" />
<glyph unicode="E" horiz-adv-x="611" d="M588 166l-57 -166h-510v18h23q60 0 69 50q1 5 1.5 17.5t0.5 31.5v430q0 63 -12 78q-18 19 -59 19h-23v18h510l7 -145h-19q-7 42 -17 60q-13 29 -43 42q-17 7 -68 7h-182v-262h145q56 0 76 17q26 23 28 79h19v-230h-19q-6 50 -13 62q-19 37 -91 37h-145v-219v-37 q3 -24 18 -31q10 -6 37 -6h112q47 0 70 5q63 15 122 125h20z" />
<glyph unicode="F" horiz-adv-x="556" d="M515 517h-17q-23 80 -71 99q-23 10 -76 10h-146v-260h120q45 0 65 23q16 19 22 68h18v-225h-18q-2 65 -37 84q-17 9 -50 9h-120v-208v-32q0 -12 1 -17q4 -27 24.5 -38.5t44.5 -11.5h25v-18h-284v18h24q41 0 59 24q12 15 12 75v428q0 51 -7 66q-14 33 -64 33h-24v18h493z " />
<glyph unicode="G" horiz-adv-x="722" d="M708 343h-12q-38 0 -52 -26q-10 -16 -10 -71v-203q-109 -58 -233 -58q-194 0 -291 123q-75 91 -75 213q0 87 42 167q99 189 309 189q65 0 149 -31q28 -11 37 -11q21 0 24 42h18l17 -209h-17q-58 175 -219 175q-122 0 -188 -93q-61 -82 -61 -208q0 -88 33 -161 q34 -85 101 -126q59 -37 122 -37q73 0 137 37v191q0 38 -3 50q-7 30 -32 40q-15 7 -52 7v18h256v-18z" />
<glyph unicode="H" horiz-adv-x="722" d="M702 0h-285v18h24q39 0 59 24q13 16 13 75v202h-307v-202q0 -48 5 -66q13 -33 65 -33h25v-18h-284v18h24q41 0 59 24q12 15 12 75v427q0 40 -3 49q-5 28 -25.5 39.5t-42.5 11.5h-24v18h284v-18h-25q-60 0 -68 -50q-1 -6 -1.5 -18.5t-0.5 -31.5v-189h307v189q0 50 -6 67 q-14 33 -66 33h-24v18h285v-18h-24q-59 0 -70 -50q-1 -5 -1.5 -17.5t-0.5 -32.5v-427q0 -20 0.5 -31.5t1.5 -16.5q5 -28 25.5 -39.5t44.5 -11.5h24v-18z" />
<glyph unicode="I" horiz-adv-x="333" d="M309 0h-284v18h23q40 0 60 24q12 15 12 75v428q0 20 -0.5 32t-1.5 17q-5 27 -25.5 38.5t-44.5 11.5h-23v18h284v-18h-24q-41 0 -59 -24q-13 -16 -13 -75v-428q0 -51 7 -66q13 -33 65 -33h24v-18z" />
<glyph unicode="J" horiz-adv-x="389" d="M383 644h-24q-40 0 -59 -24q-11 -16 -11 -75v-324q0 -140 -73 -201q-41 -35 -97 -35q-38 0 -66 18q-32 21 -32 57q0 51 49 51q22 0 39 -23q7 -11 21 -42q11 -26 29 -26q36 0 36 73v452q0 51 -7 66q-14 33 -64 33h-24v18h283v-18z" />
<glyph unicode="K" horiz-adv-x="722" d="M729 0h-313v18q53 0 53 31q0 20 -35 55l-229 227v-214q0 -48 5 -66q15 -33 65 -33h24v-18h-282v18h23q40 0 60 24q11 16 11 75v428q0 20 -0.5 32t-1.5 17q-5 27 -25.5 38.5t-43.5 11.5h-23v18h282v-18h-24q-59 0 -68 -50q-1 -6 -1.5 -18t-0.5 -31v-203l66 62 q145 133 176 178q12 19 12 34q0 28 -43 28h-17v18h245v-18q-43 -2 -82 -26q-27 -17 -63 -50q-11 -12 -37 -37l-63 -63l-100 -101l243 -242q103 -101 187 -107v-18z" />
<glyph unicode="L" horiz-adv-x="611" d="M588 180l-55 -180h-513v18h24q42 0 60 27q11 17 11 73v427q0 62 -13 78q-20 21 -58 21h-24v18h299v-18q-85 1 -103 -36q-8 -16 -8 -74v-416q0 -40 6 -53q11 -20 46 -23h98q61 0 90 6q75 18 125 135z" />
<glyph unicode="M" horiz-adv-x="889" d="M868 0h-282v18h23q44 0 60 25q12 16 12 72v442l-256 -557h-16l-256 557v-442q0 -60 14 -76q16 -21 57 -21h23v-18h-230v18h23q42 0 60 25q9 16 9 72v432q0 43 -8 64q-18 33 -84 33v18h187l239 -518l238 518h187v-18h-23q-42 0 -60 -25q-12 -17 -12 -72v-432q0 -61 15 -76 q18 -21 57 -21h23v-18z" />
<glyph unicode="N" horiz-adv-x="722" d="M708 644h-22q-43 0 -61 -25q-11 -17 -11 -72v-558h-17l-437 533v-407q0 -63 13 -76q19 -21 57 -21h24v-18h-231v18h23q44 0 60 25q11 17 11 72v460q-26 31 -38 40q-17 14 -49 25q-12 4 -43 4v18h180l404 -496v381q0 61 -13 77q-20 20 -58 20h-21v18h229v-18z" />
<glyph unicode="O" horiz-adv-x="722" d="M684 335q0 -146 -90 -246q-95 -104 -236 -104q-148 0 -236 103q-87 97 -87 245q0 157 108 258q94 86 223 86q139 0 230 -103q88 -98 88 -239zM572 322q0 131 -41 213q-56 107 -176 107q-111 0 -166 -103q-43 -79 -43 -204q0 -163 70 -249q52 -66 140 -66q116 0 172 98 q44 79 44 204z" />
<glyph unicode="P" horiz-adv-x="556" d="M521 479q0 -89 -60 -137q-53 -46 -146 -46q-23 0 -50.5 3.5t-59.5 10.5v-193q0 -61 14 -77q19 -22 55 -22h26v-18h-283v18h25q40 0 60 27q9 15 9 72v428q0 64 -13 78q-20 21 -56 21h-25v18h242q79 0 124 -13q63 -18 103 -67q35 -44 35 -103zM410 469q0 97 -68 135 q-31 19 -73 19q-27 0 -64 -10v-275q50 -10 80 -10q57 0 91 43q34 40 34 98z" />
<glyph unicode="Q" horiz-adv-x="722" d="M684 331q0 -121 -66 -212q-64 -91 -179 -126q95 -161 241 -173v-16q-147 6 -289 95q-35 22 -64.5 45.5t-55.5 48.5q-68 28 -110 60q-126 97 -126 280q0 144 92 244q93 100 237 100q140 0 232 -104q88 -100 88 -242zM572 318q0 221 -111 292q-44 30 -103 30 q-115 0 -170 -102q-42 -80 -42 -205q0 -126 43 -209q57 -106 169 -106q114 0 170 98q44 79 44 202z" />
<glyph unicode="R" horiz-adv-x="667" d="M676 0h-177l-225 310q-12 -1 -22 -1h-19h-13q-6 0 -14 1v-193q0 -63 13 -77q19 -22 55 -22h27v-18h-284v18h25q40 0 60 27q10 16 10 72v428q0 62 -13 78q-20 21 -57 21h-25v18h241q89 0 130 -9q65 -14 104 -54q42 -44 42 -107q0 -134 -163 -170l136 -190q21 -29 39 -48.5 t32 -30.5q38 -29 98 -35v-18zM424 485q0 64 -39 102t-103 38q-30 0 -76 -9v-276h13h13q79 0 131 32q61 37 61 113z" />
<glyph unicode="S" horiz-adv-x="556" d="M502 169q0 -84 -63 -136q-60 -48 -145 -48q-31 0 -54 4l-23 7q-16 4 -41 12q-44 14 -59 14q-26 0 -30 -37h-18v227h18q10 -62 29 -96q23 -45 71 -70q44 -23 97 -23q52 0 90 27q42 30 42 81q0 54 -56 96q-17 13 -45 30t-67 38q-38 21 -66.5 38.5t-45.5 31.5 q-73 58 -73 138q0 77 59 127q56 47 134 47q52 0 112 -26q28 -12 39 -12q25 0 33 38h18v-229h-18q-16 123 -96 167q-43 23 -87 23q-46 0 -80 -27q-37 -28 -37 -74q0 -31 21 -56q31 -35 144 -97l65 -36q25 -14 36 -21q96 -66 96 -158z" />
<glyph unicode="T" horiz-adv-x="611" d="M586 507h-19q-5 41 -14 58q-30 56 -107 56h-93v-506q0 -63 13 -76q18 -21 57 -21h23v-18h-280v18h23q42 0 60 25q10 16 10 72v506h-79q-48 0 -66 -7q-59 -21 -65 -107h-19l8 155h541z" />
<glyph unicode="U" horiz-adv-x="722" d="M711 644h-24q-39 0 -61 -33q-10 -14 -10 -70v-269q0 -91 -14 -139q-47 -149 -241 -149q-193 0 -244 139q-15 43 -15 163v259q0 51 -11 71q-16 28 -61 28h-25v18h287v-18h-26q-41 0 -58 -26q-13 -17 -13 -73v-289q0 -117 33 -166q43 -64 139 -64q60 0 109 25q57 27 78 76 q18 43 18 150v268q0 62 -13 78q-20 21 -57 21h-25v18h234v-18z" />
<glyph unicode="V" horiz-adv-x="722" d="M710 644q-37 -6 -53 -22q-27 -24 -46 -74l-231 -563h-18l-248 571q-20 45 -27 53q-25 30 -78 35v18h270v-18q-73 -7 -73 -44q0 -23 23 -77l168 -388l156 384q23 57 23 78q0 35 -62 46l-8 1v18h204v-18z" />
<glyph unicode="W" horiz-adv-x="944" d="M936 644q-47 0 -73 -44q-6 -11 -30 -81l-186 -534h-19l-150 423l-150 -423h-18l-197 550q-11 31 -18 49t-11 23q-18 37 -71 37v18h245v-18h-11q-54 0 -54 -40q0 -19 22 -79l130 -371l110 316l-35 100q-19 57 -63 71q-9 3 -29 3v18h256v-18h-16q-53 0 -53 -43 q0 -27 22 -87l127 -360l126 365q22 60 22 84q0 41 -74 41v18h198v-18z" />
<glyph unicode="X" horiz-adv-x="722" d="M710 0h-284v18l33 3q18 5 26 17q7 7 7 18q0 10 -5 22q-1 5 -27 43l-112 170l-139 -178q-30 -39 -30 -57q0 -35 63 -38v-18h-235v18q26 3 43 10q60 25 120 100l157 198l-131 191q-44 63 -72 87q-46 39 -103 40v18h306v-18q-68 -2 -68 -38q0 -17 23 -52l102 -152l117 149 q30 37 30 56q0 24 -24 33q-9 4 -47 4v18h235v-18q-29 -2 -45 -9q-48 -19 -110 -100l-132 -168l142 -212q47 -70 65 -90q44 -44 95 -47v-18z" />
<glyph unicode="Y" horiz-adv-x="722" d="M708 644h-13q-40 0 -82 -43q-8 -10 -20.5 -27t-28.5 -42l-160 -251v-166q0 -60 14 -76q19 -21 59 -21h21v-18h-281v18h23q42 0 60 25q11 17 11 72v156l-182 278l-25 37q-9 14 -13 17q-16 18 -53 36q-12 5 -29 5v18h283v-18h-14q-24 0 -41 -10q-21 -11 -21 -33 q0 -17 30 -63l138 -214l130 204q29 47 29 69q0 29 -27 41q-14 6 -39 6v18h231v-18z" />
<glyph unicode="Z" horiz-adv-x="611" d="M583 175l-31 -175h-539v18l424 605h-211q-88 0 -113 -45q-13 -24 -23 -81h-18l12 165h491l-435 -622h272q68 0 104 36q27 28 51 102z" />
<glyph unicode="[" horiz-adv-x="271" d="M152 173q-6 -39 -6 -83.5t5.5 -90t15 -90t22.5 -83.5l-117 -18q-21 49 -34 109q-12 51 -18.5 119.5t2.5 147.5q10 84 38.5 155t59.5 123q36 61 79 110l104 -54q-34 -44 -64 -98q-26 -46 -51 -109t-36 -138z" />
<glyph unicode="\" horiz-adv-x="276" d="M264 0h-71l-193 583h78z" />
<glyph unicode="]" horiz-adv-x="249" d="M106 216q1 26 -1.5 66.5t-10.5 86t-21.5 92t-32.5 84.5q30 6 52 11l50 11q51 -77 71 -161.5t22 -188.5q1 -74 -16 -143.5t-39.5 -125.5t-44.5 -95t-31 -51q-31 9 -56 17t-54 16q28 57 52 120q20 54 37.5 122t22.5 139z" />
<glyph unicode="^" horiz-adv-x="385" d="M375 213h-58l-123 277l-123 -277h-58l154 342h53z" />
<glyph unicode="_" horiz-adv-x="504" d="M504 -126h-504v55h504v-55z" />
<glyph unicode="`" horiz-adv-x="333" d="M58 679h109l51 -169h-17z" />
<glyph unicode="a" horiz-adv-x="444" d="M441 64q-54 -73 -105 -73q-50 0 -51 73l-57 -42q-22 -16 -30 -19q-26 -12 -56 -12q-49 0 -77.5 32t-28.5 83q0 69 84 119q51 31 165 71v18q0 53 -14 81q-21 36 -69 36q-27 0 -46 -15q-23 -16 -22 -40l1 -28q2 -47 -41 -47q-41 0 -41 47q0 55 57 87q46 25 106 25 q112 0 139 -67q10 -20 10 -86v-152q0 -88 10 -97q8 -5 14 -5q7 0 13 3q10 6 39 36v-28zM285 267q-72 -28 -97 -42q-70 -40 -70 -96q0 -32 19 -57t50 -25q37 0 98 49v171z" />
<glyph unicode="b" horiz-adv-x="500" d="M465 241q0 -119 -79 -192q-68 -63 -151 -63q-78 0 -162 57v463q0 106 -15 118q-8 6 -19 6q-15 0 -35 -7l-6 17l134 54h22v-324q64 90 140 90q82 0 130 -71q41 -62 41 -148zM381 213q0 69 -28 118q-35 60 -98 60q-48 0 -101 -52v-268q49 -49 106 -49q61 0 94 69 q27 54 27 122z" />
<glyph unicode="c" horiz-adv-x="444" d="M411 170q-17 -79 -61 -127q-53 -57 -126 -57q-91 0 -143 76q-47 68 -47 161q0 99 58 167q58 70 156 70q52 0 97 -27q52 -31 52 -80q0 -41 -44 -41q-30 0 -43 18q-6 8 -12 40q-6 30 -21 44t-47 14q-59 0 -90 -54q-27 -45 -27 -109q0 -76 33 -134q41 -68 113 -68 q46 0 86 32q26 22 51 82z" />
<glyph unicode="d" horiz-adv-x="500" d="M502 42l-132 -56h-23v64q-61 -64 -131 -64q-84 0 -136 70q-47 64 -47 149q0 100 58 174q63 82 159 82q59 0 97 -38v83q0 106 -15 118q-8 6 -20 6q-13 0 -33 -7l-8 17l135 54h22v-517q0 -107 15 -120q7 -7 19 -7t35 9zM347 315q0 45 -30 80q-29 36 -73 36q-62 0 -95 -67 q-26 -54 -26 -120q0 -77 31 -133q38 -71 107 -71q45 0 86 44v231z" />
<glyph unicode="e" horiz-adv-x="444" d="M416 163q-12 -73 -61 -123q-53 -54 -124 -54q-91 0 -146 72q-48 64 -48 160q0 102 50 169q57 74 157 74q79 0 125 -52q47 -52 47 -130h-311q0 -85 40 -144q43 -69 125 -69q90 0 129 107zM312 307q-1 43 -9 61q-25 58 -87 58q-49 0 -77 -37q-28 -32 -34 -82h207z" />
<glyph unicode="f" horiz-adv-x="333" d="M435 611q0 -15 -13 -28t-27 -13q-21 0 -56 44q-33 44 -67 44q-47 0 -60 -49q-6 -26 -6 -130v-32h115v-35h-115v-294q0 -62 14 -79q18 -21 48 -21h41v-18h-267v18h20q43 0 58 36q5 18 5 64v294h-86v35h86v30q0 132 87 188q43 28 100 28q50 0 94 -33q29 -23 29 -49z" />
<glyph unicode="g" horiz-adv-x="500" d="M482 408q0 -18 -5.5 -20.5t-26.5 -2.5h-58q27 -35 27 -90q0 -71 -54 -113q-50 -38 -122 -38q-35 0 -68 10q-37 -31 -37 -56q0 -22 40 -28q13 -1 68 -3q51 -2 83.5 -3.5t46.5 -3.5q45 -6 72.5 -32t27.5 -69q0 -55 -52 -104q-77 -71 -198 -71q-96 0 -160 43q-36 24 -36 50 q0 24 39 74q3 1 15 15l35 38q-46 28 -46 54q0 40 78 105q-85 42 -85 135q0 72 54 119q50 43 124 43q65 0 111 -31h95q21 0 24 -1q8 -5 8 -20zM333 283q0 57 -20 100q-26 54 -77 54q-44 0 -67 -38q-18 -32 -18 -79q0 -57 20 -99q26 -53 78 -53q84 0 84 115zM440 -60 q0 33 -50 44q-8 2 -27 3t-48 2q-55 2 -97 4.5t-72 6.5q-46 -49 -46 -86q0 -23 28 -41q49 -30 141 -30q62 0 107 19q64 25 64 78z" />
<glyph unicode="h" horiz-adv-x="500" d="M494 0h-220v18h10q51 0 61 37q1 4 1 46v158q0 28 -0.5 45.5t-1.5 24.5q-11 72 -70 72q-51 0 -111 -64v-236v-28q0 -11 1 -15q7 -40 71 -40v-18h-222v18q44 0 57 19q12 16 12 64v405q0 106 -15 118q-8 6 -21 6q-12 0 -33 -7l-7 17l134 54h23v-327q40 45 66 63q40 30 83 30 q80 0 106 -86q9 -32 9 -115v-158q0 -43 7 -58q10 -25 60 -25v-18z" />
<glyph unicode="i" horiz-adv-x="278" d="M194 645q0 -21 -14 -35.5t-35 -14.5t-35.5 14.5t-14.5 35.5t14.5 35t35.5 14t35 -14t14 -35zM253 0h-217v18q50 0 62 27q6 13 6 56v172q0 76 -4 95q-6 28 -31 28q-12 0 -33 -8l-7 18l135 54h22v-359q0 -64 24 -77q12 -6 43 -6v-18z" />
<glyph unicode="j" horiz-adv-x="278" d="M195 645q0 -22 -14 -36t-35 -14t-36 14.5t-15 35.5t14.5 35.5t36.5 14.5q21 0 35 -14.5t14 -35.5zM187 10q0 -97 -38 -156q-45 -70 -138 -70q-31 0 -54 10q-34 13 -34 39q0 17 12.5 29.5t27.5 12.5q13 0 27 -6q4 -2 12 -9l22 -18q22 -19 38 -19q29 0 40 39q4 19 4 92v318 q0 74 -3 95q-8 29 -32 29q-13 0 -32 -8l-8 18l136 54h20v-450z" />
<glyph unicode="k" horiz-adv-x="500" d="M506 0h-217v18q31 1 31 20q0 11 -19 36l-137 175v-148q0 -65 23 -77q10 -6 49 -6v-18h-228v18q55 0 67 24q8 18 8 56v407q0 106 -15 120q-8 6 -21 6q-9 0 -30 -8l-9 17l133 54h23v-445l113 104q36 33 42 42q4 5 4 12q0 24 -34 25v15h194v-15q-70 -1 -125 -53l-115 -106 l115 -145q46 -59 64 -76q24 -22 41 -30q12 -4 43 -4v-18z" />
<glyph unicode="l" horiz-adv-x="278" d="M257 0h-219v18q48 0 60 27q6 15 6 56v406q0 105 -14 117q-8 6 -20 6q-14 0 -32 -7l-8 17l133 54h22v-593q0 -63 25 -76q13 -7 47 -7v-18z" />
<glyph unicode="m" horiz-adv-x="778" d="M773 0h-220v18h9q50 0 61 36q1 4 1.5 15.5t0.5 31.5v192q0 56 -13 78q-19 31 -61 31q-51 0 -115 -61l-1 -6l1 -21v-213v-28q0 -11 1 -15q7 -40 71 -40v-18h-226v18q60 0 71 35q2 10 2 48v192q0 110 -76 110q-26 0 -52 -14q-41 -23 -63 -48v-240q0 -64 24 -77q13 -6 49 -6 v-18h-221v18q49 0 61 27q6 15 6 56v171q0 76 -4 95q-6 29 -31 29q-11 0 -32 -8l-8 18l135 54h21v-95q24 25 38.5 38.5t19.5 17.5q46 39 97 39q92 0 113 -95q20 23 37 39.5t31 26.5q41 29 88 29q77 0 107 -78q11 -28 11 -89v-192q0 -43 6 -58q10 -25 61 -25v-18z" />
<glyph unicode="n" horiz-adv-x="500" d="M496 0h-222v18h10q51 0 61 37q2 10 2 46v183q0 116 -70 116q-58 0 -115 -63v-236q0 -44 5 -56q13 -27 67 -27v-18h-221v18h10q38 0 50 24q8 18 8 59v166q0 110 -15 122q-7 7 -20 7q-12 0 -33 -8l-7 18l135 54h21v-94q78 94 150 94q75 0 105 -78q10 -27 10 -90v-191 q0 -64 25 -77q12 -6 44 -6v-18z" />
<glyph unicode="o" horiz-adv-x="500" d="M465 232q0 -64 -28 -121q-30 -63 -79.5 -94t-112.5 -31q-101 0 -162 81q-49 67 -49 152q0 63 28 120q32 63 81.5 92t106.5 29q101 0 163 -77q52 -64 52 -151zM375 194q0 120 -52 188q-35 47 -88 47q-61 0 -89 -58q-21 -44 -21 -111q0 -82 29 -151q39 -88 112 -88 q109 0 109 173z" />
<glyph unicode="p" horiz-adv-x="500" d="M466 240q0 -116 -67 -192q-54 -62 -137 -62q-64 0 -107 40v-136q0 -19 0.5 -29.5t1.5 -14.5q7 -42 74 -42v-18h-234v18h12q42 0 56 23q9 16 9 66v422q0 63 -16 73q-8 6 -23 6q-13 0 -30 -7l-5 16l137 55h18v-104q63 106 143 106q81 0 128 -72q40 -62 40 -148zM379 194 q0 102 -45 158q-32 38 -74 38q-23 0 -47 -12q-18 -10 -58 -53v-167q0 -53 5 -71q8 -33 36.5 -52t63.5 -19q63 0 94 61q25 46 25 117z" />
<glyph unicode="q" horiz-adv-x="500" d="M500 -214h-226v18h10q46 0 57 27q6 13 6 54v193q-77 -92 -147 -92q-80 0 -126 72q-41 64 -41 146q0 106 61 179q65 77 169 77q56 0 93 -31q14 7 28 15l27 16h16v-575q0 -16 0.5 -26t1.5 -15q4 -22 23 -33q11 -7 48 -7v-18zM347 318q0 51 -25.5 79.5t-73.5 28.5 q-70 0 -105 -62q-28 -49 -28 -125q0 -73 30 -124q37 -60 105 -60q55 0 97 53v210z" />
<glyph unicode="r" horiz-adv-x="333" d="M339 406q0 -19 -12 -32t-31 -13q-13 0 -38 17t-31 17q-28 0 -65 -76v-215q0 -46 16.5 -66t61.5 -20v-18h-229v18q57 0 68 35q3 9 3 48v173v59q-3 63 -37 63q-13 0 -34 -8l-5 18l136 54h20v-100q55 100 115 100q25 0 43.5 -15t18.5 -39z" />
<glyph unicode="s" horiz-adv-x="389" d="M354 122q0 -61 -45 -98q-44 -38 -104 -38q-43 0 -94 15q-18 5 -27 5q-11 0 -17 -13h-16v160h16q12 -59 45 -96q37 -42 94 -42q30 0 53 18.5t23 49.5q0 39 -42 71q-19 16 -80 45q-52 25 -77 49q-34 33 -34 83q0 29 10.5 52.5t28.5 40.5t43 26.5t54 9.5q25 0 64 -11 q22 -7 33 -7q13 0 22 18h16v-152h-16q-15 58 -38 87q-30 37 -83 37q-29 0 -51 -15q-26 -17 -26 -43q0 -53 78 -90l71 -34q99 -50 99 -128z" />
<glyph unicode="t" horiz-adv-x="278" d="M279 89q-35 -96 -112 -96q-55 0 -76 48q-10 21 -10 71v301h-71v16q60 24 105 97q5 8 13 25l18 43h15v-147h105v-34h-105v-290q0 -74 45 -74q38 0 54 40h19z" />
<glyph unicode="u" horiz-adv-x="500" d="M499 42l-134 -56h-22v95q-44 -47 -67 -64q-40 -31 -85 -31q-79 0 -104 78q-10 33 -10 97v199q0 49 -27 63q-13 7 -49 6v18h157v-299q0 -102 74 -102q48 0 111 64v253q0 40 -17 54q-13 10 -55 12v18h152v-271q0 -106 16 -119q7 -7 19 -7q14 0 34 9z" />
<glyph unicode="v" horiz-adv-x="500" d="M491 429q-25 -1 -35 -10q-17 -14 -31 -49l-159 -384h-20l-160 378q-18 43 -45 57q-4 2 -12 4t-21 4v18h211v-18h-14q-39 0 -39 -34q0 -17 10 -41l104 -247l105 257q11 28 11 41q0 8 -4 12q-9 12 -47 12v18h146v-18z" />
<glyph unicode="w" horiz-adv-x="722" d="M713 429q-44 -6 -63 -57l-149 -386h-20l-112 286l-130 -286h-18l-144 376q-6 16 -12 27.5t-14 19t-19 12.5t-26 8v18h188v-18q-42 -3 -42 -30q0 -13 8 -37l96 -257l96 209l-25 66q-10 28 -31 41q-9 6 -40 8v18h213v-18q-60 -2 -60 -37q0 -12 4 -20l102 -257l94 247 q10 24 10 42q0 23 -47 25v18h141v-18z" />
<glyph unicode="x" horiz-adv-x="500" d="M488 0h-211v18q43 0 43 27q0 11 -31 57l-65 96l-72 -96q-33 -44 -33 -53q0 -29 44 -31v-18h-146v18q18 1 30 12q19 13 63 72l94 125l-85 123q-30 42 -43 55q-27 24 -63 24v18h211v-18q-37 0 -37 -25q0 -8 34 -60l30 -51l38 51q35 50 35 61q0 24 -35 24v18h150v-18 q-24 -2 -40 -13q-24 -17 -66 -72l-62 -82l113 -160q31 -47 42 -57q25 -25 62 -27v-18z" />
<glyph unicode="y" horiz-adv-x="500" d="M494 429q-31 -3 -49 -30q-2 -2 -6 -11l-11 -26l-182 -446q-22 -54 -58 -89q-43 -43 -93 -43q-26 0 -46 15t-20 40q0 45 50 45q17 0 44 -10q21 -8 24 -8q37 0 67 74l32 78l-161 337q-22 46 -43 61q-9 7 -36 13v18h208v-18h-10q-44 0 -44 -33q0 -20 16 -53l109 -225 l100 247q9 19 9 39q0 16 -16 22q-8 3 -29 3v18h145v-18z" />
<glyph unicode="z" horiz-adv-x="444" d="M428 429l-301 -396h164q42 0 57 4q28 7 42 34q7 15 12 66h17l-4 -137h-395v18l296 395h-147q-19 0 -30.5 -0.5t-16.5 -1.5q-48 -10 -54 -88h-19l4 124h375v-18z" />
<glyph unicode="{" horiz-adv-x="294" d="M179 166q-5 -26 -5 -67.5t4 -88.5t13.5 -94.5t24.5 -84.5l-144 -17q-45 85 -53 181t4 198q10 81 39.5 150.5t61.5 120.5q37 60 80 109l126 -58q-32 -40 -61 -93q-25 -45 -50 -109.5t-40 -146.5z" />
<glyph unicode="|" horiz-adv-x="320" d="M-19 -307l243 958l132 -11l-238 -955z" />
<glyph unicode="}" horiz-adv-x="272" d="M97 211q1 26 -2 68.5t-11 90t-22 94.5t-33 82l133 29q27 -39 45.5 -84t29 -94t15 -100t4.5 -102q0 -81 -21 -152t-46 -124q-29 -62 -66 -114l-138 41q28 44 51 100q20 48 38 114.5t23 150.5z" />
<glyph unicode="~" horiz-adv-x="420" d="M390 257q0 -19 -7 -35.5t-19.5 -28.5t-29 -18.5t-34.5 -6.5q-45 0 -74 38l-80 109q-9 12 -26 12q-14 0 -26.5 -9.5t-12.5 -22.5v-99q0 -25 -26 -25q-25 0 -25 25v99q0 37 26.5 63t63.5 26q47 0 73 -36l79 -109q10 -15 28 -15q14 0 26.5 9.5t12.5 23.5v98q0 25 26 25 q25 0 25 -25v-98z" />
<glyph unicode="&#xa2;" horiz-adv-x="544" d="M261 413q-34 -5 -55 -24t-32.5 -46t-15.5 -59t-4 -62t4 -62t15.5 -59t32.5 -46.5t55 -23.5v382zM453 104q-38 -104 -149 -115v-92q0 -8 -6 -14.5t-15 -6.5t-15.5 6.5t-6.5 14.5v91q-48 3 -84.5 22.5t-61 51t-37.5 72.5t-13 88q0 48 12.5 89t37.5 72t61.5 50t84.5 22v89 q0 9 6 15.5t15 6.5t15.5 -5.5t6.5 -16.5v-89q33 -2 65 -10.5t62 -21.5q4 -2 10 -8t5 -14v-83q0 -5 -4 -10t-10 -5h-16q-11 0 -13.5 6t-3.5 9q-9 42 -31 66t-64 29v-382q37 5 59 27t33 59q1 4 6.5 10t14.5 6h16q16 0 19 -11t1 -18z" />
<glyph unicode="&#xa3;" horiz-adv-x="398" d="M391 57q0 -6 -3 -13l-15 -34q-2 -5 -4.5 -7.5t-10.5 -2.5h-317q-8 0 -10.5 2.5t-2.5 11.5v38q0 8 2.5 10.5t10.5 2.5h51l10 44q5 23 5 66q0 11 -0.5 21t-1.5 19h-63q-9 0 -11.5 2.5t-2.5 11.5v38q0 8 2.5 10.5t11.5 2.5h50q-4 15 -6.5 35t-2.5 37q0 32 11 60t33 48.5 t56 32.5t80 12q23 0 45.5 -4.5t40.5 -11t29 -14.5t11 -15q0 -2 -1 -4.5t-2 -4.5l-19 -38q-4 -6 -8 -6t-10.5 5t-18.5 10.5t-29.5 10.5t-42.5 5q-58 0 -78.5 -20.5t-20.5 -62.5q0 -17 2 -38t6 -37h113q9 0 11.5 -2.5t2.5 -10.5v-38q0 -9 -3 -11.5t-11 -2.5h-100q3 -21 3 -42 q0 -41 -5.5 -64.5t-9.5 -43.5h210q5 0 9 -1.5t4 -6.5z" />
<glyph unicode="&#xa5;" horiz-adv-x="544" d="M537 600q0 -9 -7 -15t-16 -6h-27l-117 -207h79q11 0 17.5 -6t6.5 -15q0 -10 -7 -16.5t-16 -6.5h-105h-1l-31 -53v-33h136q11 0 17.5 -6t6.5 -16q0 -9 -7 -15.5t-16 -6.5h-137v-153h47q9 0 16 -6.5t7 -15.5q0 -10 -7.5 -16.5t-15.5 -6.5h-178q-9 0 -15.5 6t-6.5 16 q0 9 7 16t15 7h48v153h-136q-9 0 -16 6t-7 15q0 10 7.5 16.5t15.5 6.5h136v27l-34 59h-102q-9 0 -16 6t-7 16q0 9 7.5 15.5t15.5 6.5h76l-119 207h-25q-10 0 -17 6t-7 15q0 10 7 16.5t16 6.5h167q9 0 16 -6t7 -16q0 -9 -7.5 -15.5t-15.5 -6.5h-41l143 -252l142 252h-38 q-8 0 -15.5 6.5t-7.5 15.5q0 10 7 16t16 6h116q8 0 15.5 -6.5t7.5 -16.5z" />
<glyph unicode="&#xa8;" horiz-adv-x="427" d="M180 606q0 -22 -13 -35t-36 -13q-20 0 -34 14t-14 34t14 34.5t34 14.5q21 0 35 -14t14 -35zM345 606q0 -20 -14 -34t-35 -14q-22 0 -35.5 13t-13.5 35q0 21 14.5 35t34.5 14t34.5 -14.5t14.5 -34.5z" />
<glyph unicode="&#xa9;" horiz-adv-x="556" d="M384 130q-4 -4 -11.5 -10.5t-19 -13t-27.5 -11t-37 -4.5q-27 0 -51.5 10t-43 28t-30 42.5t-11.5 53.5t11.5 53.5t30.5 42.5t43.5 28t50.5 10q21 0 36.5 -4.5t27.5 -11t19.5 -13t11.5 -10.5l-26 -33q-9 8 -26 19.5t-43 11.5q-16 0 -32.5 -6t-30 -18t-22 -29.5t-8.5 -39.5 q0 -23 8.5 -40.5t22 -29t29 -17.5t30.5 -6q32 0 47.5 11t24.5 19zM478 221q0 41 -16 77.5t-43 63.5t-63.5 43t-77.5 16t-77.5 -16t-63.5 -43t-43 -63.5t-16 -77.5t16 -77.5t43 -63.5t63.5 -43t77.5 -16t77.5 16t63.5 43t43 63.5t16 77.5zM513 221q0 -49 -18.5 -91.5 t-50.5 -74.5t-75 -50.5t-91 -18.5q-49 0 -91.5 18.5t-74.5 50.5t-50.5 74.5t-18.5 91.5q0 48 18.5 91t50.5 75t74.5 50.5t91.5 18.5q48 0 91 -18.5t75 -50.5t50.5 -75t18.5 -91z" />
<glyph unicode="&#xab;" horiz-adv-x="523" d="M267 90q0 -14 -15 -14q-9 0 -17 8l-162 143q-2 1 -4 4q-3 4 -3 11v17q0 7 3 12q2 3 4 4l162 143q4 3 8 5.5t9 2.5q15 0 15 -15q0 -9 -5 -16l-124 -144l124 -145q5 -6 5 -16zM448 90q0 -14 -15 -14q-9 0 -17 8l-161 143q-2 1 -4 4q-4 6 -4 11v17q0 6 4 12q2 3 4 4l161 143 q4 3 8 5.5t9 2.5q15 0 15 -15q0 -8 -4 -16l-125 -144l125 -145q2 -4 3 -7t1 -9z" />
<glyph unicode="&#xad;" horiz-adv-x="424" d="M105 249h322l-32 -110h-327z" />
<glyph unicode="&#xae;" horiz-adv-x="855" d="M507 393q0 65 -73 65h-73v-131h73q73 0 73 66zM619 158q0 -5 -4 -8.5t-9 -3.5h-52q-8 0 -11 2.5t-5 5.5l-53 99q-13 23 -25.5 36t-43.5 13h-55v-132h33q13 0 13 -12q0 -5 -4 -8.5t-9 -3.5h-111q-14 0 -14 12q0 5 4.5 8.5t9.5 3.5h27v288h-27q-6 0 -10 3.5t-4 8.5t4.5 9 t9.5 4h168q48 0 80.5 -21t32.5 -69q0 -38 -23.5 -56.5t-61.5 -23.5q20 -5 31.5 -15.5t20.5 -27.5l54 -100h21q13 0 13 -12zM694 310q0 55 -21 104t-57 85t-84.5 57t-104.5 21q-55 0 -103.5 -21t-84.5 -57.5t-57 -85t-21 -103.5t21 -103.5t57 -85t84.5 -57.5t103.5 -21 q56 0 104.5 21t84.5 57t57 84.5t21 104.5zM737 310q0 -64 -24.5 -120.5t-66.5 -98.5t-98.5 -66.5t-120.5 -24.5t-120.5 24.5t-98.5 66.5t-66 98.5t-24 120.5t24 120.5t66 98.5t98.5 66.5t120.5 24.5t120.5 -24.5t98.5 -66.5t66.5 -98.5t24.5 -120.5z" />
<glyph unicode="&#xb4;" horiz-adv-x="218" d="M168 304l-13 -26q-7 -14 -17.5 -23.5t-25 -14.5t-35.5 1q-17 4 -24 29.5t-7 56t5.5 58t13.5 37.5q18 23 48 27.5t57 -6.5q20 -8 24.5 -27t0 -40.5t-13 -41.5t-13.5 -30z" />
<glyph unicode="&#xb8;" horiz-adv-x="427" d="M293 -94q0 -21 -9 -35t-23 -22t-32 -11.5t-36 -3.5q-12 0 -24.5 1t-23.5 4.5t-18 9.5t-7 17q0 13 7.5 17.5t18.5 5.5q10 0 20.5 -1.5t18.5 -1.5q20 1 36 9.5t15 31.5q0 10 -4 18q-4 7 -10 15l-10 14q-4 6 -4 13q0 6 5 9.5t11 3.5q17 0 31 -15q17 -18 27.5 -37t10.5 -42z " />
<glyph unicode="&#xbb;" horiz-adv-x="523" d="M276 242q0 -5 -4 -11q-2 -3 -3 -4l-162 -143q-8 -8 -17 -8q-15 0 -15 14q0 10 5 16l124 145l-124 144q-5 7 -5 16q0 15 15 15q5 0 9 -2.5t8 -5.5l162 -143q1 -1 3 -4q4 -6 4 -12v-17zM458 242q0 -5 -4 -11q-2 -3 -4 -4l-161 -143q-8 -8 -17 -8q-16 0 -16 14q0 10 5 16 l125 145l-125 144q-5 7 -5 16q0 15 16 15q5 0 9 -2.5t8 -5.5l161 -143q2 -1 4 -4q4 -6 4 -12v-17z" />
<glyph unicode="&#x2c6;" horiz-adv-x="427" d="M336 542q0 -8 -6 -11.5t-14 -3.5t-13.5 1t-10.5 8l-78 100l-78 -101q-4 -5 -10.5 -6.5t-13.5 -1.5q-8 0 -14 3.5t-6 11.5q0 5 5 12.5t8 12.5l68 108q2 2 5 4q2 2 5.5 3.5t8.5 1.5h44q5 0 8.5 -1.5t5.5 -3.5q3 -2 5 -4l68 -108q3 -5 8 -12.5t5 -12.5z" />
<glyph unicode="&#x2da;" horiz-adv-x="450" d="M292 670q0 28 -19.5 47t-47.5 19q-29 0 -48 -18.5t-19 -47.5t19 -48t48 -19t48 19t19 48zM345 670q0 -26 -9 -48t-25.5 -38t-38.5 -25.5t-47 -9.5q-26 0 -47.5 9.5t-38 25.5t-25.5 38t-9 48q0 25 9 47t25.5 38.5t38 25.5t47.5 9q25 0 47 -9t38.5 -25.5t25.5 -38.5t9 -47z " />
<glyph unicode="&#x2dc;" horiz-adv-x="427" d="M351 643q0 -16 -5 -33t-15 -31.5t-25 -23.5t-36 -9q-22 0 -37 10t-27 22.5t-23.5 22.5t-25.5 10q-20 0 -28 -15t-10 -32q-1 -5 -5 -11.5t-15 -6.5q-9 0 -15.5 6t-6.5 15q0 16 5 33t14.5 31t25 23.5t36.5 9.5q22 0 37 -10t27.5 -22.5t24 -22.5t25.5 -10q20 0 27.5 15 t9.5 32q1 5 5 11.5t15 6.5q8 0 15 -6t7 -15z" />
<glyph unicode="&#x5b0;" d="M40 -237q0 -17 -11.5 -28.5t-28.5 -11.5t-28.5 11.5t-11.5 28.5t11.5 28.5t28.5 11.5t28.5 -11.5t11.5 -28.5zM40 -116q0 -17 -11.5 -28.5t-28.5 -11.5t-28.5 11.5t-11.5 28.5t11.5 28.5t28.5 11.5t28.5 -11.5t11.5 -28.5z" />
<glyph unicode="&#x5b1;" d="M-24 -237q0 -17 -11.5 -28.5t-28.5 -11.5t-28.5 11.5t-11.5 28.5t11.5 28.5t28.5 11.5t28.5 -11.5t11.5 -28.5zM-90 -116q0 -17 -11.5 -28.5t-28.5 -11.5t-28.5 11.5t-11.5 28.5t11.5 28.5t28.5 11.5t28.5 -11.5t11.5 -28.5zM42 -116q0 -17 -11.5 -28.5t-28.5 -11.5 t-28.5 11.5t-11.5 28.5t11.5 28.5t28.5 11.5t28.5 -11.5t11.5 -28.5zM168 -237q0 -17 -11.5 -28.5t-28.5 -11.5t-28.5 11.5t-11.5 28.5t11.5 28.5t28.5 11.5t28.5 -11.5t11.5 -28.5zM168 -116q0 -17 -11.5 -28.5t-28.5 -11.5t-28.5 11.5t-11.5 28.5t11.5 28.5t28.5 11.5 t28.5 -11.5t11.5 -28.5z" />
<glyph unicode="&#x5b2;" d="M34 -122q0 -8 -2.5 -11t-11.5 -3h-160q-9 0 -11.5 3t-2.5 11v22q0 9 2.5 11.5t11.5 2.5h160q8 0 11 -2.5t3 -11.5v-22zM154 -237q0 -17 -11.5 -28.5t-28.5 -11.5t-28.5 11.5t-11.5 28.5t11.5 28.5t28.5 11.5t28.5 -11.5t11.5 -28.5zM154 -116q0 -17 -11.5 -28.5 t-28.5 -11.5t-28.5 11.5t-11.5 28.5t11.5 28.5t28.5 11.5t28.5 -11.5t11.5 -28.5z" />
<glyph unicode="&#x5b3;" d="M34 -122q0 -8 -2.5 -11t-11.5 -3h-58l5 -39v-81q0 -8 -2.5 -10t-10.5 -2h-28q-8 0 -10.5 2t-2.5 10v81l5 39h-58q-9 0 -11.5 3t-2.5 11v22q0 9 2.5 11.5t11.5 2.5h160q8 0 11 -2.5t3 -11.5v-22zM154 -237q0 -17 -11.5 -28.5t-28.5 -11.5t-28.5 11.5t-11.5 28.5t11.5 28.5 t28.5 11.5t28.5 -11.5t11.5 -28.5zM154 -116q0 -17 -11.5 -28.5t-28.5 -11.5t-28.5 11.5t-11.5 28.5t11.5 28.5t28.5 11.5t28.5 -11.5t11.5 -28.5z" />
<glyph unicode="&#x5b4;" d="M40 -116q0 -17 -11.5 -28.5t-28.5 -11.5t-28.5 11.5t-11.5 28.5t11.5 28.5t28.5 11.5t28.5 -11.5t11.5 -28.5z" />
<glyph unicode="&#x5b5;" d="M-30 -116q0 -17 -11.5 -28.5t-28.5 -11.5t-28.5 11.5t-11.5 28.5t11.5 28.5t28.5 11.5t28.5 -11.5t11.5 -28.5zM110 -116q0 -17 -11.5 -28.5t-28.5 -11.5t-28.5 11.5t-11.5 28.5t11.5 28.5t28.5 11.5t28.5 -11.5t11.5 -28.5z" />
<glyph unicode="&#x5b6;" d="M40 -237q0 -17 -11.5 -28.5t-28.5 -11.5t-28.5 11.5t-11.5 28.5t11.5 28.5t28.5 11.5t28.5 -11.5t11.5 -28.5zM-28 -116q0 -17 -11.5 -28.5t-28.5 -11.5t-28.5 11.5t-11.5 28.5t11.5 28.5t28.5 11.5t28.5 -11.5t11.5 -28.5zM108 -116q0 -17 -11.5 -28.5t-28.5 -11.5 t-28.5 11.5t-11.5 28.5t11.5 28.5t28.5 11.5t28.5 -11.5t11.5 -28.5z" />
<glyph unicode="&#x5b7;" d="M94 -122q0 -8 -2.5 -11t-11.5 -3h-160q-9 0 -11.5 3t-2.5 11v22q0 9 2.5 11.5t11.5 2.5h160q8 0 11 -2.5t3 -11.5v-22z" />
<glyph unicode="&#x5b8;" d="M94 -122q0 -8 -2.5 -11t-11.5 -3h-58l5 -39v-81q0 -8 -2.5 -10t-10.5 -2h-28q-8 0 -10.5 2t-2.5 10v81l5 39h-58q-9 0 -11.5 3t-2.5 11v22q0 9 2.5 11.5t11.5 2.5h160q8 0 11 -2.5t3 -11.5v-22z" />
<glyph unicode="&#x5b9;" d="M40 582q0 -17 -11.5 -28.5t-28.5 -11.5t-28.5 11.5t-11.5 28.5t11.5 28.5t28.5 11.5t28.5 -11.5t11.5 -28.5z" />
<glyph unicode="&#x5bb;" d="M-64 -113q0 -17 -11.5 -28.5t-28.5 -11.5t-28.5 11.5t-11.5 28.5t11.5 28.5t28.5 11.5t28.5 -11.5t11.5 -28.5zM40 -175q0 -17 -11.5 -28.5t-28.5 -11.5t-28.5 11.5t-11.5 28.5t11.5 28.5t28.5 11.5t28.5 -11.5t11.5 -28.5zM144 -237q0 -17 -11.5 -28.5t-28.5 -11.5 t-28.5 11.5t-11.5 28.5t11.5 28.5t28.5 11.5t28.5 -11.5t11.5 -28.5z" />
<glyph unicode="&#x5bc;" d="M40 240q0 -17 -11.5 -28.5t-28.5 -11.5t-28.5 11.5t-11.5 28.5t11.5 28.5t28.5 11.5t28.5 -11.5t11.5 -28.5z" />
<glyph unicode="&#x5be;" horiz-adv-x="392" d="M125 368h274q-7 -26 -13 -45l-14 -44h-278z" />
<glyph unicode="&#x5bf;" horiz-adv-x="535" d="M92 233h430l-28 -89h-434z" />
<glyph unicode="&#x5c1;" d="M40 582q0 -17 -11.5 -28.5t-28.5 -11.5t-28.5 11.5t-11.5 28.5t11.5 28.5t28.5 11.5t28.5 -11.5t11.5 -28.5z" />
<glyph unicode="&#x5c2;" d="M40 582q0 -17 -11.5 -28.5t-28.5 -11.5t-28.5 11.5t-11.5 28.5t11.5 28.5t28.5 11.5t28.5 -11.5t11.5 -28.5z" />
<glyph unicode="&#x5d0;" horiz-adv-x="592" d="M266 187q-3 -25 8 -42.5t30.5 -30t45.5 -20t53 -11.5q63 -10 146 -5l-36 -122q-79 1 -148 13q-29 5 -59 13.5t-56.5 21.5t-47.5 31.5t-33 42.5l-29 -97l-136 22l123 401l128 -18l-26 -84q32 44 81.5 61.5t100.5 18t96 -14t69 -33.5l-33 -106q-22 15 -50 24.5t-58 13.5 t-59.5 1.5t-53 -12t-39 -26.5t-17.5 -42z" />
<glyph unicode="&#x5d1;" horiz-adv-x="618" d="M406 28q-24 19 -47 29t-44 13t-39.5 0t-31.5 -9q-32 -15 -52 -32t-32 -32q-14 -18 -22 -34l-138 67q23 43 64.5 81.5t89.5 57.5q23 9 55 14t68 1.5t75 -17.5t75 -42q21 46 20 77t-18 50.5t-46 29.5t-64 12.5t-71.5 0t-68.5 -7.5t-55.5 -11t-32.5 -10l25 91q56 21 118 32 q53 9 118 8t131 -26q46 -18 73 -50t37 -72t4.5 -85t-24.5 -89l-13 -31q-6 -14 -11 -23l-11 -21h-108q-2 4 -5 8l-7 9q-4 5 -12 11z" />
<glyph unicode="&#x5d2;" horiz-adv-x="564" d="M391 421l161 -21l-51 -159q-59 13 -113 15q-23 1 -47 -1t-47 -7.5t-43.5 -15.5t-35.5 -26q-16 -17 -17.5 -38.5t12 -42t43 -36t74.5 -19.5q36 -4 72.5 -3t65.5 6q34 4 66 11l-31 -95q-91 -19 -175 -20q-36 0 -73.5 3t-73 12.5t-67 26.5t-54.5 43q-18 21 -26.5 48.5t-7 56 t12.5 56t30 48.5q18 20 47 38t67 30t85 16.5t102 -2.5z" />
<glyph unicode="&#x5d3;" horiz-adv-x="470" d="M40 351q15 12 53 25.5t85 21.5t98 9t92.5 -13t67 -43.5t23.5 -81.5q-2 -32 -13.5 -52.5t-27 -33t-31.5 -19t-26 -9.5q13 -9 22 -21q8 -11 12 -27.5t-1 -40.5q-7 -29 -23.5 -47.5t-33.5 -29.5q-20 -12 -45 -19l-69 11q7 9 16.5 25.5t14.5 34.5t2.5 34.5t-18.5 25.5 q-9 5 -20 8t-22 5q-12 3 -25 4l20 75q21 -1 38 2q14 2 27 9t17 23q6 31 -8 48t-40 24.5t-58.5 7.5t-62.5 -4t-52.5 -9t-27.5 -8z" />
<glyph unicode="&#x5d4;" horiz-adv-x="614" d="M366 -3l41 113q19 53 13.5 88t-27 56t-55.5 30t-73 11q-91 4 -219 -27l27 88q67 22 137 33q30 4 63.5 6.5t68.5 1.5t70.5 -8.5t69.5 -20.5q44 -18 70 -49.5t36 -71t6 -83.5t-19 -86l-40 -110zM19 -1l56 200l174 -14l-75 -212z" />
<glyph unicode="&#x5d5;" horiz-adv-x="293" d="M17 12l116 381l161 -22l-118 -384z" />
<glyph unicode="&#x5d6;" horiz-adv-x="550" d="M525 140q-4 -54 -29 -90.5t-64.5 -58.5t-91 -31t-109 -7t-118 12.5t-117.5 28.5l28 85l42 -9q28 -6 62.5 -10t71 -4t68 8.5t54.5 28t30 54.5q6 31 -14.5 54t-55 37.5t-76.5 21.5t-79 7l46 154l155 -19l-22 -78q27 -2 66 -12t74.5 -32t59 -56t19.5 -84z" />
<glyph unicode="&#x5d7;" horiz-adv-x="626" d="M497 375q48 -21 73 -54t33 -72t1.5 -82t-21.5 -86l-38 -107l-157 29l41 125q20 60 12 94t-32.5 50.5t-60 19.5t-71.5 2l-104 -318l-153 28l90 277l-52 -7l-19 76q89 25 173 38q36 6 74.5 9t76 3t72 -6.5t62.5 -18.5z" />
<glyph unicode="&#x5d8;" horiz-adv-x="641" d="M463 540l57 -62q-54 -25 -104 -53q-43 -24 -89 -54t-78 -61q-23 -23 -38 -48t-20.5 -49t0.5 -45t24 -35q27 -21 69.5 -28t96.5 6q27 7 49.5 19t37.5 28t19.5 35t-4.5 40q-6 13 -17 25t-22 20q-13 10 -28 18l85 37q59 -30 87 -67t31.5 -75t-16 -75t-55 -67t-85.5 -50 t-108 -25q-112 -10 -190.5 14t-116.5 88q-25 42 -23.5 89.5t22.5 92.5t57 85t80 68q57 36 107.5 60.5t88.5 39.5q45 18 83 29z" />
<glyph unicode="&#x5d9;" horiz-adv-x="248" d="M23 165l69 237l160 -31l-83 -240z" />
<glyph unicode="&#x5da;" horiz-adv-x="470" d="M181 -195l93 312q15 49 12.5 82t-17.5 54t-38.5 31t-50.5 13q-63 7 -153 -18l27 85q58 19 116 26q25 3 52 4t54 -2t53 -10.5t49 -21.5q34 -21 50 -51t20 -65t-2 -72t-16 -71l-95 -320z" />
<glyph unicode="&#x5db;" horiz-adv-x="567" d="M29 110q31 -9 68 -15q32 -5 72.5 -9t86.5 1q27 2 50 11.5t38.5 26t22 39t0.5 51.5q-5 24 -24.5 44t-55.5 32t-89 13t-125 -14l26 83q101 28 181 26t137 -25t89 -63t37 -87q8 -73 -18 -122.5t-68 -78.5q-29 -21 -63.5 -31.5t-72 -13.5t-75.5 0t-73 9q-83 14 -169 45z" />
<glyph unicode="&#x5dc;" horiz-adv-x="430" d="M120 170q-9 -20 -2 -35.5t21.5 -19.5t32 6t28.5 42l120 334q28 77 66 125t103 65q31 7 65 5t62.5 -14.5t47 -35t20.5 -55.5q1 -37 -16.5 -60t-39.5 -36q-26 -15 -59 -22l-24 43q9 4 16 12q6 7 10.5 18.5t3.5 31.5q-1 12 -11 22.5t-24.5 11.5t-29.5 -11t-25 -43l-141 -451 q-15 -47 -38.5 -75t-53 -42t-61.5 -16t-63 3q-23 4 -46.5 16t-41.5 33t-28 51t-5 69z" />
<glyph unicode="&#x5dd;" horiz-adv-x="709" d="M138 410l151 -29l-13 -33q68 28 135.5 29t122.5 -19t91.5 -59t44.5 -92q5 -34 -1 -62.5t-18.5 -52t-29 -41t-32.5 -29.5q-35 -26 -85 -37.5t-102.5 -10.5t-102 13t-83.5 33q-2 2 -7.5 5.5t-11.5 8.5q-7 5 -15 12l-26 -64q-9 -22 -13 -35q-5 -14 -5 -18l-143 47zM233 185 q-3 -21 7 -39.5t30 -32t48 -21.5t60 -8q66 0 96 28t28 70q-1 18 -13 35.5t-31.5 30.5t-46 20t-56.5 4q-21 -2 -41.5 -8t-37.5 -16.5t-28.5 -26t-14.5 -36.5z" />
<glyph unicode="&#x5de;" horiz-adv-x="682" d="M680 366l-131 -391l-172 26l-100 265l-98 -290l-165 26l137 399l163 -34l126 -194l78 227z" />
<glyph unicode="&#x5df;" horiz-adv-x="334" d="M10 -195l180 593l151 -32l-178 -585z" />
<glyph unicode="&#x5e0;" horiz-adv-x="416" d="M253 404l160 -34l-88 -289l-17 -55q-11 -35 -31.5 -69.5t-52 -61t-79.5 -27.5q-49 -2 -85.5 10t-60.5 28q-28 18 -48 42l22 51l53 -19q26 -9 50.5 -3t46 34t40.5 91z" />
<glyph unicode="&#x5e1;" horiz-adv-x="655" d="M166 201q-4 -25 7 -45t31 -34.5t48 -23t58 -8.5q68 -1 114.5 25t50.5 77q2 23 -8.5 42.5t-30 33t-47.5 20.5t-62 7q-26 0 -53 -5t-49.5 -15.5t-38.5 -28.5t-20 -45zM26 195q4 54 31 93t70.5 64t101 36.5t122.5 10.5t120 -16t94 -43t60 -68.5t18 -91.5q-3 -55 -30.5 -93.5 t-71.5 -63t-102.5 -35.5t-123.5 -11q-64 0 -118.5 16.5t-93.5 45.5t-60 69t-17 87z" />
<glyph unicode="&#x5e2;" horiz-adv-x="664" d="M627 170q4 -41 -14 -77.5t-53.5 -64.5t-85 -45.5t-109.5 -20.5q-64 -3 -116.5 4.5t-92 23.5t-66.5 40t-40 53q-20 43 -16.5 82.5t25 71.5t59.5 56.5t88 39.5q-19 5 -32.5 8t-25.5 4.5t-24.5 2.5t-28.5 2l57 74q37 -6 73 -13q31 -6 65 -15t61 -21q36 11 77 19l76 13l81 12 l54 -97q-15 0 -35 -1q-17 -2 -41.5 -4.5t-53.5 -9.5q30 -12 55 -31q21 -17 40 -43t23 -63zM372 79q28 2 52 15t39 31t19 39.5t-8 40.5q-13 19 -31 33t-35 23q-20 11 -42 18q-12 -2 -24 -5q-11 -2 -24 -5t-27 -8q-32 -11 -55 -29t-33.5 -39t-6.5 -42.5t27 -39.5 q27 -22 62.5 -29t86.5 -3z" />
<glyph unicode="&#x5e3;" horiz-adv-x="518" d="M589 720q31 8 62 7t55.5 -11.5t40.5 -30.5t16 -49q0 -35 -14.5 -60t-39.5 -43t-57.5 -31t-68.5 -23q-6 -2 -13 -3.5t-14 -3.5q-8 -2 -16 -3l-114 -362q-14 -45 -37 -73t-52 -43.5t-61.5 -19t-65.5 1.5q-27 4 -50.5 18t-40.5 36t-26 51t-6 64l113 26q-12 -18 -5.5 -34 t21 -20.5t33 6t30.5 44.5l29 81q-35 0 -74.5 2t-75.5 8.5t-67 18t-49.5 29.5t-22.5 44t14 62q11 22 35 37.5t55 26t66 17.5t67 11q30 4 56 6l39 3q14 1 27.5 1.5t25.5 2.5l13 31q27 69 66.5 114t105.5 61zM382 449q-36 -4 -71.5 -10t-64 -15t-47.5 -22.5t-22 -32.5 q-4 -21 9 -33.5t36 -20.5q22 -9 50 -13l55 -8zM560 537q7 1 16 4l18 5q10 2 20 6q24 8 41.5 24.5t21.5 41.5q3 25 -7 37.5t-26 10t-34 -21.5t-31 -57z" />
<glyph unicode="&#x5e4;" horiz-adv-x="654" d="M78 357q100 36 194 48q40 5 82.5 6t83.5 -7t78.5 -25.5t66.5 -48.5q27 -29 38.5 -62.5t11 -66.5t-11 -64.5t-25.5 -55.5q-19 -30 -51 -55t-77 -42t-102 -24t-124 0q-66 7 -109 24.5t-67.5 41t-33.5 49.5t-7 49q1 11 5.5 26t16 30.5t32.5 31t54 26.5q42 14 81 15.5 t68 -3.5q34 -5 64 -17l-26 -72q-12 4 -27 8q-13 3 -29.5 5t-34.5 0q-32 -3 -47 -13.5t-17 -23t7 -24.5t26 -18q29 -10 65 -12.5t70.5 2.5t64 18.5t44.5 35.5q15 21 19.5 45.5t-2 47.5t-26 42t-52.5 30q-38 12 -86.5 11t-90.5 -7q-50 -7 -100 -19z" />
<glyph unicode="&#x5e5;" horiz-adv-x="469" d="M532 725q40 10 74 8.5t59 -14t39 -34.5t14 -53q0 -32 -17 -68.5t-49 -70t-80 -61t-109 -42.5l-92 -287q-15 -46 -39.5 -74t-54 -41.5t-61 -16t-59.5 2.5q-31 5 -55 21.5t-40 39.5t-23 51t-4 56l112 27q-11 -22 -4.5 -37t21.5 -18t32.5 7.5t27.5 40.5l75 214 q-19 -1 -50 -1.5t-66.5 2t-71.5 9.5t-63.5 20.5t-43.5 34.5t-12 52q5 35 31 55t63.5 29.5t81 10t84.5 -3.5t73.5 -10t47.5 -9q27 62 63 104t96 56zM286 448q8 0 20.5 0.5t22.5 1.5l24 62q-21 3 -49.5 4.5t-55.5 -1t-48.5 -8.5t-27.5 -18q-5 -8 2.5 -15.5t23.5 -13.5t38.5 -9 t49.5 -3zM493 476q34 9 64 33t50.5 51.5t27 54t-6.5 40.5q-12 13 -25 12.5t-26 -11.5t-25 -32t-22 -49z" />
<glyph unicode="&#x5e6;" horiz-adv-x="526" d="M177 268l21 77q14 -1 29 -1q12 0 26.5 1t27.5 4t28 7t28 12t23 21.5t14 34.5q5 27 -6 46t-32 31t-48.5 18t-55 8t-52 0t-40.5 -6l22 72q93 27 161 24t113 -23.5t68 -54t27 -68.5q4 -36 -4.5 -66t-27 -53.5t-45.5 -39t-59 -21.5q32 -21 44.5 -54t8.5 -74q-5 -51 -32 -97.5 t-80.5 -73.5t-136.5 -27t-199 42l29 70q26 -8 60.5 -14t68.5 -4.5t63 12.5t46 38q21 33 21.5 61t-13.5 49t-40 33.5t-58 15.5z" />
<glyph unicode="&#x5e7;" horiz-adv-x="594" d="M126 203h160l-126 -348l-147 21zM31 329q38 26 88 44q43 16 103.5 27t138.5 6q57 -4 100.5 -27t70.5 -56.5t37.5 -74.5t2.5 -81q-8 -41 -29.5 -72t-51 -53t-65 -36t-72.5 -23l-37 61q13 6 27 16q12 8 26 21.5t26 32.5q11 17 15 47t-7 60t-40.5 53t-84.5 27 q-45 3 -83 -1.5t-67 -11.5q-33 -8 -62 -19z" />
<glyph unicode="&#x5e8;" horiz-adv-x="535" d="M268 3l47 130q16 44 12.5 74t-20.5 48t-44 26.5t-57 10.5q-71 4 -173 -19l27 85q68 18 135 26q28 3 58.5 4.5t61 -1t58.5 -9t52 -18.5q37 -20 55 -49t22.5 -62t-2.5 -68t-20 -69l-52 -136z" />
<glyph unicode="&#x5e9;" horiz-adv-x="672" d="M582 -3q-84 -22 -168 -30q-36 -3 -75 -4t-78.5 3.5t-78.5 15t-73 29.5q-34 18 -54 45.5t-28 58t-5 61.5t15 57q19 40 54 71t83.5 52t109 31t129.5 9q65 -1 109.5 -13t73 -30.5t42 -42t16.5 -47.5q1 -11 -1.5 -29t-14.5 -37t-36 -37t-66 -30q-54 -15 -105 -13t-93 10 q-48 10 -93 27l33 69q32 -9 62 -15q26 -5 53 -8t47 2q31 7 42.5 23t4.5 32.5t-29.5 29t-58.5 12.5q-71 0 -124 -27.5t-76 -76.5q-13 -27 -10 -48.5t15.5 -37.5t32.5 -26t41 -14q54 -11 103.5 -10t87.5 7q44 6 83 19z" />
<glyph unicode="&#x5ea;" horiz-adv-x="712" d="M594 367q50 -22 74.5 -54t31 -70.5t-2 -80t-25.5 -83.5l-40 -110l-158 29l54 144q17 45 8 75t-34 47.5t-62 25t-76 9.5l-88 -252q-14 -35 -33 -55.5t-41 -30t-46 -10t-46 4.5q-53 11 -110 49l36 69q20 -11 38 -15q15 -3 30 0.5t22 23.5l73 214q-12 1 -26 -0.5t-26 -3.5 q-14 -3 -28 -5l26 75q81 20 162 29q34 4 71.5 5.5t75 -1t73.5 -9.5t67 -20z" />
<glyph unicode="&#x5f3;" horiz-adv-x="209" d="M79 185l39 236l123 -21l-79 -225z" />
<glyph unicode="&#x5f4;" horiz-adv-x="336" d="M219 185l39 236l123 -21l-79 -225zM51 185l39 236l123 -21l-79 -225z" />
<glyph unicode="&#x2000;" horiz-adv-x="395" />
<glyph unicode="&#x2001;" horiz-adv-x="790" />
<glyph unicode="&#x2002;" horiz-adv-x="395" />
<glyph unicode="&#x2003;" horiz-adv-x="790" />
<glyph unicode="&#x2004;" horiz-adv-x="263" />
<glyph unicode="&#x2005;" horiz-adv-x="197" />
<glyph unicode="&#x2006;" horiz-adv-x="131" />
<glyph unicode="&#x2007;" horiz-adv-x="131" />
<glyph unicode="&#x2008;" horiz-adv-x="98" />
<glyph unicode="&#x2009;" horiz-adv-x="158" />
<glyph unicode="&#x200a;" horiz-adv-x="43" />
<glyph unicode="&#x2010;" horiz-adv-x="401" d="M109 233h296q-7 -26 -13 -45l-14 -44h-300z" />
<glyph unicode="&#x2011;" horiz-adv-x="424" d="M105 249h322l-32 -110h-327z" />
<glyph unicode="&#x2013;" horiz-adv-x="415" d="M120 379h301l-32 -110h-306z" />
<glyph unicode="&#x2014;" horiz-adv-x="586" d="M88 249h472l-34 -110h-477z" />
<glyph unicode="&#x2018;" horiz-adv-x="232" d="M70 200l37 236l148 -26l-87 -225z" />
<glyph unicode="&#x2019;" horiz-adv-x="232" d="M70 200l37 236l148 -26l-87 -225z" />
<glyph unicode="&#x201a;" horiz-adv-x="218" d="M168 304l-13 -26q-7 -14 -17.5 -23.5t-25 -14.5t-35.5 1q-17 4 -24 29.5t-7 56t5.5 58t13.5 37.5q18 23 48 27.5t57 -6.5q20 -8 24.5 -27t0 -40.5t-13 -41.5t-13.5 -30z" />
<glyph unicode="&#x201c;" horiz-adv-x="387" d="M222 200l37 236l148 -26l-87 -225zM42 200l37 236l148 -26l-87 -225z" />
<glyph unicode="&#x201d;" horiz-adv-x="387" d="M222 200l37 236l148 -26l-87 -225zM42 200l37 236l148 -26l-87 -225z" />
<glyph unicode="&#x201e;" horiz-adv-x="336" d="M219 185l39 236l123 -21l-79 -225zM51 185l39 236l123 -21l-79 -225z" />
<glyph unicode="&#x2026;" horiz-adv-x="535" d="M465 31q0 -44 -44 -44t-44 44v28q0 44 44 44t44 -44v-28zM287 31q0 -46 -44 -46t-44 46v28q0 45 44 45t44 -45v-28zM108 31q0 -44 -44 -44t-44 44v28q0 44 44 44t44 -44v-28z" />
<glyph unicode="&#x202f;" horiz-adv-x="158" />
<glyph unicode="&#x2039;" horiz-adv-x="342" d="M267 90q0 -14 -15 -14q-9 0 -17 8l-162 143q-2 1 -4 4q-3 4 -3 11v17q0 7 3 12q2 3 4 4l162 143q4 3 8 5.5t9 2.5q15 0 15 -15q0 -9 -5 -16l-124 -144l124 -145q5 -6 5 -16z" />
<glyph unicode="&#x203a;" horiz-adv-x="342" d="M276 242q0 -5 -4 -11q-2 -3 -3 -4l-162 -143q-8 -8 -17 -8q-15 0 -15 14q0 10 5 16l124 145l-124 144q-5 7 -5 16q0 15 15 15q5 0 9 -2.5t8 -5.5l162 -143q1 -1 3 -4q4 -6 4 -12v-17z" />
<glyph unicode="&#x205f;" horiz-adv-x="197" />
<glyph unicode="&#x20ac;" horiz-adv-x="473" d="M432 432q0 -2 -1 -4l-2 -4l-21 -39q-4 -6 -6 -6t-10.5 7.5t-23 16.5t-33.5 16.5t-41 7.5q-57 0 -85 -31t-37 -85h166q11 0 13 -4t2 -13v-16q0 -11 -17 -11h-168q-1 -7 -1 -13v-14v-14q0 -6 1 -13h172q11 0 13 -4t2 -13v-16q0 -11 -17 -11h-166q7 -48 32 -82t78 -34 q24 0 45.5 6.5t38 14t27 14t12.5 6.5t6 -6l17 -42l2 -4q1 -2 1 -4q0 -4 -14.5 -12.5t-37 -17.5t-50.5 -15.5t-56 -6.5q-78 0 -125.5 49t-58.5 134h-48q-8 0 -10 2.5t-2 8.5v16q0 9 2 13t13 4h41v12q0 11 0.5 21.5t1.5 20.5h-48q-8 0 -10 2.5t-2 8.5v16q0 9 2 13t13 4h51 q17 87 68.5 135t126.5 48q25 0 50.5 -7.5t46.5 -18t34 -20.5t13 -16z" />
<glyph unicode="&#x2122;" horiz-adv-x="1000" d="M239 318v339h-129v59h325v-59h-130v-339h-66zM479 318v398h98l101 -318l97 318h96v-398h-61v334l-102 -334h-61l-106 339v-339h-62z" />
<glyph unicode="&#xfb01;" horiz-adv-x="570" d="M552 23q0 -10 -7 -16.5t-16 -6.5h-178q-10 0 -16.5 6t-6.5 16q0 9 7 16t16 7h50v354h-220v-354h51q9 0 16 -6.5t7 -15.5q0 -10 -7.5 -16.5t-15.5 -6.5h-179q-9 0 -16 6t-7 16q0 9 7.5 16t15.5 7h51v354h-50q-9 0 -16 6t-7 16q0 9 7.5 16t15.5 7h50q0 30 1 59t14 57 q12 27 31.5 44.5t42.5 27.5t50 14t54 4q39 0 75.5 -5.5t58.5 -13.5q5 -2 10.5 -7.5t6.5 -14.5v-54q0 -6 -5 -10t-11 -4h-12q-8 0 -10.5 6t-3.5 10q-6 29 -35 40.5t-67 11.5q-44 0 -69 -12t-37 -34t-14.5 -52.5t-2.5 -66.5h274q9 0 16 -6.5t7 -15.5v-377h51q9 0 16 -6.5 t7 -15.5z" />
<glyph unicode="&#xfb02;" horiz-adv-x="570" d="M545 23q0 -10 -7 -16.5t-16 -6.5h-177q-10 0 -16.5 6t-6.5 16q0 9 7 16t16 7h50v560h-91q-44 0 -69 -10.5t-37 -30.5t-14.5 -50.5t-2.5 -69.5h100q10 0 16.5 -6.5t6.5 -15.5q0 -10 -7 -16.5t-16 -6.5h-100v-354h51q9 0 16 -6.5t7 -15.5q0 -10 -7.5 -16.5t-15.5 -6.5h-179 q-9 0 -16 6t-7 16q0 9 7.5 16t15.5 7h51v354h-50q-9 0 -16 6t-7 16q0 9 7.5 16t15.5 7h50q0 30 1 59t14 57q12 27 31.5 44.5t42.5 27.5t50 14t54 4h152q10 0 16.5 -6.5t6.5 -15.5v-583h50q10 0 16.5 -6.5t6.5 -15.5z" />
<glyph unicode="&#xfb2a;" d="M40 -116q0 -17 -11.5 -28.5t-28.5 -11.5t-28.5 11.5t-11.5 28.5t11.5 28.5t28.5 11.5t28.5 -11.5t11.5 -28.5z" />
<glyph unicode="&#xfb2b;" d="M40 -116q0 -17 -11.5 -28.5t-28.5 -11.5t-28.5 11.5t-11.5 28.5t11.5 28.5t28.5 11.5t28.5 -11.5t11.5 -28.5z" />
<glyph unicode="&#xfb2c;" d="M40 -116q0 -17 -11.5 -28.5t-28.5 -11.5t-28.5 11.5t-11.5 28.5t11.5 28.5t28.5 11.5t28.5 -11.5t11.5 -28.5z" />
<glyph unicode="&#xfb2d;" d="M40 -116q0 -17 -11.5 -28.5t-28.5 -11.5t-28.5 11.5t-11.5 28.5t11.5 28.5t28.5 11.5t28.5 -11.5t11.5 -28.5z" />
<glyph unicode="&#xfb31;" d="M40 -116q0 -17 -11.5 -28.5t-28.5 -11.5t-28.5 11.5t-11.5 28.5t11.5 28.5t28.5 11.5t28.5 -11.5t11.5 -28.5z" />
<glyph unicode="&#xfb32;" d="M40 -116q0 -17 -11.5 -28.5t-28.5 -11.5t-28.5 11.5t-11.5 28.5t11.5 28.5t28.5 11.5t28.5 -11.5t11.5 -28.5z" />
<glyph unicode="&#xfb33;" d="M40 -116q0 -17 -11.5 -28.5t-28.5 -11.5t-28.5 11.5t-11.5 28.5t11.5 28.5t28.5 11.5t28.5 -11.5t11.5 -28.5z" />
<glyph unicode="&#xfb34;" d="M40 -116q0 -17 -11.5 -28.5t-28.5 -11.5t-28.5 11.5t-11.5 28.5t11.5 28.5t28.5 11.5t28.5 -11.5t11.5 -28.5z" />
<glyph unicode="&#xfb35;" d="M40 -116q0 -17 -11.5 -28.5t-28.5 -11.5t-28.5 11.5t-11.5 28.5t11.5 28.5t28.5 11.5t28.5 -11.5t11.5 -28.5z" />
<glyph unicode="&#xfb36;" d="M40 -116q0 -17 -11.5 -28.5t-28.5 -11.5t-28.5 11.5t-11.5 28.5t11.5 28.5t28.5 11.5t28.5 -11.5t11.5 -28.5z" />
<glyph unicode="&#xfb38;" d="M40 -116q0 -17 -11.5 -28.5t-28.5 -11.5t-28.5 11.5t-11.5 28.5t11.5 28.5t28.5 11.5t28.5 -11.5t11.5 -28.5z" />
<glyph unicode="&#xfb39;" d="M40 -116q0 -17 -11.5 -28.5t-28.5 -11.5t-28.5 11.5t-11.5 28.5t11.5 28.5t28.5 11.5t28.5 -11.5t11.5 -28.5z" />
<glyph unicode="&#xfb3a;" d="M40 -116q0 -17 -11.5 -28.5t-28.5 -11.5t-28.5 11.5t-11.5 28.5t11.5 28.5t28.5 11.5t28.5 -11.5t11.5 -28.5z" />
<glyph unicode="&#xfb3b;" d="M40 -116q0 -17 -11.5 -28.5t-28.5 -11.5t-28.5 11.5t-11.5 28.5t11.5 28.5t28.5 11.5t28.5 -11.5t11.5 -28.5z" />
<glyph unicode="&#xfb3c;" d="M40 -116q0 -17 -11.5 -28.5t-28.5 -11.5t-28.5 11.5t-11.5 28.5t11.5 28.5t28.5 11.5t28.5 -11.5t11.5 -28.5z" />
<glyph unicode="&#xfb3e;" d="M40 -116q0 -17 -11.5 -28.5t-28.5 -11.5t-28.5 11.5t-11.5 28.5t11.5 28.5t28.5 11.5t28.5 -11.5t11.5 -28.5z" />
<glyph unicode="&#xfb40;" d="M40 -116q0 -17 -11.5 -28.5t-28.5 -11.5t-28.5 11.5t-11.5 28.5t11.5 28.5t28.5 11.5t28.5 -11.5t11.5 -28.5z" />
<glyph unicode="&#xfb41;" d="M40 -116q0 -17 -11.5 -28.5t-28.5 -11.5t-28.5 11.5t-11.5 28.5t11.5 28.5t28.5 11.5t28.5 -11.5t11.5 -28.5z" />
<glyph unicode="&#xfb44;" d="M40 -116q0 -17 -11.5 -28.5t-28.5 -11.5t-28.5 11.5t-11.5 28.5t11.5 28.5t28.5 11.5t28.5 -11.5t11.5 -28.5z" />
<glyph unicode="&#xfb46;" d="M40 -116q0 -17 -11.5 -28.5t-28.5 -11.5t-28.5 11.5t-11.5 28.5t11.5 28.5t28.5 11.5t28.5 -11.5t11.5 -28.5z" />
<glyph unicode="&#xfb47;" d="M40 -116q0 -17 -11.5 -28.5t-28.5 -11.5t-28.5 11.5t-11.5 28.5t11.5 28.5t28.5 11.5t28.5 -11.5t11.5 -28.5z" />
<glyph unicode="&#xfb49;" d="M40 -116q0 -17 -11.5 -28.5t-28.5 -11.5t-28.5 11.5t-11.5 28.5t11.5 28.5t28.5 11.5t28.5 -11.5t11.5 -28.5z" />
<glyph unicode="&#xfb4a;" d="M40 -116q0 -17 -11.5 -28.5t-28.5 -11.5t-28.5 11.5t-11.5 28.5t11.5 28.5t28.5 11.5t28.5 -11.5t11.5 -28.5z" />
<glyph unicode="&#xfb4b;" d="M40 -116q0 -17 -11.5 -28.5t-28.5 -11.5t-28.5 11.5t-11.5 28.5t11.5 28.5t28.5 11.5t28.5 -11.5t11.5 -28.5z" />
</font>
</defs>
</svg>
