<?xml version="1.0" standalone="no"?>
<!DOCTYPE svg PUBLIC "-//W3C//DTD SVG 1.1//EN" "http://www.w3.org/Graphics/SVG/1.1/DTD/svg11.dtd" >
<svg xmlns="http://www.w3.org/2000/svg">
<metadata>
This is a custom SVG webfont generated by Font Squirrel.
Designer    : hatayas
Foundry     : hatayas
Foundry URL : http://www.hatayas.co.il
</metadata>
<defs>
<font id="webfontG3HLV38f" horiz-adv-x="0" >
<font-face units-per-em="1000" ascent="700" descent="-300" />
<missing-glyph horiz-adv-x="220" />
<glyph unicode=" "  horiz-adv-x="220" />
<glyph unicode="&#x09;" horiz-adv-x="220" />
<glyph unicode="&#xa0;" horiz-adv-x="220" />
<glyph unicode="!" horiz-adv-x="376" d="M261 0q6 -17 -0.5 -34.5t-20 -31.5t-31.5 -23t-36 -9t-30 3.5t-27 13.5l-39 26q-27 18 -42.5 40t-11.5 54q4 31 25 54t52 32l-45 39l65 526h241l46 -53l-137 -520l-88 1q16 -8 30 -26q11 -15 23 -36t26 -56zM132 677l-63 -500h143l132 500h-212zM38 27q2 -33 29.5 -53.5 t62.5 -18.5q39 3 63 27.5t22 57.5q-3 33 -31 54.5t-65 18.5q-17 -2 -32 -10t-26.5 -20t-17.5 -27t-5 -29z" />
<glyph unicode="&#x22;" horiz-adv-x="443" d="M441 515l46 -53l-92 -280h-116l-50 49l-16 -49h-116l-53 47l26 286h371zM264 502l-24 -260h97l86 260h-159zM82 502l-24 -260h97l86 260h-159z" />
<glyph unicode="#" horiz-adv-x="648" d="M542 454l46 -53l-10 -46h30l46 -53l-22 -111h-48l40 -40l-20 -115h-83q-5 -22 -10 -48l-9 -48h-150l-54 47l9 49h-12l-18 -96h-146l-54 47l10 49h-21l-53 47l20 121h48l-41 34l23 117h85q5 23 10 50t8 49h156l43 -53l-9 -46h12q5 23 10 50t8 49h156zM272 251h91l-11 -60 h-93zM398 441l-19 -99h-93l20 99h-128l-19 -99h-85l-18 -91h86l-14 -60h-83l-17 -95h84l-19 -96h131l17 96h91l-18 -96h130l18 96h83l17 95h-85l13 60h84l18 91h-85l19 99h-128z" />
<glyph unicode="$" horiz-adv-x="542" d="M494 434l-44 18q-17 7 -33.5 13t-24.5 8q2 17 3.5 32.5t3.5 28.5q2 15 4 28l-115 14q-6 -17 -11 -34l-11 -30q-6 -16 -13 -28q-78 -2 -124 -40.5t-49 -104.5q-2 -28 8.5 -52.5t29 -44.5t42 -35t49.5 -24q22 -8 39 -16t28.5 -17.5t15 -20.5t-1.5 -24q-18 -41 -128 -11 q-8 2 -23 8t-30 13q-18 7 -38 16l-48 -95l43 -22l33 -17q16 -8 24 -10l-4 -99l103 -15l25 88q96 -17 159.5 18t75.5 130q4 35 -8 62.5t-32.5 48t-43.5 34.5t-40 22q-30 14 -49.5 24t-30.5 18.5t-13.5 16.5t2.5 19q6 12 22.5 14.5t37 0.5t42.5 -7q23 -6 41 -12l30 -10 q12 -4 13 -3zM557 389l-48 -116l-30 10q-11 3 -26 8t-31.5 9t-33.5 7t-30 3q-23 0 -30 -8q19 -7 38 -15.5t39.5 -22t43 -33.5t49.5 -49q21 -23 34.5 -54.5t9.5 -69.5q-11 -82 -60 -122t-125 -40q-12 0 -25.5 0.5t-26.5 2.5l-13 -44q-7 -24 -12 -43l-121 17l-53 47l3 81 q-10 5 -19 9t-16 8q-8 4 -15 8l-29 27l-16 15q-6 5 -9 7l60 117l41 -18q17 -8 34 -14.5t26 -8.5q23 -6 41 -10t31 -4q18 0 25 3.5t11 8.5q-1 8 -7 13t-12 8l-51 24q-26 13 -46 30q-48 41 -70.5 78.5t-20.5 80.5q3 69 51 111t127 47q6 13 12 29l11 30l12 33l131 -16l48 -56 q-1 -7 -1 -16q-1 -8 -1 -17t-1 -20l20 -9l18 -7q9 -4 17 -7z" />
<glyph unicode="%" horiz-adv-x="598" d="M349 93q-3 -20 3 -37.5t18.5 -30.5t30.5 -20.5t38 -7.5q40 0 72 24t38 64q3 20 -3 38.5t-19 32.5t-30.5 22t-37.5 8q-40 0 -72 -26t-38 -67zM27 384q-3 -20 3 -37.5t18.5 -30.5t30.5 -20.5t38 -7.5q40 0 72 24t38 64q3 20 -3 38.5t-19 32.5t-30.5 22t-37.5 8 q-40 0 -72 -26t-38 -67zM504 404l-26 -58l-23 -51l-22 -51l-24 -56q24 11 50 11q29 0 57 -18t66 -66q16 -16 23.5 -37t3.5 -44q-7 -44 -42 -70.5t-78 -26.5q-45 0 -77 29l-30 28q-12 10 -18.5 17.5t-11 14t-8.5 14.5l-8 -16q-5 -10 -10 -23l-10 -23l-7 -18h-144l-65 40 l104 235q-9 -4 -16.5 -5.5t-20.5 -1.5q-22 0 -40.5 8.5t-34.5 21.5q-6 6 -12 10l-11 8l-11 9q-22 17 -35.5 43.5t-8.5 56.5q3 23 14.5 42t28 33t37 22t43.5 8q29 0 54 -14t40 -36l38 -54l36 78h164zM259 10l35 80l42 94l42 96l38 86l26 61l9 23h-135l-8 -19l-22 -50l-32 -71 l-35 -80l-97 -220h137z" />
<glyph unicode="&#x26;" horiz-adv-x="1057" d="M300 452h-155l-121 -452h158l80 288q22 11 46.5 12.5t43.5 -8.5t29 -32t2 -58l-17 -75q-8 -36 -17 -65l-17 -62h159l24 100q25 -48 74.5 -77.5t124.5 -34.5q51 -4 88 -2t62 6q29 4 49 11l29 104q-40 -8 -80 -11q-35 -2 -75.5 0t-76.5 16q-25 9 -38 23t-19 29.5t-5.5 31 t2.5 27.5q4 18 13.5 35t25.5 30.5t38 21.5t51 8t44.5 -8t20 -18.5t0 -21.5t-15.5 -18q-9 -5 -26 -6t-34 0q-20 1 -43 4l-18 -65q18 -9 45.5 -16t57.5 -9t61 1t57 16t44.5 36.5t24.5 61.5q5 31 -3 60.5t-30 53.5t-59.5 40t-91.5 20q-44 3 -86.5 -2.5t-80.5 -19.5t-69 -37.5 t-52 -57.5q-15 30 -40.5 50.5t-57 30t-67.5 8.5t-72 -15zM342 432q6 1 12.5 1.5t12.5 0.5q50 0 91 -19.5t66 -57.5q43 55 112 81t147 26q66 0 125 -22.5t107 -80.5q23 -29 34.5 -67t6.5 -71q-7 -45 -32 -72t-59 -40l41 -40l-34 -125q-16 -6 -38 -10q-19 -4 -46 -7t-62 -3 h-30q-16 0 -33 2q-112 9 -172 69l-23 23l-22 -80h-165l-64 55q18 64 31 115q6 22 11 43t8.5 38.5t5 29t0.5 13.5q-17 9 -30 6.5t-21 -5.5l-41 -147l-41 -148h-179l-54 47l127 477h184zM709 165q-1 -9 -1 -18t4 -22q6 -5 20 -8.5t29 -5.5t28 -3t16 -1q-14 3 -31.5 9.5 t-29.5 13.5z" />
<glyph unicode="'" horiz-adv-x="249" d="M253 515l46 -53l-92 -280h-116l-53 47l26 286h189zM76 502l-24 -260h97l86 260h-159z" />
<glyph unicode="(" horiz-adv-x="299" d="M212 -42q-14 15 -22.5 37t-13 47t-4 50.5t5.5 47.5l10 43l12 51l12 52q6 25 11 42q10 40 23.5 65.5t27.5 40.5t28 22t25 10l-12 115q-59 -8 -100 -25t-70.5 -47t-48.5 -75t-32 -108l-22 -102q-7 -32 -8 -35q-15 -58 -16.5 -109t10 -92.5t34 -72t55.5 -48.5zM92 -137 q-42 34 -65.5 85.5t-21.5 123.5q1 27 4.5 56.5t10.5 58.5l31 142q15 68 35.5 114.5t52.5 77.5t77.5 48t110.5 26l47 -53l14 -134q-11 -3 -25.5 -10t-29 -22t-28 -39t-22.5 -61q-5 -16 -11 -40l-10 -49l-12 -49l-9 -42q-5 -20 -5 -45t4 -51t13 -50.5t23 -41.5l-108 -103z" />
<glyph unicode=")" horiz-adv-x="343" d="M108 449q14 -15 23 -37.5t13 -47t3.5 -50t-5.5 -47.5l-10 -43l-12 -51l-13 -51l-10 -41q-10 -40 -24 -63.5t-29.5 -36.5t-30.5 -18.5t-26 -8.5l18 -128q58 8 100 27.5t71.5 51t48.5 75.5t31 101l30 137q26 118 1 199t-92 116zM194 549q23 -13 45.5 -31t57.5 -56 q31 -33 48 -79t17 -103q0 -26 -4.5 -56t-11.5 -59l-30 -136q-13 -59 -33 -104t-51.5 -78t-76.5 -53t-109 -29l-53 47l-20 152q11 3 26.5 8.5t31 18t30 34.5t23.5 59l45 186q9 45 1 93.5t-40 85.5z" />
<glyph unicode="*" horiz-adv-x="495" d="M42 400q14 -1 29 -0.5t28 1.5q15 1 30 1v1q-4 19 -10 40.5t-20 53.5l124 41q-2 4 5.5 -3t19.5 -20l24 -27q12 -14 20 -26q46 19 92 28l48 -54l40 -105l-22 -11l-18 -10q-10 -6 -17 -12l15 -14q8 -8 31 -34q6 -6 13 -15t15 -18l-79 -94q-15 10 -30 19t-27 17q-14 9 -26 16 q-5 -23 -15.5 -50t-29.5 -55l-119 44l-58 53q3 7 6 15q2 7 5 15.5t5 17.5q-13 3 -24.5 6.5t-27.5 10.5l-29 26l-15 14l-7 5.5t-3 2.5zM31 288q29 -12 56 -15.5t55 -5.5q2 -7 -1.5 -23.5t-8.5 -33.5q-5 -20 -13 -43l110 -35q17 26 26 54t14 54q10 -5 24 -13l28 -17 q17 -10 37 -24l68 81q-13 15 -23 24.5t-19 16.5t-18.5 13t-21.5 15q3 7 14 14.5t24 15.5l33 17l-39 91q-26 -5 -53 -15t-53 -24q-5 18 -13.5 34.5t-16.5 29.5q-10 15 -20 28l-104 -37q14 -32 19 -54l10 -45q-11 -1 -25 -2q-12 -1 -29 -2t-38 0z" />
<glyph unicode="+" horiz-adv-x="560" d="M563 256l-38 -152l-144 1l-19 -61l-17 -60h-174l-55 47l22 76h-68l-54 47l41 154l136 1l32 114h175l46 -53l-15 -61h86zM500 296h-143l26 114h-148l-32 -114l-136 -1l-34 -128h136l-34 -123h152l36 121l144 -1z" />
<glyph unicode="," horiz-adv-x="315" d="M247 149l46 -53l-92 -280h-120l-53 47l26 286h193zM66 136l-24 -260h101l86 260h-163z" />
<glyph unicode="-" horiz-adv-x="392" d="M113 343h282l46 -53l-42 -143h-275l-54 47zM88 207h253l36 123h-254z" />
<glyph unicode="." horiz-adv-x="309" d="M17 36q-3 -20 3 -37.5t18.5 -30.5t30.5 -20.5t38 -7.5q40 0 72 24t38 64q3 20 -3 38.5t-19 32.5t-30.5 22t-37.5 8q-40 0 -72 -26t-38 -67zM4 37q3 23 14.5 42t28 33t37 22t43.5 8q29 0 53 -14.5t41 -34.5l29 -35q14 -17 22 -39t4 -45q-7 -44 -41.5 -69t-77.5 -25 q-22 0 -40.5 8.5t-34.5 21.5l-35 29q-22 18 -35 43t-8 55z" />
<glyph unicode="/" horiz-adv-x="436" d="M425 602l46 -53l-237 -753h-184l-54 47l242 759h187zM248 589l-234 -733h162l231 733h-159z" />
<glyph unicode="0" horiz-adv-x="570" d="M368 214q-11 -48 -40.5 -73t-65.5 -25q-25 0 -42.5 9.5t-29 23.5t-16 31.5t-4.5 34.5q1 18 8 39t21 38.5t36 29t52 9.5q25 -1 42.5 -13.5t27 -30t12 -37.5t-0.5 -36zM283 452q-67 1 -114 -19t-78 -52.5t-47 -73t-20 -81.5q-6 -53 8 -97t44.5 -75.5t75.5 -49t101 -17.5 q111 0 178.5 55t84.5 149q11 60 -2 108t-44.5 82t-79.5 52t-107 19zM283 465q72 -2 126 -27t92 -68l24 -27q26 -29 41 -66t15 -84q0 -14 -1.5 -27t-3.5 -27q-17 -98 -87.5 -155t-185.5 -57q-57 0 -103.5 19.5t-81.5 48.5l-23 19q-45 38 -68 93.5t-16 119.5q4 43 21 85.5 t49 77t81.5 55.5t120.5 20zM355 217q5 25 -4 52q-30 6 -52.5 -3t-37.5 -25.5t-22.5 -37t-8.5 -38.5q-2 -17 3 -32q12 -4 29 -4q32 0 58 22t35 66z" />
<glyph unicode="1" horiz-adv-x="392" d="M200 438q-26 -22 -57 -44q-26 -19 -61 -40t-74 -37l41 -88q15 4 33 11q16 5 36 14l45 20l-23 -80q-12 -40 -22 -77l-17 -67q-8 -30 -12 -50h168l39 160l18 70l20.5 73t21.5 71.5t22 63.5h-178zM396 451l46 -53q-12 -31 -23.5 -67t-22.5 -74l-22 -77l-19 -73 q-21 -83 -40 -167h-189l-54 47l19 79q12 50 28 109q-12 -5 -18 -6q-4 -1 -7 -2l-30 26q-10 9 -15 14l-7 6l-51 111q43 17 80 39t65 42q33 23 59 46h201z" />
<glyph unicode="2" horiz-adv-x="515" d="M96 306q61 17 107 21q19 2 37 1.5t31 -5.5t19 -15t2 -27q-11 -40 -52 -70.5t-88 -51.5q-55 -25 -120 -43l-30 -116h433l33 124h-168q53 26 92 61q16 15 31 33t25 39.5t14 45.5t-2 51q-7 31 -25 51t-42.5 31t-53.5 15t-58 4q-69 -1 -150 -23zM120 441q24 7 52 13 q23 5 53.5 9.5t62.5 4.5q50 0 96 -14.5t79 -55.5l24 -30q11 -13 19.5 -27.5t13.5 -34.5q9 -48 -12.5 -91.5t-58.5 -77.5h36l46 -53l-38 -144h-454l-54 47l39 138q58 15 108 36q43 18 83.5 45t57.5 63q-22 -1 -46.5 -5.5t-45.5 -9.5q-25 -6 -50 -13l-31 26q-11 9 -16 14 q-6 4 -8 5z" />
<glyph unicode="3" horiz-adv-x="575" d="M499 310l32 129h-390l-33 -132h188q-26 -24 -45 -40l-31 -26q-15 -11 -24 -19l13 -76q36 3 63 -3q23 -5 41.5 -19.5t16.5 -46.5q-2 -22 -14.5 -33.5t-32 -16t-44.5 -2.5t-50 8q-60 12 -135 44l-33 -117q114 -51 210 -64q41 -6 82 -4t76 18t61 47.5t38 84.5q6 26 3 54.5 t-16.5 54t-39.5 44t-66 24.5zM91 294l39 158h418l46 -53l-36 -145l-93 -61q3 -3 19.5 -12.5t33.5 -32t27.5 -60.5t2.5 -98q-7 -45 -28.5 -75.5t-51.5 -48.5t-65.5 -26t-70.5 -8q-49 0 -97.5 11t-87.5 25q-46 16 -88 37l-30 27q-11 10 -16 14q-6 5 -8 7l40 142q37 -17 75 -29 q32 -11 68.5 -19.5t66.5 -8.5q26 0 43.5 9t18.5 35q-12 2 -24 3t-22 1q-11 0 -21 -1l-53 47l-15 95q3 1 7 4q4 2 9 5.5t13 10.5h-66z" />
<glyph unicode="4" horiz-adv-x="552" d="M351 317q-1 -43 -14.5 -72t-32 -44t-38.5 -17.5t-35 7t-21 30t4 51.5l53 166h-187l-47 -162q-21 -75 6 -125t86 -70q41 -14 84.5 -10.5t78.5 17.5l-45 -158l182 -3l107 390h-181zM550 330l46 -53l-113 -410l-204 3l-55 49l26 91h-7q-17 0 -35.5 2.5t-35.5 9.5 q-29 11 -50 26l-49 36q-23 18 -37.5 40.5t-20.5 48t-4.5 53t9.5 54.5q2 8 4.5 16.5t4.5 16.5l21 70q11 36 19 67h215l46 -53l-56 -178q-3 -9 -4 -13t-2 -9q25 5 46.5 37.5t23.5 95.5h212z" />
<glyph unicode="5" horiz-adv-x="532" d="M234 298h224l34 140h-359l-81 -311q76 9 135 5q25 -2 49 -6t42 -12t28.5 -20.5t8.5 -30.5q-2 -21 -15 -32t-33 -15t-45 -3t-51 6q-61 11 -136 38l-31 -114q110 -50 204 -62q40 -5 80.5 -3t76 18t63 46.5t41.5 81.5q5 19 7 43.5t-4 50t-22 49t-46 40.5t-76 24.5t-113 1.5z M34 111l89 340h386l46 -53l-39 -160h-154q37 -11 68 -32t45 -37q21 -24 32.5 -43t17.5 -35t8 -31t3 -32q2 -51 -17 -90t-51.5 -66t-73.5 -40.5t-82 -13.5q-48 0 -96.5 10.5t-86.5 24.5q-46 15 -87 35l-30 26q-11 10 -16 15q-6 5 -8 7l38 138q36 -13 73 -24q32 -9 67.5 -16.5 t66.5 -7.5q27 0 46.5 8t22.5 29q-23 6 -49 8t-52 2q-20 0 -39.5 -1t-36.5 -3l-37 -4z" />
<glyph unicode="6" horiz-adv-x="545" d="M302 576q-73 -47 -132 -104q-25 -24 -50 -53.5t-45.5 -63t-34.5 -71t-18 -77.5q-6 -60 10.5 -103.5t48.5 -71.5t77 -41.5t95 -14.5q64 -1 108 14.5t72.5 40t44 55t21.5 60.5q8 37 1 73t-27 66t-52 51.5t-75 30.5l-52 -72q31 -12 49 -31q16 -17 22 -44t-14 -65 q-9 -17 -26.5 -26.5t-37.5 -12.5t-39 0t-32 12q-36 26 -40 63.5t19 85.5q20 40 53.5 81.5t67.5 74.5q39 39 83 75zM420 509l46 -50l-29 -25q-13 -11 -30 -27l-35 -34q35 -12 63 -31.5t48 -44.5q25 -30 42 -55.5t26.5 -49.5t11.5 -48.5t-4 -54.5q-6 -29 -22 -60t-46 -56.5 t-76 -41.5t-112 -15q-56 1 -103 19t-84 49l-26 22q-20 17 -36.5 38.5t-27 48t-14 57.5t1.5 68q6 41 21 79t36.5 72t46.5 63.5t51 54.5q60 58 132 105zM254 223q-8 -14 -11.5 -30t-4.5 -30q-1 -16 0 -31q25 -10 53 -3.5t43 27.5q11 16 16 36.5t-4 38.5q-6 4 -13 6q-3 1 -5 2 l-40 39q-10 -14 -18 -28z" />
<glyph unicode="7" horiz-adv-x="448" d="M53 438l-34 -129h199l-126 -309h178l60 160l26 70l26 74l26 70l24 64h-379zM450 451l46 -53l-24 -64l-27 -74l-28 -76l-27 -74l-64 -170h-199l-55 47l107 262h-123l-54 47l41 155h407z" />
<glyph unicode="8" horiz-adv-x="575" d="M365 168q-8 -37 -34 -51t-56 -13q-23 0 -39.5 7.5t-27 19t-15 25t-3.5 25.5q1 10 6 24t16.5 26t30.5 20t46 7q21 -1 37 -10t25.5 -21.5t13 -28t0.5 -30.5zM248 421q4 15 18 29t44 14q15 0 25.5 -5.5t17 -13.5t9 -17t1.5 -17q-3 -26 -22.5 -35.5t-43.5 -8.5q-11 0 -21 5 t-17 12.5t-10 17t-1 19.5zM425 332q9 2 19.5 9.5t20.5 18.5t17 25.5t9 31.5q3 36 -8.5 65.5t-35.5 51t-59 33.5t-78 12q-46 0 -81 -12.5t-59 -32t-37 -44t-15 -48.5q-2 -21 2 -39t10.5 -30.5t14 -20.5t12.5 -9q-40 -14 -74 -48.5t-44 -94.5q-9 -54 7.5 -95t48.5 -68 t76 -41.5t91 -16.5t92 6t81 29.5t60.5 57t29.5 89.5q3 36 -5 64.5t-23 50.5t-34.5 36t-37.5 20zM99 13q-34 28 -55 64.5t-21 87.5q0 20 3 38q10 57 39 91.5t67 52.5q-11 15 -20 39.5t-7 56.5q2 26 16 52.5t40 48t63 35t86 13.5q60 -1 107 -21t73 -54q3 -5 7 -9q3 -4 6 -9.5 t7 -10.5q14 -24 29 -56.5t11 -69.5q-2 -26 -15.5 -44.5t-30.5 -31.5l28 -25q26 -23 42 -63t11 -88q-6 -56 -31 -93.5t-62.5 -60t-84 -31t-95.5 -6.5q-53 2 -101 22t-85 50zM352 171q2 10 -1 25q-3 1 -5 1t-6 1q-26 3 -43.5 -4.5t-28 -20.5t-15 -28t-3.5 -25q10 -3 25 -3 q25 -1 47 10.5t30 43.5zM347 402q-15 0 -22.5 -7t-12.5 -15q12 2 21.5 7t13.5 15z" />
<glyph unicode="9" horiz-adv-x="531" d="M289 120q-15 2 -29 6q-13 3 -27 9t-27 16q-12 9 -22 23t-15.5 31t-4 36t13.5 38q11 18 27.5 26.5t34 10.5t33.5 -1.5t27 -10.5q21 -14 30.5 -36t7.5 -47t-14.5 -51.5t-34.5 -49.5zM320 450q-59 12 -106.5 6t-83.5 -25t-60 -49t-36 -67q-14 -45 -10 -89t26 -82t63 -67 t103 -42q-20 -22 -41.5 -38t-40.5 -27q-22 -13 -43 -22l75 -82q67 27 127 67q25 17 51.5 39t50 49t43 59.5t32.5 70.5q19 58 16.5 108.5t-23 89.5t-57.5 65t-86 36zM323 463q45 -9 81 -32t65 -53l20 -21q26 -30 41.5 -73t13.5 -86q-1 -23 -3.5 -48.5t-11.5 -51.5 q-14 -38 -34.5 -70.5t-45.5 -60t-52 -50.5t-53 -41q-62 -42 -131 -71l-52 46l-89 100l44 23q19 11 40 24.5t38 30.5q-17 5 -34 11q-14 5 -31.5 13.5t-31.5 19.5q-44 34 -65.5 77.5t-21.5 93.5q0 18 2.5 36.5t8.5 38.5q10 33 29.5 60.5t48 48t65.5 32t82 11.5q19 0 38 -2 t39 -6zM224 183q0 -18 7 -33q15 -8 30 -11.5t23 -4.5q20 23 30.5 48t10.5 48q0 12 -3 24l-10 2q-6 1 -11 1q-18 0 -36 -8t-29 -25q-12 -18 -12 -41z" />
<glyph unicode=":" horiz-adv-x="371" d="M26 36q-3 -20 3 -37.5t18.5 -30.5t30.5 -20.5t38 -7.5q40 0 72 24t38 64q3 20 -3 38.5t-19 32.5t-30.5 22t-37.5 8q-40 0 -72 -26t-38 -67zM13 37q3 23 14.5 42t28 33t37 22t43.5 8q29 0 53 -14.5t41 -34.5l29 -35q14 -17 22 -39t4 -45q-7 -44 -41.5 -69t-77.5 -25 q-22 0 -40.5 8.5t-34.5 21.5l-35 29q-22 18 -35 43t-8 55zM101 384q-3 -20 3 -37.5t18.5 -30.5t30.5 -20.5t38 -7.5q40 0 72 24t38 64q3 20 -3 38.5t-19 32.5t-30.5 22t-37.5 8q-40 0 -72 -26t-38 -67zM88 385q3 23 14.5 42t28 33t37 22t43.5 8q29 0 53 -14.5t41 -34.5 l29 -35q14 -17 22 -39t4 -45q-7 -44 -41.5 -69t-77.5 -25q-22 0 -40.5 8.5t-34.5 21.5l-35 29q-22 18 -35 43t-8 55z" />
<glyph unicode=";" horiz-adv-x="360" d="M101 384q-3 -20 3 -37.5t18.5 -30.5t30.5 -20.5t38 -7.5q40 0 72 24t38 64q3 20 -3 38.5t-19 32.5t-30.5 22t-37.5 8q-40 0 -72 -26t-38 -67zM88 385q3 23 14.5 42t28 33t37 22t43.5 8q29 0 53 -14.5t41 -34.5l29 -35q14 -17 22 -39t4 -45q-7 -44 -41.5 -69t-77.5 -25 q-22 0 -40.5 8.5t-34.5 21.5l-35 29q-22 18 -35 43t-8 55zM251 149l46 -53l-92 -280h-120l-53 47l26 286h193zM70 136l-24 -260h101l86 260h-163z" />
<glyph unicode="&#x3c;" horiz-adv-x="386" d="M35 207l132 -207h154l-132 207l100 231h-150zM131 451h178l45 -53l-104 -240l139 -218h-182l-52 47l-137 219z" />
<glyph unicode="=" horiz-adv-x="454" d="M75 372h345l46 -53l-31 -123l-34 1l30 -30l-31 -123h-338l-54 47l32 129h33l-30 23zM25 104h317l26 103h-317zM60 256h317l26 103h-317z" />
<glyph unicode="&#x3e;" horiz-adv-x="372" d="M272 398l110 -242l-133 -216h-182l-56 47l139 222l-43 99l-29 67l-20 45l-13 31h178zM215 438h-149l101 -231l-130 -207h156l128 207z" />
<glyph unicode="?" horiz-adv-x="582" d="M28 36q-3 -20 3 -37.5t18.5 -30.5t30.5 -20.5t38 -7.5q40 0 72 24t38 64q3 20 -3 38.5t-19 32t-30.5 21.5t-37.5 8q-40 0 -72 -25.5t-38 -66.5zM240 161l21 81q33 -3 77 3t85 28t72 63t39 106q7 65 -13.5 109t-58.5 70.5t-87.5 37.5t-99.5 10t-95.5 -12t-75.5 -28 l-26 -104q60 14 111.5 16.5t87.5 -8.5t54 -36.5t13 -66.5q-9 -75 -106 -85q-23 -3 -45.5 -3t-42.5 1q-23 1 -44 4l-49 -186h183zM15 37q4 28 19.5 49.5t37.5 35.5l-32 26l56 213q14 -2 29 -3q25 -3 62 -3q25 0 49.5 3t45 11.5t33.5 23.5t16 38q3 22 -3 40q-30 11 -72 11 q-55 0 -142 -21l-30 27l-15 14q-5 4 -6.5 4.5t-2.5 0.5l32 132q33 20 84 31.5t108 11.5q69 0 131.5 -21t109.5 -72l22 -24q23 -26 35.5 -64.5t13.5 -77.5q0 -7 -1 -15l-2 -16q-7 -65 -37.5 -107t-71.5 -66t-85.5 -32t-79.5 -6l-11 -41l-10 -39h-79q2 -3 5.5 -7.5t5.5 -7.5 l31 -28q15 -15 23 -36.5t4 -44.5q-7 -44 -42 -70.5t-78 -26.5q-22 0 -41 8.5t-34 21.5l-45 38q-13 11 -25 35t-8 54z" />
<glyph unicode="@" horiz-adv-x="755" d="M720 239q0 -39 -46 -109q-58 -91 -132 -91q-28 0 -40 4q-38 12 -64 54q-42 -60 -114 -60q-96 0 -100 106q-1 5 -1 9v7q0 59 26 113q14 29 47 70q42 51 107 51q54 0 87 -51l7 39h70l-65 -278q19 -28 45 -28q58 0 98 82q33 69 33 133q-14 100 -84 164q-71 65 -170 65h-12 q-6 0 -11 -1q-223 -22 -279 -260q-9 -39 -9 -74q0 -120 90 -196q86 -71 208 -71q99 0 183 51l12 -33q-113 -57 -222 -57q-156 0 -262 115q-82 88 -82 212q0 117 76 208q127 154 322 154q144 0 222 -107q62 -86 62 -193v-14zM464 226q8 37 8 58q0 64 -46 71q-30 0 -67 -43 q-30 -36 -42 -69q-15 -47 -15 -83q0 -30 9 -52q12 -31 37 -31q89 17 116 149z" />
<glyph unicode="A" horiz-adv-x="722" d="M711 0h-261v18q67 3 67 41q0 22 -19 67l-40 96h-257l-45 -105q-16 -36 -16 -57q0 -38 76 -42v-18h-208v18q41 8 54 19q23 21 55 95l233 545h17l230 -551q22 -53 40 -74q27 -31 74 -34v-18zM444 258l-112 267l-116 -267h228z" />
<glyph unicode="B" horiz-adv-x="667" d="M612 181q0 -54 -32.5 -97.5t-83.5 -62.5q-57 -21 -167 -21h-312v18h25q41 0 59 26q11 17 11 73v428q0 61 -14 78q-20 21 -56 21h-25v18h286q166 0 234 -68q45 -44 45 -109q0 -110 -121 -147q151 -31 151 -157zM479 489q0 71 -60 109q-49 31 -126 31q-50 0 -87 -10v-255 q34 -7 91 -7q124 0 162 63q20 32 20 69zM499 173q0 80 -67 119q-56 32 -140 32q-61 0 -86 -5v-271q55 -13 111 -13q76 0 123 31q59 38 59 107z" />
<glyph unicode="C" horiz-adv-x="667" d="M632 155q-96 -170 -275 -170q-163 0 -253 122q-68 92 -68 214q0 97 42 178q43 84 125 133q78 45 170 45q70 0 142 -35q22 -11 28 -11q31 0 41 46h18l15 -225h-15q-58 190 -221 190q-144 0 -203 -140q-32 -75 -32 -182q0 -187 117 -257q59 -35 132 -35q76 0 128 37 q43 30 94 100z" />
<glyph unicode="D" horiz-adv-x="722" d="M684 334q0 -163 -105 -251q-101 -83 -267 -83h-295v18h25q40 0 60 27q10 16 10 72v428q0 62 -13 78q-20 21 -57 21h-25v18h270q126 0 197 -24q98 -32 151 -118q49 -79 49 -186zM573 330q0 129 -69 209q-71 86 -198 86q-42 0 -100 -14v-563q64 -14 104 -14q125 0 195 88 q68 82 68 208z" />
<glyph unicode="E" horiz-adv-x="611" d="M588 166l-57 -166h-510v18h23q60 0 69 50q1 5 1.5 17.5t0.5 31.5v430q0 63 -12 78q-18 19 -59 19h-23v18h510l7 -145h-19q-7 42 -17 60q-13 29 -43 42q-17 7 -68 7h-182v-262h145q56 0 76 17q26 23 28 79h19v-230h-19q-6 50 -13 62q-19 37 -91 37h-145v-219v-37 q3 -24 18 -31q10 -6 37 -6h112q47 0 70 5q63 15 122 125h20z" />
<glyph unicode="F" horiz-adv-x="556" d="M515 517h-17q-23 80 -71 99q-23 10 -76 10h-146v-260h120q45 0 65 23q16 19 22 68h18v-225h-18q-2 65 -37 84q-17 9 -50 9h-120v-208v-32q0 -12 1 -17q4 -27 24.5 -38.5t44.5 -11.5h25v-18h-284v18h24q41 0 59 24q12 15 12 75v428q0 51 -7 66q-14 33 -64 33h-24v18h493z " />
<glyph unicode="G" horiz-adv-x="722" d="M708 343h-12q-38 0 -52 -26q-10 -16 -10 -71v-203q-109 -58 -233 -58q-194 0 -291 123q-75 91 -75 213q0 87 42 167q99 189 309 189q65 0 149 -31q28 -11 37 -11q21 0 24 42h18l17 -209h-17q-58 175 -219 175q-122 0 -188 -93q-61 -82 -61 -208q0 -88 33 -161 q34 -85 101 -126q59 -37 122 -37q73 0 137 37v191q0 38 -3 50q-7 30 -32 40q-15 7 -52 7v18h256v-18z" />
<glyph unicode="H" horiz-adv-x="722" d="M702 0h-285v18h24q39 0 59 24q13 16 13 75v202h-307v-202q0 -48 5 -66q13 -33 65 -33h25v-18h-284v18h24q41 0 59 24q12 15 12 75v427q0 40 -3 49q-5 28 -25.5 39.5t-42.5 11.5h-24v18h284v-18h-25q-60 0 -68 -50q-1 -6 -1.5 -18.5t-0.5 -31.5v-189h307v189q0 50 -6 67 q-14 33 -66 33h-24v18h285v-18h-24q-59 0 -70 -50q-1 -5 -1.5 -17.5t-0.5 -32.5v-427q0 -20 0.5 -31.5t1.5 -16.5q5 -28 25.5 -39.5t44.5 -11.5h24v-18z" />
<glyph unicode="I" horiz-adv-x="333" d="M309 0h-284v18h23q40 0 60 24q12 15 12 75v428q0 20 -0.5 32t-1.5 17q-5 27 -25.5 38.5t-44.5 11.5h-23v18h284v-18h-24q-41 0 -59 -24q-13 -16 -13 -75v-428q0 -51 7 -66q13 -33 65 -33h24v-18z" />
<glyph unicode="J" horiz-adv-x="389" d="M383 644h-24q-40 0 -59 -24q-11 -16 -11 -75v-324q0 -140 -73 -201q-41 -35 -97 -35q-38 0 -66 18q-32 21 -32 57q0 51 49 51q22 0 39 -23q7 -11 21 -42q11 -26 29 -26q36 0 36 73v452q0 51 -7 66q-14 33 -64 33h-24v18h283v-18z" />
<glyph unicode="K" horiz-adv-x="722" d="M729 0h-313v18q53 0 53 31q0 20 -35 55l-229 227v-214q0 -48 5 -66q15 -33 65 -33h24v-18h-282v18h23q40 0 60 24q11 16 11 75v428q0 20 -0.5 32t-1.5 17q-5 27 -25.5 38.5t-43.5 11.5h-23v18h282v-18h-24q-59 0 -68 -50q-1 -6 -1.5 -18t-0.5 -31v-203l66 62 q145 133 176 178q12 19 12 34q0 28 -43 28h-17v18h245v-18q-43 -2 -82 -26q-27 -17 -63 -50q-11 -12 -37 -37l-63 -63l-100 -101l243 -242q103 -101 187 -107v-18z" />
<glyph unicode="L" horiz-adv-x="611" d="M588 180l-55 -180h-513v18h24q42 0 60 27q11 17 11 73v427q0 62 -13 78q-20 21 -58 21h-24v18h299v-18q-85 1 -103 -36q-8 -16 -8 -74v-416q0 -40 6 -53q11 -20 46 -23h98q61 0 90 6q75 18 125 135z" />
<glyph unicode="M" horiz-adv-x="889" d="M868 0h-282v18h23q44 0 60 25q12 16 12 72v442l-256 -557h-16l-256 557v-442q0 -60 14 -76q16 -21 57 -21h23v-18h-230v18h23q42 0 60 25q9 16 9 72v432q0 43 -8 64q-18 33 -84 33v18h187l239 -518l238 518h187v-18h-23q-42 0 -60 -25q-12 -17 -12 -72v-432q0 -61 15 -76 q18 -21 57 -21h23v-18z" />
<glyph unicode="N" horiz-adv-x="722" d="M708 644h-22q-43 0 -61 -25q-11 -17 -11 -72v-558h-17l-437 533v-407q0 -63 13 -76q19 -21 57 -21h24v-18h-231v18h23q44 0 60 25q11 17 11 72v460q-26 31 -38 40q-17 14 -49 25q-12 4 -43 4v18h180l404 -496v381q0 61 -13 77q-20 20 -58 20h-21v18h229v-18z" />
<glyph unicode="O" horiz-adv-x="722" d="M684 335q0 -146 -90 -246q-95 -104 -236 -104q-148 0 -236 103q-87 97 -87 245q0 157 108 258q94 86 223 86q139 0 230 -103q88 -98 88 -239zM572 322q0 131 -41 213q-56 107 -176 107q-111 0 -166 -103q-43 -79 -43 -204q0 -163 70 -249q52 -66 140 -66q116 0 172 98 q44 79 44 204z" />
<glyph unicode="P" horiz-adv-x="556" d="M521 479q0 -89 -60 -137q-53 -46 -146 -46q-23 0 -50.5 3.5t-59.5 10.5v-193q0 -61 14 -77q19 -22 55 -22h26v-18h-283v18h25q40 0 60 27q9 15 9 72v428q0 64 -13 78q-20 21 -56 21h-25v18h242q79 0 124 -13q63 -18 103 -67q35 -44 35 -103zM410 469q0 97 -68 135 q-31 19 -73 19q-27 0 -64 -10v-275q50 -10 80 -10q57 0 91 43q34 40 34 98z" />
<glyph unicode="Q" horiz-adv-x="722" d="M684 331q0 -121 -66 -212q-64 -91 -179 -126q95 -161 241 -173v-16q-147 6 -289 95q-35 22 -64.5 45.5t-55.5 48.5q-68 28 -110 60q-126 97 -126 280q0 144 92 244q93 100 237 100q140 0 232 -104q88 -100 88 -242zM572 318q0 221 -111 292q-44 30 -103 30 q-115 0 -170 -102q-42 -80 -42 -205q0 -126 43 -209q57 -106 169 -106q114 0 170 98q44 79 44 202z" />
<glyph unicode="R" horiz-adv-x="667" d="M676 0h-177l-225 310q-12 -1 -22 -1h-19h-13q-6 0 -14 1v-193q0 -63 13 -77q19 -22 55 -22h27v-18h-284v18h25q40 0 60 27q10 16 10 72v428q0 62 -13 78q-20 21 -57 21h-25v18h241q89 0 130 -9q65 -14 104 -54q42 -44 42 -107q0 -134 -163 -170l136 -190q21 -29 39 -48.5 t32 -30.5q38 -29 98 -35v-18zM424 485q0 64 -39 102t-103 38q-30 0 -76 -9v-276h13h13q79 0 131 32q61 37 61 113z" />
<glyph unicode="S" horiz-adv-x="556" d="M502 169q0 -84 -63 -136q-60 -48 -145 -48q-31 0 -54 4l-23 7q-16 4 -41 12q-44 14 -59 14q-26 0 -30 -37h-18v227h18q10 -62 29 -96q23 -45 71 -70q44 -23 97 -23q52 0 90 27q42 30 42 81q0 54 -56 96q-17 13 -45 30t-67 38q-38 21 -66.5 38.5t-45.5 31.5 q-73 58 -73 138q0 77 59 127q56 47 134 47q52 0 112 -26q28 -12 39 -12q25 0 33 38h18v-229h-18q-16 123 -96 167q-43 23 -87 23q-46 0 -80 -27q-37 -28 -37 -74q0 -31 21 -56q31 -35 144 -97l65 -36q25 -14 36 -21q96 -66 96 -158z" />
<glyph unicode="T" horiz-adv-x="611" d="M586 507h-19q-5 41 -14 58q-30 56 -107 56h-93v-506q0 -63 13 -76q18 -21 57 -21h23v-18h-280v18h23q42 0 60 25q10 16 10 72v506h-79q-48 0 -66 -7q-59 -21 -65 -107h-19l8 155h541z" />
<glyph unicode="U" horiz-adv-x="722" d="M711 644h-24q-39 0 -61 -33q-10 -14 -10 -70v-269q0 -91 -14 -139q-47 -149 -241 -149q-193 0 -244 139q-15 43 -15 163v259q0 51 -11 71q-16 28 -61 28h-25v18h287v-18h-26q-41 0 -58 -26q-13 -17 -13 -73v-289q0 -117 33 -166q43 -64 139 -64q60 0 109 25q57 27 78 76 q18 43 18 150v268q0 62 -13 78q-20 21 -57 21h-25v18h234v-18z" />
<glyph unicode="V" horiz-adv-x="722" d="M710 644q-37 -6 -53 -22q-27 -24 -46 -74l-231 -563h-18l-248 571q-20 45 -27 53q-25 30 -78 35v18h270v-18q-73 -7 -73 -44q0 -23 23 -77l168 -388l156 384q23 57 23 78q0 35 -62 46l-8 1v18h204v-18z" />
<glyph unicode="W" horiz-adv-x="944" d="M936 644q-47 0 -73 -44q-6 -11 -30 -81l-186 -534h-19l-150 423l-150 -423h-18l-197 550q-11 31 -18 49t-11 23q-18 37 -71 37v18h245v-18h-11q-54 0 -54 -40q0 -19 22 -79l130 -371l110 316l-35 100q-19 57 -63 71q-9 3 -29 3v18h256v-18h-16q-53 0 -53 -43 q0 -27 22 -87l127 -360l126 365q22 60 22 84q0 41 -74 41v18h198v-18z" />
<glyph unicode="X" horiz-adv-x="722" d="M710 0h-284v18l33 3q18 5 26 17q7 7 7 18q0 10 -5 22q-1 5 -27 43l-112 170l-139 -178q-30 -39 -30 -57q0 -35 63 -38v-18h-235v18q26 3 43 10q60 25 120 100l157 198l-131 191q-44 63 -72 87q-46 39 -103 40v18h306v-18q-68 -2 -68 -38q0 -17 23 -52l102 -152l117 149 q30 37 30 56q0 24 -24 33q-9 4 -47 4v18h235v-18q-29 -2 -45 -9q-48 -19 -110 -100l-132 -168l142 -212q47 -70 65 -90q44 -44 95 -47v-18z" />
<glyph unicode="Y" horiz-adv-x="722" d="M708 644h-13q-40 0 -82 -43q-8 -10 -20.5 -27t-28.5 -42l-160 -251v-166q0 -60 14 -76q19 -21 59 -21h21v-18h-281v18h23q42 0 60 25q11 17 11 72v156l-182 278l-25 37q-9 14 -13 17q-16 18 -53 36q-12 5 -29 5v18h283v-18h-14q-24 0 -41 -10q-21 -11 -21 -33 q0 -17 30 -63l138 -214l130 204q29 47 29 69q0 29 -27 41q-14 6 -39 6v18h231v-18z" />
<glyph unicode="Z" horiz-adv-x="611" d="M583 175l-31 -175h-539v18l424 605h-211q-88 0 -113 -45q-13 -24 -23 -81h-18l12 165h491l-435 -622h272q68 0 104 36q27 28 51 102z" />
<glyph unicode="[" horiz-adv-x="364" d="M267 -64q-17 2 -33.5 6t-29.5 13.5t-20.5 26.5t-5.5 44q1 25 10.5 73t21.5 102l24 104l18 79q8 34 19 55.5t24.5 33.5t28.5 16t30 4h8q3 0 6 -1t8 -2t15 -2l33 118q-19 7 -33 11.5t-26.5 7t-25 3.5t-28.5 1q-80 1 -130 -61.5t-77 -183.5l-32 -138q-16 -66 -28 -123 q-6 -30 -9 -50l-5 -34q-2 -14 -2.5 -26.5t-1.5 -27.5q-2 -30 5.5 -60.5t29.5 -54.5t61 -39.5t101 -15.5h26l30 120q-2 0 -6 0.5t-6 0.5zM79 -169q-37 32 -53.5 72.5t-14.5 81.5q3 52 11 101.5t19.5 99t24.5 99t25 102.5q28 120 80.5 188.5t139.5 66.5q33 -1 62.5 -7.5 t66.5 -19.5l46 -53l-37 -135l-45 6q-14 0 -27 -4t-25 -15t-22.5 -31t-17.5 -51l-20 -83l-24 -102t-21 -98.5t-11 -70.5q-1 -11 0 -16t2 -8q7 -2 19.5 -5t38.5 -1l46 -53l-35 -140h-34q-62 0 -102 14t-63 37z" />
<glyph unicode="\" horiz-adv-x="276" d="M264 0h-71l-193 583h78z" />
<glyph unicode="]" horiz-adv-x="393" d="M104 503q17 -2 34 -5t30.5 -11.5t22 -24.5t8.5 -43q0 -14 -1.5 -27.5t-6.5 -30.5q-3 -11 -9 -35l-12 -54l-15 -64l-15 -63l-12 -55q-6 -24 -9 -35q-8 -34 -19 -55.5t-24.5 -33.5t-28.5 -16t-30 -4q-11 0 -22.5 1.5t-31.5 4.5q-8 -31 -16.5 -58.5t-16.5 -59.5l42 -14 q18 -6 32 -9t27.5 -4t28.5 0q88 5 136.5 67.5t74.5 177.5l13 64l16 69l15 69q7 34 12 62l13 80q5 31 7 54q3 40 -5 72.5t-30.5 55t-62 34.5t-101.5 12h-26l-30 -120zM-86 -174l39 141q7 -1 16.5 -2t19 -2.5t17.5 -2.5t11 -1q12 0 25 4t24.5 15t21.5 30.5t18 50.5l12 47 l16 72q8 28 14 57l12 55l10 45q4 20 8 30q5 20 7 36.5t-1 36.5q-8 2 -20 3l-35 3l-54 47l36 146h37q80 0 123.5 -18t68.5 -50q20 -26 34.5 -48t23 -42t11 -39.5t-1.5 -40.5l-76 -399q-23 -121 -75.5 -184.5t-144.5 -68.5q-16 -1 -30.5 0.5t-30.5 5t-36 9.5l-46 16z" />
<glyph unicode="^" horiz-adv-x="385" d="M375 213h-58l-123 277l-123 -277h-58l154 342h53z" />
<glyph unicode="_" horiz-adv-x="504" d="M504 -126h-504v55h504v-55z" />
<glyph unicode="`" horiz-adv-x="333" d="M58 679h109l51 -169h-17z" />
<glyph unicode="a" horiz-adv-x="444" d="M441 64q-54 -73 -105 -73q-50 0 -51 73l-57 -42q-22 -16 -30 -19q-26 -12 -56 -12q-49 0 -77.5 32t-28.5 83q0 69 84 119q51 31 165 71v18q0 53 -14 81q-21 36 -69 36q-27 0 -46 -15q-23 -16 -22 -40l1 -28q2 -47 -41 -47q-41 0 -41 47q0 55 57 87q46 25 106 25 q112 0 139 -67q10 -20 10 -86v-152q0 -88 10 -97q8 -5 14 -5q7 0 13 3q10 6 39 36v-28zM285 267q-72 -28 -97 -42q-70 -40 -70 -96q0 -32 19 -57t50 -25q37 0 98 49v171z" />
<glyph unicode="b" horiz-adv-x="500" d="M465 241q0 -119 -79 -192q-68 -63 -151 -63q-78 0 -162 57v463q0 106 -15 118q-8 6 -19 6q-15 0 -35 -7l-6 17l134 54h22v-324q64 90 140 90q82 0 130 -71q41 -62 41 -148zM381 213q0 69 -28 118q-35 60 -98 60q-48 0 -101 -52v-268q49 -49 106 -49q61 0 94 69 q27 54 27 122z" />
<glyph unicode="c" horiz-adv-x="444" d="M411 170q-17 -79 -61 -127q-53 -57 -126 -57q-91 0 -143 76q-47 68 -47 161q0 99 58 167q58 70 156 70q52 0 97 -27q52 -31 52 -80q0 -41 -44 -41q-30 0 -43 18q-6 8 -12 40q-6 30 -21 44t-47 14q-59 0 -90 -54q-27 -45 -27 -109q0 -76 33 -134q41 -68 113 -68 q46 0 86 32q26 22 51 82z" />
<glyph unicode="d" horiz-adv-x="500" d="M502 42l-132 -56h-23v64q-61 -64 -131 -64q-84 0 -136 70q-47 64 -47 149q0 100 58 174q63 82 159 82q59 0 97 -38v83q0 106 -15 118q-8 6 -20 6q-13 0 -33 -7l-8 17l135 54h22v-517q0 -107 15 -120q7 -7 19 -7t35 9zM347 315q0 45 -30 80q-29 36 -73 36q-62 0 -95 -67 q-26 -54 -26 -120q0 -77 31 -133q38 -71 107 -71q45 0 86 44v231z" />
<glyph unicode="e" horiz-adv-x="444" d="M416 163q-12 -73 -61 -123q-53 -54 -124 -54q-91 0 -146 72q-48 64 -48 160q0 102 50 169q57 74 157 74q79 0 125 -52q47 -52 47 -130h-311q0 -85 40 -144q43 -69 125 -69q90 0 129 107zM312 307q-1 43 -9 61q-25 58 -87 58q-49 0 -77 -37q-28 -32 -34 -82h207z" />
<glyph unicode="f" horiz-adv-x="333" d="M435 611q0 -15 -13 -28t-27 -13q-21 0 -56 44q-33 44 -67 44q-47 0 -60 -49q-6 -26 -6 -130v-32h115v-35h-115v-294q0 -62 14 -79q18 -21 48 -21h41v-18h-267v18h20q43 0 58 36q5 18 5 64v294h-86v35h86v30q0 132 87 188q43 28 100 28q50 0 94 -33q29 -23 29 -49z" />
<glyph unicode="g" horiz-adv-x="500" d="M482 408q0 -18 -5.5 -20.5t-26.5 -2.5h-58q27 -35 27 -90q0 -71 -54 -113q-50 -38 -122 -38q-35 0 -68 10q-37 -31 -37 -56q0 -22 40 -28q13 -1 68 -3q51 -2 83.5 -3.5t46.5 -3.5q45 -6 72.5 -32t27.5 -69q0 -55 -52 -104q-77 -71 -198 -71q-96 0 -160 43q-36 24 -36 50 q0 24 39 74q3 1 15 15l35 38q-46 28 -46 54q0 40 78 105q-85 42 -85 135q0 72 54 119q50 43 124 43q65 0 111 -31h95q21 0 24 -1q8 -5 8 -20zM333 283q0 57 -20 100q-26 54 -77 54q-44 0 -67 -38q-18 -32 -18 -79q0 -57 20 -99q26 -53 78 -53q84 0 84 115zM440 -60 q0 33 -50 44q-8 2 -27 3t-48 2q-55 2 -97 4.5t-72 6.5q-46 -49 -46 -86q0 -23 28 -41q49 -30 141 -30q62 0 107 19q64 25 64 78z" />
<glyph unicode="h" horiz-adv-x="500" d="M494 0h-220v18h10q51 0 61 37q1 4 1 46v158q0 28 -0.5 45.5t-1.5 24.5q-11 72 -70 72q-51 0 -111 -64v-236v-28q0 -11 1 -15q7 -40 71 -40v-18h-222v18q44 0 57 19q12 16 12 64v405q0 106 -15 118q-8 6 -21 6q-12 0 -33 -7l-7 17l134 54h23v-327q40 45 66 63q40 30 83 30 q80 0 106 -86q9 -32 9 -115v-158q0 -43 7 -58q10 -25 60 -25v-18z" />
<glyph unicode="i" horiz-adv-x="278" d="M194 645q0 -21 -14 -35.5t-35 -14.5t-35.5 14.5t-14.5 35.5t14.5 35t35.5 14t35 -14t14 -35zM253 0h-217v18q50 0 62 27q6 13 6 56v172q0 76 -4 95q-6 28 -31 28q-12 0 -33 -8l-7 18l135 54h22v-359q0 -64 24 -77q12 -6 43 -6v-18z" />
<glyph unicode="j" horiz-adv-x="278" d="M195 645q0 -22 -14 -36t-35 -14t-36 14.5t-15 35.5t14.5 35.5t36.5 14.5q21 0 35 -14.5t14 -35.5zM187 10q0 -97 -38 -156q-45 -70 -138 -70q-31 0 -54 10q-34 13 -34 39q0 17 12.5 29.5t27.5 12.5q13 0 27 -6q4 -2 12 -9l22 -18q22 -19 38 -19q29 0 40 39q4 19 4 92v318 q0 74 -3 95q-8 29 -32 29q-13 0 -32 -8l-8 18l136 54h20v-450z" />
<glyph unicode="k" horiz-adv-x="500" d="M506 0h-217v18q31 1 31 20q0 11 -19 36l-137 175v-148q0 -65 23 -77q10 -6 49 -6v-18h-228v18q55 0 67 24q8 18 8 56v407q0 106 -15 120q-8 6 -21 6q-9 0 -30 -8l-9 17l133 54h23v-445l113 104q36 33 42 42q4 5 4 12q0 24 -34 25v15h194v-15q-70 -1 -125 -53l-115 -106 l115 -145q46 -59 64 -76q24 -22 41 -30q12 -4 43 -4v-18z" />
<glyph unicode="l" horiz-adv-x="278" d="M257 0h-219v18q48 0 60 27q6 15 6 56v406q0 105 -14 117q-8 6 -20 6q-14 0 -32 -7l-8 17l133 54h22v-593q0 -63 25 -76q13 -7 47 -7v-18z" />
<glyph unicode="m" horiz-adv-x="778" d="M773 0h-220v18h9q50 0 61 36q1 4 1.5 15.5t0.5 31.5v192q0 56 -13 78q-19 31 -61 31q-51 0 -115 -61l-1 -6l1 -21v-213v-28q0 -11 1 -15q7 -40 71 -40v-18h-226v18q60 0 71 35q2 10 2 48v192q0 110 -76 110q-26 0 -52 -14q-41 -23 -63 -48v-240q0 -64 24 -77q13 -6 49 -6 v-18h-221v18q49 0 61 27q6 15 6 56v171q0 76 -4 95q-6 29 -31 29q-11 0 -32 -8l-8 18l135 54h21v-95q24 25 38.5 38.5t19.5 17.5q46 39 97 39q92 0 113 -95q20 23 37 39.5t31 26.5q41 29 88 29q77 0 107 -78q11 -28 11 -89v-192q0 -43 6 -58q10 -25 61 -25v-18z" />
<glyph unicode="n" horiz-adv-x="500" d="M496 0h-222v18h10q51 0 61 37q2 10 2 46v183q0 116 -70 116q-58 0 -115 -63v-236q0 -44 5 -56q13 -27 67 -27v-18h-221v18h10q38 0 50 24q8 18 8 59v166q0 110 -15 122q-7 7 -20 7q-12 0 -33 -8l-7 18l135 54h21v-94q78 94 150 94q75 0 105 -78q10 -27 10 -90v-191 q0 -64 25 -77q12 -6 44 -6v-18z" />
<glyph unicode="o" horiz-adv-x="500" d="M465 232q0 -64 -28 -121q-30 -63 -79.5 -94t-112.5 -31q-101 0 -162 81q-49 67 -49 152q0 63 28 120q32 63 81.5 92t106.5 29q101 0 163 -77q52 -64 52 -151zM375 194q0 120 -52 188q-35 47 -88 47q-61 0 -89 -58q-21 -44 -21 -111q0 -82 29 -151q39 -88 112 -88 q109 0 109 173z" />
<glyph unicode="p" horiz-adv-x="500" d="M466 240q0 -116 -67 -192q-54 -62 -137 -62q-64 0 -107 40v-136q0 -19 0.5 -29.5t1.5 -14.5q7 -42 74 -42v-18h-234v18h12q42 0 56 23q9 16 9 66v422q0 63 -16 73q-8 6 -23 6q-13 0 -30 -7l-5 16l137 55h18v-104q63 106 143 106q81 0 128 -72q40 -62 40 -148zM379 194 q0 102 -45 158q-32 38 -74 38q-23 0 -47 -12q-18 -10 -58 -53v-167q0 -53 5 -71q8 -33 36.5 -52t63.5 -19q63 0 94 61q25 46 25 117z" />
<glyph unicode="q" horiz-adv-x="500" d="M500 -214h-226v18h10q46 0 57 27q6 13 6 54v193q-77 -92 -147 -92q-80 0 -126 72q-41 64 -41 146q0 106 61 179q65 77 169 77q56 0 93 -31q14 7 28 15l27 16h16v-575q0 -16 0.5 -26t1.5 -15q4 -22 23 -33q11 -7 48 -7v-18zM347 318q0 51 -25.5 79.5t-73.5 28.5 q-70 0 -105 -62q-28 -49 -28 -125q0 -73 30 -124q37 -60 105 -60q55 0 97 53v210z" />
<glyph unicode="r" horiz-adv-x="333" d="M339 406q0 -19 -12 -32t-31 -13q-13 0 -38 17t-31 17q-28 0 -65 -76v-215q0 -46 16.5 -66t61.5 -20v-18h-229v18q57 0 68 35q3 9 3 48v173v59q-3 63 -37 63q-13 0 -34 -8l-5 18l136 54h20v-100q55 100 115 100q25 0 43.5 -15t18.5 -39z" />
<glyph unicode="s" horiz-adv-x="389" d="M354 122q0 -61 -45 -98q-44 -38 -104 -38q-43 0 -94 15q-18 5 -27 5q-11 0 -17 -13h-16v160h16q12 -59 45 -96q37 -42 94 -42q30 0 53 18.5t23 49.5q0 39 -42 71q-19 16 -80 45q-52 25 -77 49q-34 33 -34 83q0 29 10.5 52.5t28.5 40.5t43 26.5t54 9.5q25 0 64 -11 q22 -7 33 -7q13 0 22 18h16v-152h-16q-15 58 -38 87q-30 37 -83 37q-29 0 -51 -15q-26 -17 -26 -43q0 -53 78 -90l71 -34q99 -50 99 -128z" />
<glyph unicode="t" horiz-adv-x="278" d="M279 89q-35 -96 -112 -96q-55 0 -76 48q-10 21 -10 71v301h-71v16q60 24 105 97q5 8 13 25l18 43h15v-147h105v-34h-105v-290q0 -74 45 -74q38 0 54 40h19z" />
<glyph unicode="u" horiz-adv-x="500" d="M499 42l-134 -56h-22v95q-44 -47 -67 -64q-40 -31 -85 -31q-79 0 -104 78q-10 33 -10 97v199q0 49 -27 63q-13 7 -49 6v18h157v-299q0 -102 74 -102q48 0 111 64v253q0 40 -17 54q-13 10 -55 12v18h152v-271q0 -106 16 -119q7 -7 19 -7q14 0 34 9z" />
<glyph unicode="v" horiz-adv-x="500" d="M491 429q-25 -1 -35 -10q-17 -14 -31 -49l-159 -384h-20l-160 378q-18 43 -45 57q-4 2 -12 4t-21 4v18h211v-18h-14q-39 0 -39 -34q0 -17 10 -41l104 -247l105 257q11 28 11 41q0 8 -4 12q-9 12 -47 12v18h146v-18z" />
<glyph unicode="w" horiz-adv-x="722" d="M713 429q-44 -6 -63 -57l-149 -386h-20l-112 286l-130 -286h-18l-144 376q-6 16 -12 27.5t-14 19t-19 12.5t-26 8v18h188v-18q-42 -3 -42 -30q0 -13 8 -37l96 -257l96 209l-25 66q-10 28 -31 41q-9 6 -40 8v18h213v-18q-60 -2 -60 -37q0 -12 4 -20l102 -257l94 247 q10 24 10 42q0 23 -47 25v18h141v-18z" />
<glyph unicode="x" horiz-adv-x="500" d="M488 0h-211v18q43 0 43 27q0 11 -31 57l-65 96l-72 -96q-33 -44 -33 -53q0 -29 44 -31v-18h-146v18q18 1 30 12q19 13 63 72l94 125l-85 123q-30 42 -43 55q-27 24 -63 24v18h211v-18q-37 0 -37 -25q0 -8 34 -60l30 -51l38 51q35 50 35 61q0 24 -35 24v18h150v-18 q-24 -2 -40 -13q-24 -17 -66 -72l-62 -82l113 -160q31 -47 42 -57q25 -25 62 -27v-18z" />
<glyph unicode="y" horiz-adv-x="500" d="M494 429q-31 -3 -49 -30q-2 -2 -6 -11l-11 -26l-182 -446q-22 -54 -58 -89q-43 -43 -93 -43q-26 0 -46 15t-20 40q0 45 50 45q17 0 44 -10q21 -8 24 -8q37 0 67 74l32 78l-161 337q-22 46 -43 61q-9 7 -36 13v18h208v-18h-10q-44 0 -44 -33q0 -20 16 -53l109 -225 l100 247q9 19 9 39q0 16 -16 22q-8 3 -29 3v18h145v-18z" />
<glyph unicode="z" horiz-adv-x="444" d="M428 429l-301 -396h164q42 0 57 4q28 7 42 34q7 15 12 66h17l-4 -137h-395v18l296 395h-147q-19 0 -30.5 -0.5t-16.5 -1.5q-48 -10 -54 -88h-19l4 124h375v-18z" />
<glyph unicode="{" horiz-adv-x="364" d="M267 -64q-17 2 -33.5 6t-29.5 13.5t-20.5 26.5t-5.5 44q1 25 10.5 73t21.5 102l24 104l18 79q8 34 19 55.5t24.5 33.5t28.5 16t30 4h8q3 0 6 -1t8 -2t15 -2l33 118q-19 7 -33 11.5t-26.5 7t-25 3.5t-28.5 1q-80 1 -130 -61.5t-77 -183.5l-32 -138q-16 -66 -28 -123 q-6 -30 -9 -50l-5 -34q-2 -14 -2.5 -26.5t-1.5 -27.5q-2 -30 5.5 -60.5t29.5 -54.5t61 -39.5t101 -15.5h26l30 120q-2 0 -6 0.5t-6 0.5zM79 -169q-37 32 -53.5 72.5t-14.5 81.5q3 52 11 101.5t19.5 99t24.5 99t25 102.5q28 120 80.5 188.5t139.5 66.5q33 -1 62.5 -7.5 t66.5 -19.5l46 -53l-37 -135l-45 6q-14 0 -27 -4t-25 -15t-22.5 -31t-17.5 -51l-20 -83l-24 -102t-21 -98.5t-11 -70.5q-1 -11 0 -16t2 -8q7 -2 19.5 -5t38.5 -1l46 -53l-35 -140h-34q-62 0 -102 14t-63 37z" />
<glyph unicode="|" horiz-adv-x="430" d="M402 638l46 -53l-224 -880h-172l-54 47l230 886h174zM238 625l-223 -860h151l219 860h-147z" />
<glyph unicode="}" horiz-adv-x="393" d="M104 503q17 -2 34 -5t30.5 -11.5t22 -24.5t8.5 -43q0 -14 -1.5 -27.5t-6.5 -30.5q-3 -11 -9 -35l-12 -54l-15 -64l-15 -63l-12 -55q-6 -24 -9 -35q-8 -34 -19 -55.5t-24.5 -33.5t-28.5 -16t-30 -4q-11 0 -22.5 1.5t-31.5 4.5q-8 -31 -16.5 -58.5t-16.5 -59.5l42 -14 q18 -6 32 -9t27.5 -4t28.5 0q88 5 136.5 67.5t74.5 177.5l13 64l16 69l15 69q7 34 12 62l13 80q5 31 7 54q3 40 -5 72.5t-30.5 55t-62 34.5t-101.5 12h-26l-30 -120zM-86 -174l39 141q7 -1 16.5 -2t19 -2.5t17.5 -2.5t11 -1q12 0 25 4t24.5 15t21.5 30.5t18 50.5l12 47 l16 72q8 28 14 57l12 55l10 45q4 20 8 30q5 20 7 36.5t-1 36.5q-8 2 -20 3l-35 3l-54 47l36 146h37q80 0 123.5 -18t68.5 -50q20 -26 34.5 -48t23 -42t11 -39.5t-1.5 -40.5l-76 -399q-23 -121 -75.5 -184.5t-144.5 -68.5q-16 -1 -30.5 0.5t-30.5 5t-36 9.5l-46 16z" />
<glyph unicode="~" horiz-adv-x="420" d="M390 257q0 -19 -7 -35.5t-19.5 -28.5t-29 -18.5t-34.5 -6.5q-45 0 -74 38l-80 109q-9 12 -26 12q-14 0 -26.5 -9.5t-12.5 -22.5v-99q0 -25 -26 -25q-25 0 -25 25v99q0 37 26.5 63t63.5 26q47 0 73 -36l79 -109q10 -15 28 -15q14 0 26.5 9.5t12.5 23.5v98q0 25 26 25 q25 0 25 -25v-98z" />
<glyph unicode="&#xa2;" horiz-adv-x="544" d="M261 413q-34 -5 -55 -24t-32.5 -46t-15.5 -59t-4 -62t4 -62t15.5 -59t32.5 -46.5t55 -23.5v382zM453 104q-38 -104 -149 -115v-92q0 -8 -6 -14.5t-15 -6.5t-15.5 6.5t-6.5 14.5v91q-48 3 -84.5 22.5t-61 51t-37.5 72.5t-13 88q0 48 12.5 89t37.5 72t61.5 50t84.5 22v89 q0 9 6 15.5t15 6.5t15.5 -5.5t6.5 -16.5v-89q33 -2 65 -10.5t62 -21.5q4 -2 10 -8t5 -14v-83q0 -5 -4 -10t-10 -5h-16q-11 0 -13.5 6t-3.5 9q-9 42 -31 66t-64 29v-382q37 5 59 27t33 59q1 4 6.5 10t14.5 6h16q16 0 19 -11t1 -18z" />
<glyph unicode="&#xa3;" horiz-adv-x="398" d="M391 57q0 -6 -3 -13l-15 -34q-2 -5 -4.5 -7.5t-10.5 -2.5h-317q-8 0 -10.5 2.5t-2.5 11.5v38q0 8 2.5 10.5t10.5 2.5h51l10 44q5 23 5 66q0 11 -0.5 21t-1.5 19h-63q-9 0 -11.5 2.5t-2.5 11.5v38q0 8 2.5 10.5t11.5 2.5h50q-4 15 -6.5 35t-2.5 37q0 32 11 60t33 48.5 t56 32.5t80 12q23 0 45.5 -4.5t40.5 -11t29 -14.5t11 -15q0 -2 -1 -4.5t-2 -4.5l-19 -38q-4 -6 -8 -6t-10.5 5t-18.5 10.5t-29.5 10.5t-42.5 5q-58 0 -78.5 -20.5t-20.5 -62.5q0 -17 2 -38t6 -37h113q9 0 11.5 -2.5t2.5 -10.5v-38q0 -9 -3 -11.5t-11 -2.5h-100q3 -21 3 -42 q0 -41 -5.5 -64.5t-9.5 -43.5h210q5 0 9 -1.5t4 -6.5z" />
<glyph unicode="&#xa5;" horiz-adv-x="544" d="M537 600q0 -9 -7 -15t-16 -6h-27l-117 -207h79q11 0 17.5 -6t6.5 -15q0 -10 -7 -16.5t-16 -6.5h-105h-1l-31 -53v-33h136q11 0 17.5 -6t6.5 -16q0 -9 -7 -15.5t-16 -6.5h-137v-153h47q9 0 16 -6.5t7 -15.5q0 -10 -7.5 -16.5t-15.5 -6.5h-178q-9 0 -15.5 6t-6.5 16 q0 9 7 16t15 7h48v153h-136q-9 0 -16 6t-7 15q0 10 7.5 16.5t15.5 6.5h136v27l-34 59h-102q-9 0 -16 6t-7 16q0 9 7.5 15.5t15.5 6.5h76l-119 207h-25q-10 0 -17 6t-7 15q0 10 7 16.5t16 6.5h167q9 0 16 -6t7 -16q0 -9 -7.5 -15.5t-15.5 -6.5h-41l143 -252l142 252h-38 q-8 0 -15.5 6.5t-7.5 15.5q0 10 7 16t16 6h116q8 0 15.5 -6.5t7.5 -16.5z" />
<glyph unicode="&#xa8;" horiz-adv-x="427" d="M180 606q0 -22 -13 -35t-36 -13q-20 0 -34 14t-14 34t14 34.5t34 14.5q21 0 35 -14t14 -35zM345 606q0 -20 -14 -34t-35 -14q-22 0 -35.5 13t-13.5 35q0 21 14.5 35t34.5 14t34.5 -14.5t14.5 -34.5z" />
<glyph unicode="&#xa9;" horiz-adv-x="556" d="M384 130q-4 -4 -11.5 -10.5t-19 -13t-27.5 -11t-37 -4.5q-27 0 -51.5 10t-43 28t-30 42.5t-11.5 53.5t11.5 53.5t30.5 42.5t43.5 28t50.5 10q21 0 36.5 -4.5t27.5 -11t19.5 -13t11.5 -10.5l-26 -33q-9 8 -26 19.5t-43 11.5q-16 0 -32.5 -6t-30 -18t-22 -29.5t-8.5 -39.5 q0 -23 8.5 -40.5t22 -29t29 -17.5t30.5 -6q32 0 47.5 11t24.5 19zM478 221q0 41 -16 77.5t-43 63.5t-63.5 43t-77.5 16t-77.5 -16t-63.5 -43t-43 -63.5t-16 -77.5t16 -77.5t43 -63.5t63.5 -43t77.5 -16t77.5 16t63.5 43t43 63.5t16 77.5zM513 221q0 -49 -18.5 -91.5 t-50.5 -74.5t-75 -50.5t-91 -18.5q-49 0 -91.5 18.5t-74.5 50.5t-50.5 74.5t-18.5 91.5q0 48 18.5 91t50.5 75t74.5 50.5t91.5 18.5q48 0 91 -18.5t75 -50.5t50.5 -75t18.5 -91z" />
<glyph unicode="&#xab;" horiz-adv-x="523" d="M267 90q0 -14 -15 -14q-9 0 -17 8l-162 143q-2 1 -4 4q-3 4 -3 11v17q0 7 3 12q2 3 4 4l162 143q4 3 8 5.5t9 2.5q15 0 15 -15q0 -9 -5 -16l-124 -144l124 -145q5 -6 5 -16zM448 90q0 -14 -15 -14q-9 0 -17 8l-161 143q-2 1 -4 4q-4 6 -4 11v17q0 6 4 12q2 3 4 4l161 143 q4 3 8 5.5t9 2.5q15 0 15 -15q0 -8 -4 -16l-125 -144l125 -145q2 -4 3 -7t1 -9z" />
<glyph unicode="&#xad;" horiz-adv-x="392" d="M113 343h282l46 -53l-42 -143h-275l-54 47zM88 207h253l36 123h-254z" />
<glyph unicode="&#xae;" horiz-adv-x="855" d="M507 393q0 65 -73 65h-73v-131h73q73 0 73 66zM619 158q0 -5 -4 -8.5t-9 -3.5h-52q-8 0 -11 2.5t-5 5.5l-53 99q-13 23 -25.5 36t-43.5 13h-55v-132h33q13 0 13 -12q0 -5 -4 -8.5t-9 -3.5h-111q-14 0 -14 12q0 5 4.5 8.5t9.5 3.5h27v288h-27q-6 0 -10 3.5t-4 8.5t4.5 9 t9.5 4h168q48 0 80.5 -21t32.5 -69q0 -38 -23.5 -56.5t-61.5 -23.5q20 -5 31.5 -15.5t20.5 -27.5l54 -100h21q13 0 13 -12zM694 310q0 55 -21 104t-57 85t-84.5 57t-104.5 21q-55 0 -103.5 -21t-84.5 -57.5t-57 -85t-21 -103.5t21 -103.5t57 -85t84.5 -57.5t103.5 -21 q56 0 104.5 21t84.5 57t57 84.5t21 104.5zM737 310q0 -64 -24.5 -120.5t-66.5 -98.5t-98.5 -66.5t-120.5 -24.5t-120.5 24.5t-98.5 66.5t-66 98.5t-24 120.5t24 120.5t66 98.5t98.5 66.5t120.5 24.5t120.5 -24.5t98.5 -66.5t66.5 -98.5t24.5 -120.5z" />
<glyph unicode="&#xb4;" horiz-adv-x="218" d="M168 304l-13 -26q-7 -14 -17.5 -23.5t-25 -14.5t-35.5 1q-17 4 -24 29.5t-7 56t5.5 58t13.5 37.5q18 23 48 27.5t57 -6.5q20 -8 24.5 -27t0 -40.5t-13 -41.5t-13.5 -30z" />
<glyph unicode="&#xb8;" horiz-adv-x="427" d="M293 -94q0 -21 -9 -35t-23 -22t-32 -11.5t-36 -3.5q-12 0 -24.5 1t-23.5 4.5t-18 9.5t-7 17q0 13 7.5 17.5t18.5 5.5q10 0 20.5 -1.5t18.5 -1.5q20 1 36 9.5t15 31.5q0 10 -4 18q-4 7 -10 15l-10 14q-4 6 -4 13q0 6 5 9.5t11 3.5q17 0 31 -15q17 -18 27.5 -37t10.5 -42z " />
<glyph unicode="&#xbb;" horiz-adv-x="523" d="M276 242q0 -5 -4 -11q-2 -3 -3 -4l-162 -143q-8 -8 -17 -8q-15 0 -15 14q0 10 5 16l124 145l-124 144q-5 7 -5 16q0 15 15 15q5 0 9 -2.5t8 -5.5l162 -143q1 -1 3 -4q4 -6 4 -12v-17zM458 242q0 -5 -4 -11q-2 -3 -4 -4l-161 -143q-8 -8 -17 -8q-16 0 -16 14q0 10 5 16 l125 145l-125 144q-5 7 -5 16q0 15 16 15q5 0 9 -2.5t8 -5.5l161 -143q2 -1 4 -4q4 -6 4 -12v-17z" />
<glyph unicode="&#x2c6;" horiz-adv-x="427" d="M336 542q0 -8 -6 -11.5t-14 -3.5t-13.5 1t-10.5 8l-78 100l-78 -101q-4 -5 -10.5 -6.5t-13.5 -1.5q-8 0 -14 3.5t-6 11.5q0 5 5 12.5t8 12.5l68 108q2 2 5 4q2 2 5.5 3.5t8.5 1.5h44q5 0 8.5 -1.5t5.5 -3.5q3 -2 5 -4l68 -108q3 -5 8 -12.5t5 -12.5z" />
<glyph unicode="&#x2da;" horiz-adv-x="450" d="M292 670q0 28 -19.5 47t-47.5 19q-29 0 -48 -18.5t-19 -47.5t19 -48t48 -19t48 19t19 48zM345 670q0 -26 -9 -48t-25.5 -38t-38.5 -25.5t-47 -9.5q-26 0 -47.5 9.5t-38 25.5t-25.5 38t-9 48q0 25 9 47t25.5 38.5t38 25.5t47.5 9q25 0 47 -9t38.5 -25.5t25.5 -38.5t9 -47z " />
<glyph unicode="&#x2dc;" horiz-adv-x="427" d="M351 643q0 -16 -5 -33t-15 -31.5t-25 -23.5t-36 -9q-22 0 -37 10t-27 22.5t-23.5 22.5t-25.5 10q-20 0 -28 -15t-10 -32q-1 -5 -5 -11.5t-15 -6.5q-9 0 -15.5 6t-6.5 15q0 16 5 33t14.5 31t25 23.5t36.5 9.5q22 0 37 -10t27.5 -22.5t24 -22.5t25.5 -10q20 0 27.5 15 t9.5 32q1 5 5 11.5t15 6.5q8 0 15 -6t7 -15z" />
<glyph unicode="&#x5b0;" d="M40 -237q0 -17 -11.5 -28.5t-28.5 -11.5t-28.5 11.5t-11.5 28.5t11.5 28.5t28.5 11.5t28.5 -11.5t11.5 -28.5zM40 -116q0 -17 -11.5 -28.5t-28.5 -11.5t-28.5 11.5t-11.5 28.5t11.5 28.5t28.5 11.5t28.5 -11.5t11.5 -28.5z" />
<glyph unicode="&#x5b1;" d="M-24 -237q0 -17 -11.5 -28.5t-28.5 -11.5t-28.5 11.5t-11.5 28.5t11.5 28.5t28.5 11.5t28.5 -11.5t11.5 -28.5zM-90 -116q0 -17 -11.5 -28.5t-28.5 -11.5t-28.5 11.5t-11.5 28.5t11.5 28.5t28.5 11.5t28.5 -11.5t11.5 -28.5zM42 -116q0 -17 -11.5 -28.5t-28.5 -11.5 t-28.5 11.5t-11.5 28.5t11.5 28.5t28.5 11.5t28.5 -11.5t11.5 -28.5zM168 -237q0 -17 -11.5 -28.5t-28.5 -11.5t-28.5 11.5t-11.5 28.5t11.5 28.5t28.5 11.5t28.5 -11.5t11.5 -28.5zM168 -116q0 -17 -11.5 -28.5t-28.5 -11.5t-28.5 11.5t-11.5 28.5t11.5 28.5t28.5 11.5 t28.5 -11.5t11.5 -28.5z" />
<glyph unicode="&#x5b2;" d="M34 -122q0 -8 -2.5 -11t-11.5 -3h-160q-9 0 -11.5 3t-2.5 11v22q0 9 2.5 11.5t11.5 2.5h160q8 0 11 -2.5t3 -11.5v-22zM154 -237q0 -17 -11.5 -28.5t-28.5 -11.5t-28.5 11.5t-11.5 28.5t11.5 28.5t28.5 11.5t28.5 -11.5t11.5 -28.5zM154 -116q0 -17 -11.5 -28.5 t-28.5 -11.5t-28.5 11.5t-11.5 28.5t11.5 28.5t28.5 11.5t28.5 -11.5t11.5 -28.5z" />
<glyph unicode="&#x5b3;" d="M34 -122q0 -8 -2.5 -11t-11.5 -3h-58l5 -39v-81q0 -8 -2.5 -10t-10.5 -2h-28q-8 0 -10.5 2t-2.5 10v81l5 39h-58q-9 0 -11.5 3t-2.5 11v22q0 9 2.5 11.5t11.5 2.5h160q8 0 11 -2.5t3 -11.5v-22zM154 -237q0 -17 -11.5 -28.5t-28.5 -11.5t-28.5 11.5t-11.5 28.5t11.5 28.5 t28.5 11.5t28.5 -11.5t11.5 -28.5zM154 -116q0 -17 -11.5 -28.5t-28.5 -11.5t-28.5 11.5t-11.5 28.5t11.5 28.5t28.5 11.5t28.5 -11.5t11.5 -28.5z" />
<glyph unicode="&#x5b4;" d="M40 -116q0 -17 -11.5 -28.5t-28.5 -11.5t-28.5 11.5t-11.5 28.5t11.5 28.5t28.5 11.5t28.5 -11.5t11.5 -28.5z" />
<glyph unicode="&#x5b5;" d="M-30 -116q0 -17 -11.5 -28.5t-28.5 -11.5t-28.5 11.5t-11.5 28.5t11.5 28.5t28.5 11.5t28.5 -11.5t11.5 -28.5zM110 -116q0 -17 -11.5 -28.5t-28.5 -11.5t-28.5 11.5t-11.5 28.5t11.5 28.5t28.5 11.5t28.5 -11.5t11.5 -28.5z" />
<glyph unicode="&#x5b6;" d="M40 -237q0 -17 -11.5 -28.5t-28.5 -11.5t-28.5 11.5t-11.5 28.5t11.5 28.5t28.5 11.5t28.5 -11.5t11.5 -28.5zM-28 -116q0 -17 -11.5 -28.5t-28.5 -11.5t-28.5 11.5t-11.5 28.5t11.5 28.5t28.5 11.5t28.5 -11.5t11.5 -28.5zM108 -116q0 -17 -11.5 -28.5t-28.5 -11.5 t-28.5 11.5t-11.5 28.5t11.5 28.5t28.5 11.5t28.5 -11.5t11.5 -28.5z" />
<glyph unicode="&#x5b7;" d="M94 -122q0 -8 -2.5 -11t-11.5 -3h-160q-9 0 -11.5 3t-2.5 11v22q0 9 2.5 11.5t11.5 2.5h160q8 0 11 -2.5t3 -11.5v-22z" />
<glyph unicode="&#x5b8;" d="M94 -122q0 -8 -2.5 -11t-11.5 -3h-58l5 -39v-81q0 -8 -2.5 -10t-10.5 -2h-28q-8 0 -10.5 2t-2.5 10v81l5 39h-58q-9 0 -11.5 3t-2.5 11v22q0 9 2.5 11.5t11.5 2.5h160q8 0 11 -2.5t3 -11.5v-22z" />
<glyph unicode="&#x5b9;" d="M40 582q0 -17 -11.5 -28.5t-28.5 -11.5t-28.5 11.5t-11.5 28.5t11.5 28.5t28.5 11.5t28.5 -11.5t11.5 -28.5z" />
<glyph unicode="&#x5bb;" d="M-64 -113q0 -17 -11.5 -28.5t-28.5 -11.5t-28.5 11.5t-11.5 28.5t11.5 28.5t28.5 11.5t28.5 -11.5t11.5 -28.5zM40 -175q0 -17 -11.5 -28.5t-28.5 -11.5t-28.5 11.5t-11.5 28.5t11.5 28.5t28.5 11.5t28.5 -11.5t11.5 -28.5zM144 -237q0 -17 -11.5 -28.5t-28.5 -11.5 t-28.5 11.5t-11.5 28.5t11.5 28.5t28.5 11.5t28.5 -11.5t11.5 -28.5z" />
<glyph unicode="&#x5bc;" d="M40 240q0 -17 -11.5 -28.5t-28.5 -11.5t-28.5 11.5t-11.5 28.5t11.5 28.5t28.5 11.5t28.5 -11.5t11.5 -28.5z" />
<glyph unicode="&#x5be;" horiz-adv-x="371" d="M85 451h289l46 -53l-39 -141h-284l-54 47zM61 317h262l33 121h-261z" />
<glyph unicode="&#x5bf;" horiz-adv-x="527" d="M94 309h416l46 -53l-40 -143h-411l-54 47zM69 173h389l35 123h-389z" />
<glyph unicode="&#x5c1;" d="M40 582q0 -17 -11.5 -28.5t-28.5 -11.5t-28.5 11.5t-11.5 28.5t11.5 28.5t28.5 11.5t28.5 -11.5t11.5 -28.5z" />
<glyph unicode="&#x5c2;" d="M40 582q0 -17 -11.5 -28.5t-28.5 -11.5t-28.5 11.5t-11.5 28.5t11.5 28.5t28.5 11.5t28.5 -11.5t11.5 -28.5z" />
<glyph unicode="&#x5d0;" horiz-adv-x="575" d="M271 172q-20 13 -24 32.5t5.5 39t31 35.5t54.5 24t76 4t95 -26l36 126q-1 1 -16.5 6.5t-40 11t-55.5 9t-62.5 0.5t-62 -15t-53.5 -36l24 69h-149l-120 -452h154l21 74q42 -42 92 -56.5t95 -16.5q52 -2 103 9l44 144q-44 -11 -88 -15q-38 -3 -81 2.5t-79 30.5zM-7 -13 l127 478h176l22 -29q20 7 40.5 9.5t40.5 2.5q39 -1 69 -6t50 -11q24 -7 41 -16l48 -56l-41 -142q-40 17 -72.5 24t-57.5 7q-30 0 -54 -7.5t-41 -19t-26 -25.5t-9 -28q23 -10 48 -13.5t49 -3.5q21 0 45 3.5t44 8.5q24 5 47 12l45 -55l-51 -169q-12 -3 -27 -6q-28 -5 -69 -5 q-22 0 -47 3t-51 10.5t-51.5 20t-47.5 32.5q-5 -16 -9 -34t-9 -32h-175z" />
<glyph unicode="&#x5d1;" horiz-adv-x="530" d="M94 311q63 14 111 14q20 0 39 -3.5t33 -12.5t21 -23.5t3 -37.5q-5 -32 -30.5 -55t-58.5 -38t-67 -22.5t-55 -7.5h-35q-6 0 -10 1l-32 -126h432l34 125h-130q20 7 41 20t38.5 32t30 42.5t16.5 52.5q3 18 1.5 39t-9 41.5t-22 39t-38.5 32.5q-36 20 -84 23.5t-92 -1.5 q-51 -5 -104 -20zM116 437q25 7 54 12q24 5 55.5 9t63.5 4q34 0 66.5 -5.5t58.5 -20.5q9 -6 20.5 -16t22.5 -21t21 -22l15 -18q31 -35 39 -70.5t3 -67.5q-4 -26 -14.5 -48.5t-25.5 -40.5l47 -47l-39 -145h-453l-54 47l39 153q7 -1 16 -1q7 -1 17 -1h22q19 0 50 7t61.5 21.5 t55 35.5t31.5 49q0 6 -1 8l-1 2q-8 2 -16.5 3t-17.5 1q-20 0 -41.5 -3t-39.5 -6q-21 -4 -42 -9l-31 27q-11 10 -16 14q-6 5 -8 5z" />
<glyph unicode="&#x5d2;" horiz-adv-x="522" d="M294 465h201l46 -53l-24 -96q-5 -18 -9 -36l-9 -33q-4 -15 -7 -25t-4 -13q-16 3 -34 6q-15 2 -34 4t-37 2q-24 0 -49 -3.5t-45 -13.5t-32.5 -26.5t-11.5 -41.5q8 -5 19.5 -7t24.5 -3l25 -2h19q28 0 51.5 4.5t41.5 9.5q20 5 38 13l45 -56l-39 -155q-18 -4 -38 -8 q-17 -3 -40.5 -5t-50.5 -2q-28 0 -58 3.5t-60 12.5t-59 25t-53 40l-38 34l-19 19q-45 48 -45 116q0 54 27 102q32 54 96.5 84.5t141.5 31.5zM284 380q-78 3 -141.5 -26t-94.5 -83q-29 -52 -25.5 -108t40.5 -95q22 -24 49 -40t56 -25.5t58 -13.5t56 -4q63 -1 130 14l32 129 q-15 -6 -38 -10q-20 -4 -49 -5.5t-69 1.5q-29 2 -50.5 11.5t-34.5 24t-16.5 33t4.5 38.5q7 17 21 28.5t32.5 18.5t39.5 10t42 3q49 1 107 -10q1 2 8 30l15 62l22 89h-174z" />
<glyph unicode="&#x5d3;" horiz-adv-x="460" d="M45 444q25 6 53 10q24 4 54.5 7t63.5 3q59 0 114 -15.5t89 -60.5l25 -31q18 -19 27 -46t9 -54q0 -33 -9 -59t-24 -46t-36 -34.5t-45 -25.5q36 -28 30 -78q-2 -15 -7.5 -28t-12.5 -24q-8 -12 -17 -22h-148l-56 47q11 17 17.5 33t8.5 29h-22h-9l-55 47l46 124q23 -4 42 -1 q17 2 31.5 10t19.5 28q-8 4 -17 5t-19 1q-23 0 -47 -3t-45 -7q-25 -4 -48 -10l-31 26q-11 9 -16 14l-7 6zM23 307q69 14 121 15q22 0 42.5 -2.5t35.5 -10t22 -21t3 -34.5q-5 -21 -21.5 -31t-33.5 -13q-21 -4 -45 -1l-33 -99h18q8 -1 18 -2t19 -5q13 -6 19 -18.5t6.5 -27.5 t-4 -30.5t-11.5 -26.5h126q8 8 14 19q5 9 10 20.5t7 25.5q2 24 -4.5 39.5t-15.5 23.5q-11 10 -25 15q28 11 54 27.5t44 40.5t26.5 56t1.5 75q-5 31 -23 52t-44.5 33t-58 17t-64.5 6q-77 2 -170 -17z" />
<glyph unicode="&#x5d4;" horiz-adv-x="563" d="M57 296q92 25 160 27q29 1 55.5 -3.5t45.5 -16.5t27 -34t1 -56q-11 -51 -21 -89.5t-18 -66.5q-9 -33 -17 -57h170q7 29 15 59l15 57l14 61q16 71 7 120t-34.5 80t-64 47t-80.5 22q-99 13 -237 -17zM224 212l45 -74l-25 -96l-26 -96h-139l-72 54l55 212h162zM84 441 q25 6 55 11q25 4 58 7.5t70 3.5q32 0 64.5 -4.5t62.5 -14t56.5 -25.5t46.5 -39l26 -30q21 -24 36 -58.5t15 -81.5q0 -19 -2.5 -40.5t-7.5 -44.5l-15 -63l-15 -59l-16 -63l-183 6l-56 47q7 27 17 61l18 70l22 91q2 8 3 15.5t1 11.5q0 9 -5 14q-13 4 -28 5.5t-30 1.5 q-29 0 -62 -5t-60 -11q-33 -7 -63 -16l-31 26q-11 9 -16 14q-6 4 -8 5zM159 10l11 42l14 52l14 52q6 26 12 46h-140l-25 -96l-25 -96h139z" />
<glyph unicode="&#x5d5;" horiz-adv-x="310" d="M355 398l-117 -458h-194l-54 47l124 464h195zM292 438h-168l-117 -438h173z" />
<glyph unicode="&#x5d6;" horiz-adv-x="518" d="M297 373l21 79h-172l-43 -165q48 3 88 -2q35 -5 66 -19.5t41 -46.5q7 -23 -3 -43t-30 -34t-47.5 -22t-56.5 -7q-32 1 -55.5 3.5t-38.5 4.5l-30 5l-33 -122q100 -22 188 -20q37 1 75 7t72.5 20t62 38t43.5 60q21 47 20.5 91.5t-19.5 80.5t-56.5 60.5t-89.5 31.5h-3z M382 412l-14 -49q43 -17 77 -45q29 -24 53.5 -62.5t27.5 -94.5q2 -35 -4.5 -58t-17.5 -48q-18 -40 -48 -65.5t-67.5 -40t-79 -20t-81.5 -5.5q-35 0 -69 3t-60 8q-31 5 -58 12q-21 17 -31 27l-15 15q-6 5 -8 6l41 147l36 -7q17 -3 41.5 -6t55.5 -3q25 -1 49.5 5.5t42.5 18.5 t27.5 28.5t4.5 34.5q-24 9 -51 12t-47 3q-8 0 -16 -0.5t-15 -0.5q-8 -1 -16 -1l-54 47l50 192h200z" />
<glyph unicode="&#x5d7;" horiz-adv-x="593" d="M285 452h-158l-119 -452h163l75 288q17 14 44 20.5t51 1.5t38 -23t5 -54l-57 -233h159l50 200q15 60 10 104t-23.5 73.5t-48 45t-64 18t-71 -6.5t-68.5 -28zM318 442q37 12 76 12q42 0 77 -17t67 -50q21 -22 34.5 -41t21 -37.5t10.5 -37t3 -39.5q0 -19 -2.5 -40t-8.5 -44 l-26 -104l-26 -104h-180l-54 47l36 149l19 78q6 26 7 31t1 7q-20 0 -37.5 -5t-29.5 -14l-38 -147l-39 -146h-184l-54 47l126 478h186z" />
<glyph unicode="&#x5d8;" horiz-adv-x="562" d="M286 569q-58 -36 -108 -84q-21 -20 -43 -44.5t-41 -53t-34.5 -60t-24.5 -66.5q-17 -66 -5 -117t43.5 -85.5t77.5 -52.5t98 -19q59 -1 104.5 12.5t78 36.5t52.5 52.5t28 61.5q10 41 4.5 79.5t-24 70.5t-47.5 55.5t-65 34.5l-79 -88q28 -14 46 -32q15 -16 21 -40t-11 -56 q-9 -15 -26.5 -25t-38 -13.5t-41 -0.5t-34.5 12q-26 17 -31.5 41.5t1 51t20 51.5t25.5 43q28 42 62 79.5t66.5 68.5t58.5 53.5t37 33.5h-170zM487 582l43 -53l-8 -7l-12 -12l-12 -12q-6 -6 -11 -9l-44 -39q-25 -22 -52 -51q34 -11 59 -31.5t47 -42.5l23 -23 q19 -20 32.5 -44.5t20.5 -51.5t6.5 -55t-7.5 -54q-9 -33 -30 -64t-54.5 -55t-80.5 -38t-108 -13q-52 1 -103 20.5t-103 69.5q-35 31 -58 73t-23 99q0 39 10 75q20 72 62.5 130t86.5 100q51 49 110 88h206zM296 287q-16 -16 -28 -37q-11 -18 -19 -43t-6 -57q13 -3 28.5 -3 t30 4t26 11.5t17.5 19.5q12 24 10.5 41t-10.5 29.5t-23 20.5t-26 14z" />
<glyph unicode="&#x5d9;" horiz-adv-x="292" d="M281 451l46 -53l-72 -280h-191l-54 47l76 286h195zM96 438l-69 -260h170l67 260h-168z" />
<glyph unicode="&#x5da;" horiz-adv-x="425" d="M289 -125l25 92l26 95l29 110q31 115 -2 184.5t-149 83.5q-38 5 -68.5 1.5t-51.5 -8.5q-26 -6 -44 -16l-26 -97q27 8 53 12q23 3 49.5 1t50.5 -13q22 -11 30 -29.5t7.5 -39.5t-5.5 -41l-9 -36l-30 -121l-25 -95l-22 -83h162zM9 300l33 126q17 8 37 15q17 5 41.5 10 t55.5 5q20 0 43 -3q28 -4 51 -10t44 -17.5t41.5 -30t43.5 -45.5q23 -23 34.5 -55t11.5 -70q0 -25 -4 -51t-12 -55l-30 -111l-26 -97l-26 -96h-183l-54 47l23 91l26 100q15 57 34 123q5 19 9 39t4 37q0 4 -0.5 8t-1.5 9q-11 2 -20.5 3.5t-20.5 1.5q-17 0 -34.5 -3t-31.5 -7 q-17 -4 -33 -9z" />
<glyph unicode="&#x5db;" horiz-adv-x="500" d="M79 313q65 12 115 8q21 -2 41 -7.5t34.5 -17t22 -29.5t4.5 -45q-5 -39 -21 -62t-38.5 -34t-49.5 -12.5t-53 2.5q-28 4 -52 10l-42 11l-33 -114q111 -40 192.5 -42.5t137 26t85.5 84t38 131.5q5 55 -7 93.5t-35 63.5t-55 38.5t-66 19.5q-80 13 -185 -7zM101 442q17 3 37 6 q17 2 40.5 4.5t50.5 2.5q28 0 58.5 -3.5t59.5 -13.5t55.5 -26.5t47.5 -41.5q45 -51 60 -98t10 -101q-6 -57 -24 -103t-49.5 -79t-76.5 -50.5t-105 -17.5q-45 0 -99 11t-121 35l-28 27q-10 10 -15.5 14l-7.5 5.5t-3 1.5l40 140q2 -1 5 -2t5 -2q13 -4 30 -8.5t34 -8t34 -6 t32 -2.5q19 0 37 5t33 16t26 30t16 46q1 8 0 14t-3 10t-4 7q-14 4 -32.5 6t-32.5 2q-17 0 -33.5 -1.5t-30.5 -3.5q-17 -2 -32 -4l-31 26q-11 9 -16 14l-7 6z" />
<glyph unicode="&#x5dc;" horiz-adv-x="322" d="M3 -5l38 148l39 155l48 184q13 49 37.5 95t59 83t79 62t97.5 32q27 3 50 3q39 0 68 -8t49 -17q23 -11 38 -24l47 -51l-32 -112q-11 3 -24 7q-12 2 -28.5 4.5t-36.5 1.5q-68 -3 -109 -51.5t-63 -127.5l-16 -59l-18 -68l-18 -72l-19 -72l-43 -168h-184zM188 0l42 165l18 71 l19 71l17 67l16 58q23 84 66 133.5t116 52.5q21 1 36 -0.5t26 -3.5q11 -3 20 -5l27 95q-18 14 -44 24q-23 8 -58.5 13.5t-86.5 -0.5q-50 -6 -92.5 -30t-76 -60t-57 -80.5t-35.5 -92.5l-47 -182l-39 -152l-37 -144h170z" />
<glyph unicode="&#x5dd;" horiz-adv-x="611" d="M344 133q-24 -5 -47 0t-40 18.5t-26 34t-4 46.5q7 41 35 62.5t60.5 23.5t60.5 -16t34 -55q3 -17 0.5 -35t-11 -34t-24 -28.5t-38.5 -16.5zM569 269q-7 46 -25.5 78.5t-43.5 52.5t-54.5 29.5t-57.5 10t-53 -6.5t-41 -19q-5 -3 -9.5 -7t-8.5 -7q-4 -4 -9 -7l12 45h-153 l-44 -177l-20 -79l-21 -80l-21 -78l-21 -71l174 -1q4 13 8 30l9 33l11 41q45 -33 92 -44.5t90.5 -5t81 28.5t63.5 56.5t37.5 80t3.5 97.5zM-19 -60l21 72l22 81l22 85l22 83l47 190h182l8 -16q16 8 36 12.5t42 4.5q21 0 43.5 -4t45.5 -15.5t47.5 -32t50.5 -52.5 q21 -21 37 -53.5t22 -74.5q3 -21 3 -41q0 -51 -18.5 -94.5t-50.5 -74.5t-74 -48.5t-88 -17.5q-35 0 -71.5 11t-71.5 34q-5 -20 -10 -37l-9 -31q-4 -16 -8 -29l-196 1zM341 146q22 4 35.5 16t20.5 27t8 32.5t-3 32.5q-6 2 -12 3t-12 1q-29 0 -56.5 -20.5t-34.5 -57.5 q-3 -14 1 -30q26 -10 53 -4z" />
<glyph unicode="&#x5de;" horiz-adv-x="620" d="M437 438q-9 -35 -20 -74l-21 -75l-24 -86l-68 235h-187l-43 -161l-18 -71l-20 -72l-18 -71q-9 -34 -16 -63h174l21 80l21 85l24 102l70 -267h181l111 438h-167zM621 451l46 -53l-116 -458h-197l-52 47l-28 105l-16 -60l-12 -48q-6 -24 -12 -44h-195l-54 47l16 64l19 73 l20 78l21 75l46 174h207l48 -53l25 -90l15 55q8 26 13 46q6 23 12 42h194z" />
<glyph unicode="&#x5df;" horiz-adv-x="305" d="M302 452l46 -53l-148 -584h-184l-54 47l143 590h197zM116 439l-137 -564h163l143 564h-169z" />
<glyph unicode="&#x5e0;" horiz-adv-x="461" d="M264 438q-11 -40 -21 -80q-9 -34 -18 -72t-17 -67q-12 -46 -31.5 -68t-45 -28t-55 -1t-61.5 13l-32 -125q90 -34 156.5 -34t114 29t78 85t48.5 136q4 14 12 48l17 71q11 42 23 93h-168zM440 450l47 -58l-21 -96l-16 -73l-10 -49q-14 -57 -35.5 -104.5t-52 -81.5t-70 -53 t-89.5 -19q-35 0 -78 9t-94 29l-54 48l39 149q28 -8 54 -13t44 -5q31 0 54.5 18t36.5 71l18 68l19 76l22 85z" />
<glyph unicode="&#x5e1;" horiz-adv-x="566" d="M358 202q-15 -50 -46 -70.5t-65 -19.5q-24 0 -40.5 10t-26 24.5t-13 32t-1.5 32.5q3 17 11.5 37t23.5 37t37.5 27.5t53.5 8.5q24 -2 39 -15t22.5 -31t8.5 -37.5t-4 -35.5zM302 453q-67 1 -116.5 -17t-83 -49.5t-53.5 -72.5t-27 -84q-9 -53 2.5 -99.5t41 -80.5t73.5 -53.5 t100 -19.5q103 0 174.5 49t96.5 146q16 61 7.5 112.5t-37 88.5t-74.5 58t-104 22zM302 465q65 -2 117.5 -28t102.5 -85q25 -29 41.5 -68.5t16.5 -86.5q0 -41 -10 -78q-26 -99 -101 -150.5t-180 -51.5q-54 0 -96.5 17.5t-75.5 46.5q-35 30 -58 59t-36 59t-15.5 62.5t2.5 70.5 q7 45 28.5 88t57.5 75.5t87.5 51.5t118.5 18zM346 208q2 9 2.5 18t-0.5 17q-1 9 -3 17q-29 4 -50 -5t-35.5 -25t-23 -35t-10.5 -35v-1q-3 -16 1 -32q5 -1 10 -1.5t10 -0.5q30 -1 58 17.5t41 65.5z" />
<glyph unicode="&#x5e2;" horiz-adv-x="562" d="M232 63q-29 2 -45 26t-8 59q11 50 39.5 79t54.5 40q24 -20 35.5 -42.5t14.5 -45t-0.5 -42.5t-10.5 -34q-10 -19 -32 -30.5t-48 -9.5zM277 402q-25 17 -59 26t-66 14q-37 5 -77 6l-30 -115q12 0 26 -3q12 -2 28.5 -6t34.5 -9q-11 -8 -25.5 -22.5t-28.5 -34.5t-26 -45.5 t-18 -56.5q-4 -19 -4 -51t13.5 -66t45 -62.5t91.5 -40.5q55 -11 100.5 -3t80 27t57 44.5t32.5 50.5q9 24 15.5 54t4 63.5t-16.5 69t-46 70.5q22 6 40.5 7.5t32.5 0.5q16 -1 28 -5l34 130q-44 7 -90 5q-39 -2 -86 -12t-91 -36zM65 461q38 -2 75 -6q32 -5 68 -13t67 -25 q54 29 106 37.5t91 8.5q18 0 34 -1t28 -3q14 -2 27 -3l46 -53l-40 -151q-7 2 -16 4q-8 2 -17 3t-17 1t-18 -1t-21 -3q26 -35 40 -76t14 -73q0 -30 -6 -57t-15 -49q-9 -23 -28 -46t-47 -42t-64.5 -31t-80.5 -12q-28 0 -61 6q-18 3 -34 9.5t-32 15.5t-32 21l-38 30 q-43 34 -59 79t-16 82q0 15 1 26.5t3 19.5q8 37 22.5 66.5t31.5 51.5q-17 17 -27 25t-15 13q-6 4 -7 6zM239 96q-3 -11 -3 -20q38 0 58 24t18 60q-1 13 -2.5 19.5t-5.5 16.5q-20 -14 -39 -39.5t-26 -60.5z" />
<glyph unicode="&#x5e3;" horiz-adv-x="496" d="M295 451q-27 5 -56.5 4t-57 -5.5t-50.5 -13t-37 -18.5q-40 -29 -57.5 -66.5t-18.5 -79.5q-1 -47 18.5 -77t49.5 -47t65.5 -22t65.5 -1l23 87q-44 -8 -68 11.5t-12 57.5q11 35 36 46.5t54 5.5q28 -6 38 -25.5t10 -45.5t-8 -54l-13 -52l-73 -281h160l79 298 q30 117 -3.5 187.5t-144.5 90.5zM298 464q51 -11 86 -29.5t63 -51.5q20 -24 33.5 -44t22 -38.5t12 -37t3.5 -38.5q0 -50 -15 -105l-41 -152l-40 -153h-181l-54 47l52 201h-1q-18 0 -39 4.5t-42 12.5t-40 18.5t-33 23.5q-42 37 -61 70t-18 80q1 45 19.5 85t61.5 71 q25 17 68 28.5t91 11.5q14 0 27.5 -1t25.5 -3zM283 275q-16 -1 -29 -6q-11 -5 -21.5 -15t-13.5 -27q5 -2 12 -2.5t22 1.5l22 -23q4 16 6.5 32t2.5 30q0 7 -1 10z" />
<glyph unicode="&#x5e4;" horiz-adv-x="571" d="M295 248q-21 9 -50 14.5t-59.5 5t-59.5 -8t-52.5 -24.5t-37.5 -45t-13 -69q2 -63 54.5 -100.5t147.5 -42.5q56 -3 105.5 6t89 33t66 64t37.5 99q10 56 0.5 104t-36.5 84t-70.5 58t-102.5 27q-51 4 -88.5 -0.5t-63.5 -11.5q-30 -8 -51 -20l-29 -108q35 12 73 17q32 5 71 4 t77 -14q24 -9 38.5 -23.5t21.5 -31.5t7.5 -35.5t-3.5 -34.5q-11 -45 -50.5 -70t-100.5 -14q-20 3 -29 11.5t-9.5 18.5t4.5 19t14 14q8 5 22 7t27 1q15 -1 32 -4zM102 -21q-38 25 -57 50.5t-27 45.5q-10 24 -8 46q0 60 25.5 94t64.5 50l-20 17q-7 6 -11 8q-4 3 -6 3l36 136 q19 10 45 19q22 8 54.5 14t74.5 6q10 0 20.5 -0.5t21.5 -1.5q60 -5 105.5 -28.5t76.5 -58.5q25 -29 42.5 -53.5t28.5 -47.5t15.5 -45.5t4.5 -47.5q0 -15 -1.5 -29t-3.5 -28q-11 -61 -39 -102.5t-68.5 -66.5t-92 -34.5t-109.5 -6.5q-59 3 -99.5 21t-72.5 40zM355 205 q1 5 1.5 10.5t0.5 9.5q0 19 -7 36q-23 8 -48 12.5t-50 -0.5q30 -6 59 -17z" />
<glyph unicode="&#x5e5;" horiz-adv-x="320" d="M520 628q-7 -17 -28 -25t-47.5 -9.5t-55.5 2t-51 8.5q11 35 30 54t42 27q16 5 39 6t42 -5t29 -20t0 -38zM387 804q-31 -5 -60.5 -15.5t-56 -28.5t-49 -45.5t-39.5 -66.5q-76 28 -126 61.5t-73 59.5l-59 -65q7 -10 23.5 -28.5t43.5 -42t66 -48t91 -46.5l-51 -193l-45 -173 l-44 -173h172q8 37 19 77l21 79l23 90l64 245q71 -16 132 -15t108.5 18t78 49.5t39.5 80.5q7 38 -2.5 67.5t-30.5 51t-51 35.5t-63.5 21t-67.5 8t-63 -3zM385 817q76 9 129 -2.5t88.5 -32.5t57 -45.5t33.5 -40.5q20 -27 29.5 -57t2.5 -67q-15 -77 -79.5 -116.5t-161.5 -39.5 q-58 0 -120 13l-16 -61l-24 -96l-29 -112l-27 -106l-20 -80q-8 -32 -8 -34h-183l-64 60l41 161l42 164l49 187q-33 18 -64.5 41.5t-59.5 49t-52 51.5t-42 50l76 84q26 -27 74 -62t119 -62q37 75 91.5 110t117.5 43zM460 628q-9 -3 -16 -9l-13 -11q26 0 47.5 4.5t28.5 18.5 q-12 2 -21 2t-26 -5z" />
<glyph unicode="&#x5e6;" horiz-adv-x="505" d="M127 476q59 10 105 6q19 -2 37 -6.5t31.5 -13.5t20.5 -24t4 -36q-4 -27 -20 -42t-37 -21.5t-43.5 -6t-38.5 5.5l-26 -82q39 -4 67 -16q12 -5 22.5 -13t17.5 -19.5t9 -26t-3 -32.5q-11 -39 -38.5 -52.5t-61.5 -12t-69.5 13t-62.5 22.5l-31 -91q103 -46 176.5 -52.5t123 11 t77 52t38.5 71.5q17 61 0 103.5t-53 61.5q49 6 79 37t35 79t-6.5 81t-34 54t-52.5 32t-63 15q-77 10 -177 -9zM143 576q19 3 41 7q19 3 42 5t49 3q58 1 112.5 -15t90.5 -59q38 -45 54.5 -86.5t13.5 -89.5q-6 -47 -29 -78.5t-69 -41.5l9 -9q17 -17 26.5 -40.5t9.5 -55.5 q0 -14 -1.5 -28.5t-6.5 -29.5q-8 -26 -24 -51.5t-41.5 -46t-61 -33.5t-81.5 -13q-45 0 -101.5 13.5t-127.5 45.5l-54 48l39 116l35 -13q19 -7 38.5 -12.5t38.5 -9.5t36 -4q25 0 47.5 12t30.5 41q3 13 3 21v8q-11 4 -22.5 7.5t-21.5 5.5q-11 3 -22 4l-30 27q-10 10 -16 14 q-6 5 -8 6l35 111q30 -9 49 -9q29 0 55 12.5t31 44.5q0 9 -1 14q-27 6 -56 6q-16 0 -32 -1.5t-30 -3.5q-16 -3 -31 -5l-31 26q-11 9 -16 14q-6 5 -8 6z" />
<glyph unicode="&#x5e7;" horiz-adv-x="523" d="M63 294q39 12 78 17q33 5 70.5 4t69.5 -13q22 -9 36.5 -27t20 -39t2.5 -43t-14.5 -39.5t-32 -29t-49.5 -10.5l-30 -109q60 -6 108 8t82 42t55.5 65.5t29 77.5t1.5 79.5t-25 70.5q-20 30 -46 49.5t-55.5 30.5t-61 15t-61.5 3q-70 -2 -146 -25zM73 202h158l37 -60l-4 -14 q30 5 46.5 28.5t16.5 51.5q0 18 -7 37q-16 5 -33.5 7.5t-35.5 2.5q-26 0 -52 -4t-49 -9q-26 -6 -51 -13l-31 26q-10 9 -15 14q-6 4 -8 5l38 153q21 8 47 15q23 6 54 11t69 6q29 0 60.5 -6t62 -18t58.5 -31.5t51 -46.5l17 -21q6 -8 10 -15l6 -10q2 -4 5 -8q15 -25 23.5 -55 t8.5 -60q0 -44 -15.5 -87.5t-46 -78.5t-77.5 -56.5t-110 -21.5h-18q-10 0 -24 2l-39 39l-40 -150h-134l-63 40zM125 -115l40 153l40 154q-35 0 -61.5 0.5t-62.5 0.5l-40 -154l-40 -154h124z" />
<glyph unicode="&#x5e8;" horiz-adv-x="472" d="M31 301q78 24 134 26q24 1 45.5 -3.5t36 -17t20 -34t-3.5 -55.5l-56 -217h163l46 177q17 71 11 119.5t-27.5 79.5t-54.5 46.5t-70 21.5q-87 13 -210 -17zM53 438q24 6 51 11q23 5 53 8.5t62 3.5q55 0 110 -18.5t91 -62.5q19 -24 32 -43t21.5 -37t12 -37t3.5 -42 q0 -44 -13 -96l-48 -185h-184l-54 47l60 234q4 15 5 23.5t-1 19.5q-15 3 -33 3q-26 0 -53 -5t-50 -11q-26 -7 -52 -15l-31 26q-11 9 -16 14q-6 4 -8 5z" />
<glyph unicode="&#x5e9;" horiz-adv-x="562" d="M232 183q18 -9 46 -16t59 -9t63 1.5t59 16.5t46 37t25 62q5 31 -3 60.5t-30 53.5t-59.5 40t-91.5 20q-56 3 -110 -6.5t-97.5 -34.5t-73.5 -66t-37 -100q-7 -53 4.5 -97.5t39.5 -78t72 -54t104 -24.5q51 -4 88 -2t62 6q29 4 49 11l29 104q-40 -8 -80 -11q-35 -2 -75.5 0 t-76.5 16q-25 9 -38 23t-19 29.5t-5.5 31t2.5 27.5q4 18 13.5 35t25.5 30.5t38 21.5t51 8t44.5 -8t20 -18.5t0 -21.5t-15.5 -18t-28.5 -8.5t-34.5 -0.5q-20 1 -42 4zM15 243q7 50 27 86t48 61t62 40.5t68.5 23t67.5 9t59 -0.5q24 -2 49 -6.5t51 -16t51.5 -30.5t49.5 -50 q23 -29 32.5 -67t5.5 -71q-8 -45 -30.5 -70.5t-56.5 -38.5l41 -41l-34 -125q-16 -6 -38 -10q-19 -4 -46 -7t-62 -3h-30q-16 0 -33 2q-55 5 -101.5 26.5t-99.5 64.5q-51 42 -70.5 99.5t-10.5 124.5z" />
<glyph unicode="&#x5ea;" horiz-adv-x="634" d="M327 452h-158l-70 -271q-8 -30 -16.5 -46t-18 -22.5t-21.5 -5.5t-27 5l-25 -103q56 -21 96 -27.5t68.5 2t47 33.5t30.5 68l56 203q17 14 44.5 20.5t52 1.5t39.5 -23t6 -54l-57 -233h162l46 191q14 59 9 103.5t-24.5 74.5t-49 47t-64 21.5t-71 -4t-68.5 -27.5zM361 442 q17 5 34.5 6.5t34.5 2.5q24 1 44.5 -3t41 -14t42 -28t46.5 -46q20 -23 34 -59t14 -81q0 -40 -10 -81l-24 -100l-24 -99h-183l-54 47l61 249q2 8 2 10v6q-21 0 -40 -5t-31 -14l-28 -101l-28 -100q-16 -59 -44.5 -86t-77.5 -27q-52 0 -142 34l-28 27l-15 14q-5 4 -7.5 5.5 t-3.5 1.5l32 128q30 -9 37 -9q13 0 22.5 13t19.5 51l18 70l18 70l18 71q10 36 18 70h187z" />
<glyph unicode="&#x5f3;" horiz-adv-x="249" d="M253 515l46 -53l-92 -280h-116l-53 47l26 286h189zM76 502l-24 -260h97l86 260h-159z" />
<glyph unicode="&#x5f4;" horiz-adv-x="443" d="M441 515l46 -53l-92 -280h-116l-50 49l-16 -49h-116l-53 47l26 286h371zM264 502l-24 -260h97l86 260h-159zM82 502l-24 -260h97l86 260h-159z" />
<glyph unicode="&#x2000;" horiz-adv-x="410" />
<glyph unicode="&#x2001;" horiz-adv-x="820" />
<glyph unicode="&#x2002;" horiz-adv-x="410" />
<glyph unicode="&#x2003;" horiz-adv-x="820" />
<glyph unicode="&#x2004;" horiz-adv-x="273" />
<glyph unicode="&#x2005;" horiz-adv-x="205" />
<glyph unicode="&#x2006;" horiz-adv-x="136" />
<glyph unicode="&#x2007;" horiz-adv-x="136" />
<glyph unicode="&#x2008;" horiz-adv-x="102" />
<glyph unicode="&#x2009;" horiz-adv-x="164" />
<glyph unicode="&#x200a;" horiz-adv-x="45" />
<glyph unicode="&#x2010;" horiz-adv-x="371" d="M85 451h289l46 -53l-39 -141h-284l-54 47zM61 317h262l33 121h-261z" />
<glyph unicode="&#x2011;" horiz-adv-x="392" d="M113 343h282l46 -53l-42 -143h-275l-54 47zM88 207h253l36 123h-254z" />
<glyph unicode="&#x2013;" horiz-adv-x="371" d="M85 451h289l46 -53l-39 -141h-284l-54 47zM61 317h262l33 121h-261z" />
<glyph unicode="&#x2014;" horiz-adv-x="527" d="M94 309h416l46 -53l-40 -143h-411l-54 47zM69 173h389l35 123h-389z" />
<glyph unicode="&#x2018;" horiz-adv-x="249" d="M253 515l46 -53l-92 -280h-116l-53 47l26 286h189zM76 502l-24 -260h97l86 260h-159z" />
<glyph unicode="&#x2019;" horiz-adv-x="249" d="M253 515l46 -53l-92 -280h-116l-53 47l26 286h189zM76 502l-24 -260h97l86 260h-159z" />
<glyph unicode="&#x201a;" horiz-adv-x="218" d="M168 304l-13 -26q-7 -14 -17.5 -23.5t-25 -14.5t-35.5 1q-17 4 -24 29.5t-7 56t5.5 58t13.5 37.5q18 23 48 27.5t57 -6.5q20 -8 24.5 -27t0 -40.5t-13 -41.5t-13.5 -30z" />
<glyph unicode="&#x201c;" horiz-adv-x="443" d="M441 515l46 -53l-92 -280h-116l-50 49l-16 -49h-116l-53 47l26 286h371zM264 502l-24 -260h97l86 260h-159zM82 502l-24 -260h97l86 260h-159z" />
<glyph unicode="&#x201d;" horiz-adv-x="443" d="M441 515l46 -53l-92 -280h-116l-50 49l-16 -49h-116l-53 47l26 286h371zM264 502l-24 -260h97l86 260h-159zM82 502l-24 -260h97l86 260h-159z" />
<glyph unicode="&#x201e;" horiz-adv-x="336" d="M219 185l39 236l123 -21l-79 -225zM51 185l39 236l123 -21l-79 -225z" />
<glyph unicode="&#x2026;" horiz-adv-x="535" d="M465 31q0 -44 -44 -44t-44 44v28q0 44 44 44t44 -44v-28zM287 31q0 -46 -44 -46t-44 46v28q0 45 44 45t44 -45v-28zM108 31q0 -44 -44 -44t-44 44v28q0 44 44 44t44 -44v-28z" />
<glyph unicode="&#x202f;" horiz-adv-x="164" />
<glyph unicode="&#x2039;" horiz-adv-x="342" d="M267 90q0 -14 -15 -14q-9 0 -17 8l-162 143q-2 1 -4 4q-3 4 -3 11v17q0 7 3 12q2 3 4 4l162 143q4 3 8 5.5t9 2.5q15 0 15 -15q0 -9 -5 -16l-124 -144l124 -145q5 -6 5 -16z" />
<glyph unicode="&#x203a;" horiz-adv-x="342" d="M276 242q0 -5 -4 -11q-2 -3 -3 -4l-162 -143q-8 -8 -17 -8q-15 0 -15 14q0 10 5 16l124 145l-124 144q-5 7 -5 16q0 15 15 15q5 0 9 -2.5t8 -5.5l162 -143q1 -1 3 -4q4 -6 4 -12v-17z" />
<glyph unicode="&#x205f;" horiz-adv-x="205" />
<glyph unicode="&#x20ac;" horiz-adv-x="473" d="M432 432q0 -2 -1 -4l-2 -4l-21 -39q-4 -6 -6 -6t-10.5 7.5t-23 16.5t-33.5 16.5t-41 7.5q-57 0 -85 -31t-37 -85h166q11 0 13 -4t2 -13v-16q0 -11 -17 -11h-168q-1 -7 -1 -13v-14v-14q0 -6 1 -13h172q11 0 13 -4t2 -13v-16q0 -11 -17 -11h-166q7 -48 32 -82t78 -34 q24 0 45.5 6.5t38 14t27 14t12.5 6.5t6 -6l17 -42l2 -4q1 -2 1 -4q0 -4 -14.5 -12.5t-37 -17.5t-50.5 -15.5t-56 -6.5q-78 0 -125.5 49t-58.5 134h-48q-8 0 -10 2.5t-2 8.5v16q0 9 2 13t13 4h41v12q0 11 0.5 21.5t1.5 20.5h-48q-8 0 -10 2.5t-2 8.5v16q0 9 2 13t13 4h51 q17 87 68.5 135t126.5 48q25 0 50.5 -7.5t46.5 -18t34 -20.5t13 -16z" />
<glyph unicode="&#x2122;" horiz-adv-x="1000" d="M239 318v339h-129v59h325v-59h-130v-339h-66zM479 318v398h98l101 -318l97 318h96v-398h-61v334l-102 -334h-61l-106 339v-339h-62z" />
<glyph unicode="&#xfb01;" horiz-adv-x="570" d="M552 23q0 -10 -7 -16.5t-16 -6.5h-178q-10 0 -16.5 6t-6.5 16q0 9 7 16t16 7h50v354h-220v-354h51q9 0 16 -6.5t7 -15.5q0 -10 -7.5 -16.5t-15.5 -6.5h-179q-9 0 -16 6t-7 16q0 9 7.5 16t15.5 7h51v354h-50q-9 0 -16 6t-7 16q0 9 7.5 16t15.5 7h50q0 30 1 59t14 57 q12 27 31.5 44.5t42.5 27.5t50 14t54 4q39 0 75.5 -5.5t58.5 -13.5q5 -2 10.5 -7.5t6.5 -14.5v-54q0 -6 -5 -10t-11 -4h-12q-8 0 -10.5 6t-3.5 10q-6 29 -35 40.5t-67 11.5q-44 0 -69 -12t-37 -34t-14.5 -52.5t-2.5 -66.5h274q9 0 16 -6.5t7 -15.5v-377h51q9 0 16 -6.5 t7 -15.5z" />
<glyph unicode="&#xfb02;" horiz-adv-x="570" d="M545 23q0 -10 -7 -16.5t-16 -6.5h-177q-10 0 -16.5 6t-6.5 16q0 9 7 16t16 7h50v560h-91q-44 0 -69 -10.5t-37 -30.5t-14.5 -50.5t-2.5 -69.5h100q10 0 16.5 -6.5t6.5 -15.5q0 -10 -7 -16.5t-16 -6.5h-100v-354h51q9 0 16 -6.5t7 -15.5q0 -10 -7.5 -16.5t-15.5 -6.5h-179 q-9 0 -16 6t-7 16q0 9 7.5 16t15.5 7h51v354h-50q-9 0 -16 6t-7 16q0 9 7.5 16t15.5 7h50q0 30 1 59t14 57q12 27 31.5 44.5t42.5 27.5t50 14t54 4h152q10 0 16.5 -6.5t6.5 -15.5v-583h50q10 0 16.5 -6.5t6.5 -15.5z" />
<glyph unicode="&#xfb2a;" d="M40 -116q0 -17 -11.5 -28.5t-28.5 -11.5t-28.5 11.5t-11.5 28.5t11.5 28.5t28.5 11.5t28.5 -11.5t11.5 -28.5z" />
<glyph unicode="&#xfb2b;" d="M40 -116q0 -17 -11.5 -28.5t-28.5 -11.5t-28.5 11.5t-11.5 28.5t11.5 28.5t28.5 11.5t28.5 -11.5t11.5 -28.5z" />
<glyph unicode="&#xfb2c;" d="M40 -116q0 -17 -11.5 -28.5t-28.5 -11.5t-28.5 11.5t-11.5 28.5t11.5 28.5t28.5 11.5t28.5 -11.5t11.5 -28.5z" />
<glyph unicode="&#xfb2d;" d="M40 -116q0 -17 -11.5 -28.5t-28.5 -11.5t-28.5 11.5t-11.5 28.5t11.5 28.5t28.5 11.5t28.5 -11.5t11.5 -28.5z" />
<glyph unicode="&#xfb31;" d="M40 -116q0 -17 -11.5 -28.5t-28.5 -11.5t-28.5 11.5t-11.5 28.5t11.5 28.5t28.5 11.5t28.5 -11.5t11.5 -28.5z" />
<glyph unicode="&#xfb32;" d="M40 -116q0 -17 -11.5 -28.5t-28.5 -11.5t-28.5 11.5t-11.5 28.5t11.5 28.5t28.5 11.5t28.5 -11.5t11.5 -28.5z" />
<glyph unicode="&#xfb33;" d="M40 -116q0 -17 -11.5 -28.5t-28.5 -11.5t-28.5 11.5t-11.5 28.5t11.5 28.5t28.5 11.5t28.5 -11.5t11.5 -28.5z" />
<glyph unicode="&#xfb34;" d="M40 -116q0 -17 -11.5 -28.5t-28.5 -11.5t-28.5 11.5t-11.5 28.5t11.5 28.5t28.5 11.5t28.5 -11.5t11.5 -28.5z" />
<glyph unicode="&#xfb35;" d="M40 -116q0 -17 -11.5 -28.5t-28.5 -11.5t-28.5 11.5t-11.5 28.5t11.5 28.5t28.5 11.5t28.5 -11.5t11.5 -28.5z" />
<glyph unicode="&#xfb36;" d="M40 -116q0 -17 -11.5 -28.5t-28.5 -11.5t-28.5 11.5t-11.5 28.5t11.5 28.5t28.5 11.5t28.5 -11.5t11.5 -28.5z" />
<glyph unicode="&#xfb38;" d="M40 -116q0 -17 -11.5 -28.5t-28.5 -11.5t-28.5 11.5t-11.5 28.5t11.5 28.5t28.5 11.5t28.5 -11.5t11.5 -28.5z" />
<glyph unicode="&#xfb39;" d="M40 -116q0 -17 -11.5 -28.5t-28.5 -11.5t-28.5 11.5t-11.5 28.5t11.5 28.5t28.5 11.5t28.5 -11.5t11.5 -28.5z" />
<glyph unicode="&#xfb3a;" d="M40 -116q0 -17 -11.5 -28.5t-28.5 -11.5t-28.5 11.5t-11.5 28.5t11.5 28.5t28.5 11.5t28.5 -11.5t11.5 -28.5z" />
<glyph unicode="&#xfb3b;" d="M40 -116q0 -17 -11.5 -28.5t-28.5 -11.5t-28.5 11.5t-11.5 28.5t11.5 28.5t28.5 11.5t28.5 -11.5t11.5 -28.5z" />
<glyph unicode="&#xfb3c;" d="M40 -116q0 -17 -11.5 -28.5t-28.5 -11.5t-28.5 11.5t-11.5 28.5t11.5 28.5t28.5 11.5t28.5 -11.5t11.5 -28.5z" />
<glyph unicode="&#xfb3e;" d="M40 -116q0 -17 -11.5 -28.5t-28.5 -11.5t-28.5 11.5t-11.5 28.5t11.5 28.5t28.5 11.5t28.5 -11.5t11.5 -28.5z" />
<glyph unicode="&#xfb40;" d="M40 -116q0 -17 -11.5 -28.5t-28.5 -11.5t-28.5 11.5t-11.5 28.5t11.5 28.5t28.5 11.5t28.5 -11.5t11.5 -28.5z" />
<glyph unicode="&#xfb41;" d="M40 -116q0 -17 -11.5 -28.5t-28.5 -11.5t-28.5 11.5t-11.5 28.5t11.5 28.5t28.5 11.5t28.5 -11.5t11.5 -28.5z" />
<glyph unicode="&#xfb44;" d="M40 -116q0 -17 -11.5 -28.5t-28.5 -11.5t-28.5 11.5t-11.5 28.5t11.5 28.5t28.5 11.5t28.5 -11.5t11.5 -28.5z" />
<glyph unicode="&#xfb46;" d="M40 -116q0 -17 -11.5 -28.5t-28.5 -11.5t-28.5 11.5t-11.5 28.5t11.5 28.5t28.5 11.5t28.5 -11.5t11.5 -28.5z" />
<glyph unicode="&#xfb47;" d="M40 -116q0 -17 -11.5 -28.5t-28.5 -11.5t-28.5 11.5t-11.5 28.5t11.5 28.5t28.5 11.5t28.5 -11.5t11.5 -28.5z" />
<glyph unicode="&#xfb49;" d="M40 -116q0 -17 -11.5 -28.5t-28.5 -11.5t-28.5 11.5t-11.5 28.5t11.5 28.5t28.5 11.5t28.5 -11.5t11.5 -28.5z" />
<glyph unicode="&#xfb4a;" d="M40 -116q0 -17 -11.5 -28.5t-28.5 -11.5t-28.5 11.5t-11.5 28.5t11.5 28.5t28.5 11.5t28.5 -11.5t11.5 -28.5z" />
<glyph unicode="&#xfb4b;" d="M40 -116q0 -17 -11.5 -28.5t-28.5 -11.5t-28.5 11.5t-11.5 28.5t11.5 28.5t28.5 11.5t28.5 -11.5t11.5 -28.5z" />
</font>
</defs>
</svg>
