<?xml version="1.0" standalone="no"?>
<!DOCTYPE svg PUBLIC "-//W3C//DTD SVG 1.1//EN" "http://www.w3.org/Graphics/SVG/1.1/DTD/svg11.dtd" >
<svg xmlns="http://www.w3.org/2000/svg">
<metadata>
This is a custom SVG webfont generated by Font Squirrel.
</metadata>
<defs>
<font id="webfontlvfTnvzp" horiz-adv-x="1024" >
<font-face units-per-em="2048" ascent="1505" descent="-543" />
<missing-glyph horiz-adv-x="452" />
<glyph unicode=" "  horiz-adv-x="452" />
<glyph unicode="&#x09;" horiz-adv-x="452" />
<glyph unicode="&#xa0;" horiz-adv-x="452" />
<glyph unicode="!" horiz-adv-x="437" d="M154 1122l129 1q53 0 51 -52l-25 -685q-1 -52 -51 -52h-81q-49 0 -51 52l-22 685q-2 51 50 51zM352 100q0 55 -39 93.5t-93 38.5t-93 -38.5t-39 -93.5q0 -54 38.5 -92t93.5 -38t93.5 38t38.5 92z" />
<glyph unicode="&#x22;" horiz-adv-x="570" d="M185 1171l79 -23q51 -15 34 -64l-110 -313q-13 -37 -47 -37q-8 0 -17 3l-54 17q-47 15 -34 64l86 319q10 37 46 37q8 0 17 -3zM433 1170l79 -23q51 -15 34 -64l-110 -313q-13 -37 -47 -37q-8 0 -17 3l-54 17q-47 15 -34 64l86 319q10 37 46 37q8 0 17 -3z" />
<glyph unicode="#" horiz-adv-x="1242" d="M724 603h-180l-32 -181h181zM1153 739l-15 -85q-8 -51 -51 -51h-173l-32 -181h150q60 0 51 -50l-14 -85q-9 -51 -51 -51h-168l-35 -197q-7 -42 -59 -41l-86 1q-51 0 -41 59l31 178h-181l-34 -196q-8 -41 -60 -41h-84q-52 0 -41 59l31 178h-168q-60 0 -51 51l14 85 q9 50 51 50h187l32 181h-164q-60 0 -51 51l14 85q9 51 52 51h181l34 191q7 42 59 42h86q52 -1 41 -60l-31 -173h180l33 191q8 42 59 42h87q24 0 35 -18t7 -41l-31 -174h155q60 0 51 -51z" />
<glyph unicode="$" horiz-adv-x="851" d="M370 633v206q-88 -7 -88 -98q0 -79 88 -108zM604 300q0 84 -95 116v-223q95 28 95 107zM798 301q0 -254 -289 -298v-122q0 -41 -41 -41h-57q-41 0 -41 41v118q-152 4 -252 46q-30 12 -23 50l22 106q7 38 50 24q102 -33 203 -40v269q-129 32 -192 84q-86 70 -86 195 q0 117 74 194.5t204 94.5v100q0 41 41 41h57q41 0 41 -41v-100q131 -11 196 -35q29 -10 21 -49l-19 -101q-7 -36 -52 -23q-68 20 -146 26v-242q135 -37 200 -91q89 -75 89 -206z" />
<glyph unicode="%" horiz-adv-x="1429" d="M419 715q0 166 -84 166q-86 0 -86 -166q0 -101 19 -137.5t66 -36.5q46 0 65.5 38t19.5 136zM590 713q0 -321 -255 -321q-256 0 -256 321q0 308 256 308q255 0 255 -308zM834 1100l99 -28q49 -14 35 -64l-312 -1082q-11 -37 -47 -37q-8 0 -16 2l-99 28q-49 14 -35 64 l312 1082q11 38 47 38q8 0 16 -3zM1185 322q0 166 -84 166q-86 0 -86 -166q0 -101 19 -139q19 -34 66 -34q46 0 65.5 37.5t19.5 135.5zM1356 320q0 -321 -255 -321q-256 0 -256 321q0 308 256 308q255 0 255 -308z" />
<glyph unicode="&#x26;" horiz-adv-x="1758" d="M404 819v-767q0 -52 -51 -52h-103q-51 0 -51 52v767h-69q-51 0 -51 51v105q0 50 51 50h1029q51 0 51 -51v-771h38q109 0 157 50q53 54 53 187v380l-61 -1q-51 -1 -51 51v103q0 50 51 51h215q51 1 51 -51v-499q0 -222 -84 -334q-105 -139 -351 -139l-555 -1q-74 0 -74 86 v558q0 46 51 46h103q51 0 51 -51v-437h283q-33 0 -58 41q-24 38 -24 80v497z" />
<glyph unicode="'" horiz-adv-x="369" d="M202 1179l93 -27q52 -15 34 -64l-116 -321q-13 -37 -47 -37q-8 0 -16 3l-62 19q-47 14 -34 63l84 329q10 37 46 37q9 0 18 -2z" />
<glyph unicode="(" horiz-adv-x="457" d="M385 -59q-112 312 -112 575q0 247 111 554q17 46 -25 59l-79 23q-39 11 -59 -25q-156 -289 -156 -611q0 -329 156 -630q19 -36 57 -25l80 24q43 12 27 56z" />
<glyph unicode=")" horiz-adv-x="457" d="M69 -59q113 312 113 575q0 247 -112 554q-16 46 26 59l79 23q39 11 59 -25q156 -289 156 -611q0 -329 -157 -630q-18 -36 -56 -25l-80 24q-43 12 -28 56z" />
<glyph unicode="*" horiz-adv-x="778" d="M712 770l-23 67q-15 42 -56 28l-157 -52v164q0 46 -45 46h-71q-45 0 -45 -46v-164l-156 51q-43 13 -57 -31l-22 -67q-14 -43 29 -57l157 -50l-95 -132q-26 -36 11 -64l57 -42q36 -26 62 10l98 134l95 -132q26 -36 64 -9l57 42q36 27 10 62l-99 134l158 51q43 14 28 57z " />
<glyph unicode="+" horiz-adv-x="815" d="M368 802h82q51 0 51 -51v-167h182q51 0 51 -51v-81q0 -51 -51 -51h-182v-177q0 -51 -51 -51h-82q-51 0 -51 51v177h-182q-51 0 -51 51v81q0 51 51 51h182v167q0 51 51 51z" />
<glyph unicode="," horiz-adv-x="316" d="M167 229l93 -27q52 -15 34 -64l-115 -321q-14 -37 -48 -37q-8 0 -16 3l-62 19q-47 14 -34 64l84 329q10 37 46 37q9 0 18 -3z" />
<glyph unicode="-" horiz-adv-x="858" d="M125 409v103q0 51 51 51l507 1q51 0 51 -52v-102q0 -51 -51 -51h-507q-51 0 -51 50z" />
<glyph unicode="." horiz-adv-x="377" d="M318 100q0 55 -39 93.5t-93 38.5t-93 -38.5t-39 -93.5q0 -54 38.5 -92t93.5 -38t93.5 38t38.5 92z" />
<glyph unicode="/" horiz-adv-x="727" d="M547 1087l96 -38q47 -20 28 -67l-424 -1044q-13 -33 -45 -33q-11 0 -21 5l-96 38q-47 19 -28 67l424 1044q13 33 45 33q10 0 21 -5z" />
<glyph unicode="0" horiz-adv-x="778" d="M734 512q0 525 -340 525t-340 -525t340 -525q198 0 279 163q61 122 61 362zM523 512q0 -139 -15 -205q-29 -130 -117 -130q-126 0 -126 335q0 339 128 339q130 0 130 -339z" />
<glyph unicode="1" horiz-adv-x="639" d="M97 49v102q0 50 51 51l107 1v617l-118 -1q-51 0 -51 51v104q0 51 51 51h271q51 0 51 -51v-772h55q51 0 51 -51v-101q0 -51 -51 -51h-366q-51 0 -51 50z" />
<glyph unicode="2" horiz-adv-x="707" d="M640 735q-7 130 -89 212q-85 86 -222 85q-138 -1 -246 -67q-42 -26 -25 -67l34 -86q13 -32 44 -32q14 0 27 9q73 49 164 46q53 -1 87 -44q31 -38 32 -87q2 -92 -87 -198l-256 -268q-30 -32 -30 -64v-125q0 -51 51 -51h473q52 0 51 51l-2 98q-1 51 -51 51h-280 q178 167 245 267q88 133 80 270z" />
<glyph unicode="3" horiz-adv-x="691" d="M645 292q0 94 -47 165q-45 68 -120 95q56 27 91.5 87t35.5 121q0 120 -79.5 196t-212.5 76q-117 0 -211 -52q-31 -18 -31 -50q0 -9 4 -17l41 -83q22 -42 63 -18q66 38 125 38q43 0 73 -27q34 -30 35 -82q2 -50 -41 -87q-46 -41 -120 -41q-52 0 -52 -52v-92q0 -52 52 -51 q199 3 199 -127q0 -53 -41.5 -84.5t-93.5 -31.5q-72 0 -158 40q-12 6 -23 6q-29 0 -44 -34l-34 -79q-5 -11 -5 -23q0 -34 35 -48q135 -54 224 -54q154 0 244.5 84.5t90.5 224.5z" />
<glyph unicode="4" horiz-adv-x="814" d="M765 265v85q0 51 -51 51h-53v239q0 51 -51 51h-91q-51 0 -51 -51v-239h-182l220 546q20 50 -28 67l-93 33q-49 18 -67 -28l-226 -591q-19 -50 -19 -68v-95q0 -52 51 -52h339v-161q0 -51 51 -51h94q53 0 53 51v161h53q51 0 51 52z" />
<glyph unicode="5" horiz-adv-x="747" d="M694 350q3 152 -85 245q-82 85 -202 85q-96 0 -128 -32l-1 182h297q51 0 52 51v92q1 51 -51 51h-440q-51 0 -51 -51l1 -431q0 -31 27 -46l71 -37q34 -18 63 4q53 40 104 40q57 0 101.5 -45t43.5 -109q-1 -82 -49 -127t-124 -44q-60 0 -160 43q-12 5 -24 5q-30 0 -43 -33 l-36 -100q-14 -38 32 -56q129 -52 231 -52q174 0 270.5 93.5t100.5 271.5z" />
<glyph unicode="6" horiz-adv-x="747" d="M693 336q0 157 -85 250q-79 87 -201 87q-93 0 -145 -71q12 110 76 182q57 63 118 63q54 0 82 -8q51 -15 64 34l22 82q14 51 -34 64q-58 16 -133 16q-198 0 -308 -192q-94 -163 -94 -395q0 -213 83 -334q86 -126 245 -126q138 0 221 88q89 93 89 260zM500 336 q0 -76 -36 -120q-32 -39 -82 -39q-45 0 -77 39q-38 45 -38 124q0 69 38 116q34 42 77 42q118 0 118 -162z" />
<glyph unicode="7" horiz-adv-x="747" d="M678 930q4 15 4 29q0 65 -61 65h-509q-52 0 -52 -51v-107q0 -51 52 -51l332 2l-208 -745q-2 -8 -2 -16q0 -37 39 -46l102 -25q8 -2 15 -2q36 0 47 40z" />
<glyph unicode="8" horiz-adv-x="716" d="M674 283q0 188 -155 276q126 76 126 219q0 116 -76.5 187.5t-203.5 71.5q-125 0 -204 -73t-79 -185q0 -145 127 -238q-63 -24 -109 -94q-51 -77 -51 -173q0 -133 87 -210t227 -77q142 0 226.5 79t84.5 217zM472 779q0 -79 -99 -151q-113 71 -113 151q0 41 32 68.5 t73 27.5q42 0 73 -25q34 -28 34 -71zM481 294q0 -59 -37 -96q-33 -34 -81 -34q-50 0 -86 36t-36 94q0 97 111 177q129 -67 129 -177z" />
<glyph unicode="9" horiz-adv-x="716" d="M678 572q0 464 -319 464q-143 0 -228.5 -94t-85.5 -252q0 -147 74 -231t204 -84q47 0 93 20q50 22 64 54q-23 -277 -289 -277q-54 0 -50 -52l6 -86q4 -49 55 -47q206 8 318 119q158 159 158 466zM475 694q0 -62 -32.5 -100.5t-75.5 -41.5q-45 -3 -80 26q-47 38 -47 115 q0 164 122 164q113 0 113 -163z" />
<glyph unicode=":" horiz-adv-x="373" d="M311 100q0 55 -39 93.5t-93 38.5t-93 -38.5t-39 -93.5q0 -54 38.5 -92t93.5 -38t93.5 38t38.5 92zM311 720q0 55 -39 93.5t-93 38.5t-93 -38.5t-39 -93.5q0 -54 38.5 -92t93.5 -38t93.5 38t38.5 92z" />
<glyph unicode=";" horiz-adv-x="373" d="M173 229l93 -27q52 -15 34 -64l-115 -321q-14 -37 -48 -37q-8 0 -16 3l-62 19q-47 14 -34 64l84 329q10 37 46 37q9 0 18 -3zM311 720q0 55 -39 93.5t-93 38.5t-93 -38.5t-39 -93.5q0 -54 38.5 -92t93.5 -38t93.5 38t38.5 92z" />
<glyph unicode="&#x3c;" horiz-adv-x="757" d="M90 474l463 -463q17 -18 36 -18t36 18l72 72q17 17 17 37q0 19 -17 35l-358 354l358 353q16 16 16 36t-17 36l-73 74q-36 35 -72 -1l-462 -461q-36 -36 1 -72z" />
<glyph unicode="=" horiz-adv-x="858" d="M125 348v62q0 51 51 51h507q51 0 51 -51v-62q0 -51 -51 -51h-507q-51 0 -51 51zM125 591v62q0 51 51 51h507q51 0 51 -51v-62q0 -51 -51 -51h-507q-51 0 -51 51z" />
<glyph unicode="&#x3e;" horiz-adv-x="757" d="M697 474l-463 -463q-17 -18 -36 -18t-36 18l-72 72q-17 17 -17 37q0 19 16 35l364 354l-363 353q-16 15 -16 36q0 19 16 36l74 74q36 35 72 -1l461 -461q36 -36 0 -72z" />
<glyph unicode="?" horiz-adv-x="656" d="M448 100q0 55 -39 93.5t-93 38.5q-55 0 -93.5 -38.5t-38.5 -93.5q0 -54 38.5 -92t93.5 -38q54 0 93 38t39 92zM593 841q0 128 -81 204q-77 73 -199 73q-119 0 -223 -59q-41 -23 -22 -68l36 -81q15 -33 41 -33q12 0 27 7q77 37 135 34q39 -2 65.5 -28t26.5 -60 q0 -49 -48 -104q-79 -90 -90 -108q-49 -76 -49 -177v-56q0 -51 51 -51h95q51 0 51 52v31q0 87 92 196.5t92 227.5z" />
<glyph unicode="@" horiz-adv-x="1939" d="M1593 815q0 -259 -178 -418q-136 -121 -256 -121q-126 0 -141 166q-65 -81 -98 -106q-62 -47 -134 -47q-110 0 -184 83q-72 79 -72 191q0 175 116 307q121 136 294 136q135 0 172 -150l35 137h147l-159 -600q0 -31 16 -53q18 -16 45 -21q123 0 244 207q2 4 20 47 q23 55 33 91q20 74 20 143q0 214 -164 351q-153 128 -372 128q-275 0 -448 -170.5t-173 -445.5t184 -445q179 -164 457 -164q301 0 496 287h96q-82 -148 -198 -235q-191 -142 -402 -142q-309 0 -509 192q-204 196 -204 503q0 304 194.5 504t498.5 200q252 0 432 -149 q192 -159 192 -406zM1075 795q0 166 -110 166q-123 0 -211 -166q-76 -143 -76 -281q0 -70 31 -121q36 -61 102 -61q118 0 198 181q66 149 66 282z" />
<glyph unicode="A" horiz-adv-x="1099" d="M1091 57q8 -22 -3 -39.5t-34 -17.5h-143q-23 0 -40 12.5t-24 32.5l-82 303h-432l-77 -303q-5 -20 -21 -32.5t-39 -12.5h-133q-23 0 -33 17.5t-4 39.5l367 1276q6 23 24.5 35t38.5 12h180q21 0 38.5 -12t23.5 -35zM575 1075q-9 41 -17 97l-14 96q-4 -43 -12 -96.5 t-18 -96.5l-134 -538h336z" />
<glyph unicode="B" horiz-adv-x="1120" d="M1065 389q0 -186 -107.5 -287.5t-306.5 -101.5h-430q-20 0 -34.5 14.5t-14.5 32.5v1284q0 21 14.5 35t34.5 14h408q90 0 159.5 -26.5t117.5 -72.5t74 -110.5t26 -140.5q0 -110 -53.5 -184t-172.5 -113q70 -12 123 -43t89 -76t54.5 -102t18.5 -123zM782 1006q0 92 -49 142 t-151 50h-193v-387h180q107 0 160 53.5t53 141.5zM831 416q0 94 -63.5 158.5t-179.5 64.5h-199v-449h234q98 0 153 60.5t55 165.5z" />
<glyph unicode="C" horiz-adv-x="954" d="M906 106q11 -20 3.5 -36.5t-21.5 -22.5q-53 -29 -117.5 -44t-150.5 -15q-254 0 -396.5 182t-142.5 526q0 160 39 288t110.5 219t172 140.5t225.5 49.5q59 0 125.5 -10.5t124.5 -45.5q41 -24 20 -67l-43 -84q-16 -39 -59 -19q-35 17 -72 26t-80 9q-78 0 -139.5 -28.5 t-104.5 -90t-66.5 -158t-23.5 -231.5q0 -137 25 -233t69 -157.5t105 -90.5t135 -29q37 0 83 12.5t77 26.5q18 8 34.5 3t22.5 -21z" />
<glyph unicode="D" horiz-adv-x="1122" d="M1063 698q0 -163 -24.5 -293.5t-83 -220.5t-157 -137t-243.5 -47h-334q-20 0 -34.5 14.5t-14.5 34.5v1282q0 21 14.5 35t34.5 14h326q108 0 202.5 -32.5t164 -110.5t109.5 -210t40 -329zM834 686q0 164 -23 261t-70 157q-37 47 -94 70.5t-123 23.5h-135v-1010h131 q76 0 134.5 19.5t98.5 75t60.5 152.5t20.5 251z" />
<glyph unicode="E" horiz-adv-x="997" d="M924 49q0 -20 -15.5 -34.5t-36.5 -14.5h-651q-20 0 -34.5 14.5t-14.5 34.5v1282q0 21 14.5 35t34.5 14h635q21 0 35 -14t14 -35v-92q0 -20 -13 -35.5t-36 -15.5h-467v-367h418q20 0 35.5 -13t15.5 -34v-86q0 -22 -15.5 -36.5t-35.5 -14.5h-418v-438h483q21 0 36.5 -14.5 t15.5 -34.5v-101z" />
<glyph unicode="F" horiz-adv-x="905" d="M885 1239q0 -20 -13.5 -35.5t-35.5 -15.5h-447v-371h395q21 0 36.5 -14.5t15.5 -34.5v-84q0 -22 -15.5 -36.5t-36.5 -14.5h-395v-584q0 -14 -9 -24.5t-22 -14.5q-2 -2 -15 -4t-29 -4q-18 -2 -32 -2h-18q-2 0 -12 1l-20 2q-10 1 -19.5 3t-11.5 4q-13 2 -21 13.5t-8 25.5 v1282q0 21 14.5 35t34.5 14h615q20 0 34.5 -14t14.5 -35v-92z" />
<glyph unicode="G" horiz-adv-x="1122" d="M1005 123q0 -35 -13.5 -53.5t-50.5 -32.5q-59 -23 -139 -36t-164 -13q-145 0 -250.5 48t-173 139t-100.5 222t-33 297q0 160 38 289t109.5 220t176 140.5t237.5 49.5q92 0 176 -21.5t152 -56.5q43 -23 22 -64l-41 -88q-8 -16 -24.5 -24.5t-34.5 2.5q-53 26 -111.5 42.5 t-138.5 16.5q-166 0 -248 -124t-82 -396q0 -137 24 -233.5t69 -155t108.5 -85t145.5 -26.5q69 0 131 19v403h-181q-20 0 -34.5 14.5t-14.5 34.5v97q0 20 14.5 34.5t34.5 14.5h346q21 0 35.5 -14.5t14.5 -34.5v-625z" />
<glyph unicode="H" horiz-adv-x="1193" d="M1046 49q0 -20 -14 -34.5t-35 -14.5h-116q-21 0 -36.5 14.5t-15.5 34.5v588h-440v-588q0 -20 -14.5 -34.5t-34.5 -14.5h-119q-20 0 -34.5 14.5t-14.5 34.5v1282q0 21 14.5 35t34.5 14h119q20 0 34.5 -14t14.5 -35v-506h440v506q0 21 15.5 35t36.5 14h116q21 0 35 -14 t14 -35v-1282z" />
<glyph unicode="I" horiz-adv-x="548" d="M519 49q0 -20 -13 -34.5t-34 -14.5h-385q-20 0 -33.5 14.5t-13.5 34.5v72q0 20 13.5 33.5t33.5 13.5h84v1042h-84q-20 0 -33.5 14.5t-13.5 35.5v71q0 21 13.5 35t33.5 14h385q21 0 34 -14t13 -35v-71q0 -21 -13 -35.5t-34 -14.5h-84v-1042h84q21 0 34 -13.5t13 -33.5v-72 z" />
<glyph unicode="J" horiz-adv-x="509" d="M418 -108q0 -92 -37 -153.5t-129 -108.5l-78 -41q-17 -10 -36 -3t-30 23l-47 88q-10 17 -6 36.5t27 31.5l57 33q35 22 48.5 49t13.5 61v1302h-95q-20 0 -33.5 14.5t-13.5 35.5v71q0 21 13.5 35t33.5 14h262q21 0 35.5 -14t14.5 -35v-1439z" />
<glyph unicode="K" horiz-adv-x="1032" d="M1038 57q17 -24 8.5 -40.5t-34.5 -16.5h-166q-23 0 -40.5 7t-29.5 30l-387 680v-670q0 -18 -14.5 -32.5t-34.5 -14.5h-119q-20 0 -34.5 14.5t-14.5 32.5v1284q0 21 14.5 35t34.5 14h119q20 0 34.5 -14t14.5 -35v-530l361 547q22 32 65 32h156q30 0 34.5 -19.5t-8.5 -37.5 l-399 -559z" />
<glyph unicode="L" horiz-adv-x="868" d="M872 49q0 -20 -14 -34.5t-35 -14.5h-602q-20 0 -34.5 14.5t-14.5 34.5v1282q0 21 14.5 35t34.5 14h119q20 0 34.5 -14t14.5 -35v-1134h434q21 0 35 -15.5t14 -34.5v-98z" />
<glyph unicode="M" horiz-adv-x="1447" d="M1366 45q2 -18 -8.5 -31.5t-30.5 -13.5h-135q-21 0 -35.5 13.5t-16.5 31.5l-41 899q0 19 -1 56.5t-1 80.5v84v64q-4 -25 -8 -62t-10 -77l-13 -78q-6 -39 -12 -68l-192 -754q-15 -47 -55 -47h-146q-43 0 -57 47l-187 754q-6 29 -12 67l-12 77l-11 77l-10 64v-61v-84 q0 -44 -1 -82.5t-1 -57.5l-45 -897q-2 -20 -16 -33.5t-33 -13.5h-131q-18 0 -30.5 14.5t-10.5 34.5l109 1284q2 21 18 34t37 13h192q19 0 36.5 -12t21.5 -29l190 -815q10 -45 17.5 -115.5t11.5 -125.5q4 55 11 125.5t18 115.5l194 815q4 19 21.5 30t35.5 11h189 q20 0 35.5 -12t17.5 -35z" />
<glyph unicode="N" horiz-adv-x="1241" d="M1098 47q0 -18 -15.5 -32.5t-36.5 -14.5h-192q-39 0 -55 39l-361 858q-28 67 -48 147l-42 158l9 -87l9 -95l7.5 -90t3.5 -72l2 -811q0 -18 -14.5 -32.5t-34.5 -14.5h-109q-20 0 -34.5 14.5t-14.5 32.5v1286q0 21 14.5 34t34.5 13h193q20 0 38.5 -10t26.5 -27l346 -845 q29 -68 49 -142l41 -149q-8 80 -14 169t-6 161l-2 796q0 19 14.5 33t34.5 14h104q21 0 36.5 -14t15.5 -33v-1286z" />
<glyph unicode="O" horiz-adv-x="1126" d="M1055 684q0 -696 -480 -696q-239 0 -361 172t-122 524q0 350 121 529.5t362 179.5q238 0 359 -174.5t121 -534.5zM829 690q0 111 -10 207t-39 168t-78 113t-129 41q-86 0 -136 -44.5t-75.5 -118t-34 -168.5t-8.5 -198q0 -260 55.5 -391t198.5 -131q76 0 125 37t79 104.5 t41 164.5t11 216z" />
<glyph unicode="P" d="M981 977q0 -92 -29.5 -168t-85 -131t-134.5 -85t-177 -30h-166v-514q0 -20 -14.5 -34.5t-34.5 -14.5h-119q-20 0 -34.5 14.5t-14.5 34.5v1282q0 21 14.5 35t34.5 14h330q211 0 320.5 -109.5t109.5 -293.5zM762 975q0 104 -52.5 160.5t-160.5 56.5h-160v-442h160 q104 0 158.5 63.5t54.5 161.5z" />
<glyph unicode="Q" horiz-adv-x="1138" d="M1136 -147q-22 -45 -63 -27q-74 31 -150.5 89.5t-125.5 123.5q-37 -23 -95.5 -37t-126.5 -14q-239 0 -361 172t-122 524q0 350 121 529.5t362 179.5q238 0 359 -174.5t121 -534.5q0 -172 -30 -304t-95 -226q53 -48 114.5 -82.5t116.5 -57.5q16 -8 24.5 -26t-1.5 -41z M829 690q0 111 -10 207t-39 168t-78 113t-129 41q-86 0 -136 -44.5t-75.5 -118t-34 -168.5t-8.5 -198q0 -260 55.5 -391t198.5 -131q76 0 125 37t79 104.5t41 164.5t11 216z" />
<glyph unicode="R" horiz-adv-x="1116" d="M1090 63q10 -28 3.5 -45.5t-38.5 -17.5h-150q-22 0 -37.5 8t-23.5 35l-66 210q-31 103 -74 185q-34 68 -86.5 120t-144.5 52h-84v-563q0 -18 -14.5 -32.5t-34.5 -14.5h-119q-20 0 -34.5 14.5t-14.5 32.5v1284q0 21 14.5 35t34.5 14h361q129 0 210.5 -35.5t128 -88 t62.5 -114t16 -112.5q0 -61 -17 -116.5t-52 -100.5t-88.5 -75.5t-126.5 -43.5q-3 -2 -9 -2h-8q74 -16 130.5 -72.5t88.5 -123.5q13 -27 33 -74l44 -106l48 -126zM778 1001q0 74 -49 131.5t-154 57.5h-186v-404h164q106 0 165.5 58.5t59.5 156.5z" />
<glyph unicode="S" horiz-adv-x="942" d="M894 393q0 -90 -30.5 -164.5t-89 -128t-142.5 -83t-190 -29.5q-90 0 -179.5 17.5t-154.5 41.5q-21 8 -28 25.5t-3 36.5l25 102q4 20 21.5 29.5t39.5 1.5q60 -23 128.5 -41.5t146.5 -18.5q102 0 167.5 49.5t65.5 145.5q0 53 -21.5 90t-57.5 65t-82 52l-93 47l-84 39 q-47 22 -90 51t-77 68.5t-54.5 95t-20.5 129.5q0 82 29 151.5t82 119.5t131 79t176 29q74 0 144.5 -15.5t124.5 -34.5q18 -6 24 -23t2 -36l-22 -92q-4 -18 -19.5 -27.5t-36.5 -3.5q-49 17 -96 30t-117 13q-100 0 -150 -47t-50 -133q0 -41 16 -69.5t44 -52t63.5 -42 t76.5 -37.5l111 -51q55 -24 104.5 -56t86 -77t58 -104.5t21.5 -141.5z" />
<glyph unicode="T" horiz-adv-x="899" d="M917 1231q0 -21 -13.5 -34t-33.5 -13h-291v-1135q0 -20 -14.5 -34.5t-34.5 -14.5h-119q-20 0 -34.5 14.5t-14.5 34.5v1135h-291q-20 0 -35.5 13t-15.5 34v100q0 21 15.5 35t35.5 14h799q20 0 33.5 -14t13.5 -35v-100z" />
<glyph unicode="U" horiz-adv-x="1196" d="M1058 428q0 -215 -113.5 -327.5t-337.5 -112.5q-229 0 -337.5 114.5t-108.5 325.5v903q0 49 47 49h119q49 0 49 -49v-880q0 -136 50 -209.5t177 -73.5q58 0 102 13.5t74.5 44t46 82.5t15.5 130v893q0 49 51 49h117q22 0 35.5 -13t13.5 -36v-903z" />
<glyph unicode="V" horiz-adv-x="1095" d="M704 45q-7 -20 -24 -32.5t-38 -12.5h-156q-20 0 -37.5 12.5t-23.5 32.5l-379 1278q-6 23 5.5 40t33.5 17h141q52 0 64 -49l235 -928q13 -49 25 -122.5t18 -145.5q11 72 21 145.5t22 122.5l236 926q12 51 61 51h123q23 0 34 -16t5 -39z" />
<glyph unicode="W" horiz-adv-x="1658" d="M1382 45q-4 -20 -22.5 -32.5t-38.5 -12.5h-199q-22 0 -40.5 11.5t-22.5 33.5l-176 950q-4 25 -8.5 60t-7.5 71.5t-5 71.5t-4 59q-2 -24 -4 -58q-2 -35 -5 -71l-6 -72q-3 -36 -9 -63l-187 -948q-4 -22 -22.5 -33.5t-38.5 -11.5h-209q-45 0 -55 43l-232 1282q-4 23 6 39 t33 16h147q52 0 58 -51l129 -903q4 -28 7 -66l6 -78l6 -79q3 -39 5 -68q5 31 10 69t11 78l11 76q5 36 11 66l181 907q10 49 59 49h188q50 0 60 -49l172 -903q12 -66 21.5 -146.5t15.5 -146.5q4 29 7 67t7 78l8 77q4 38 8 67l138 907q4 23 18 36t37 13h127q22 0 32.5 -17 t6.5 -40z" />
<glyph unicode="X" horiz-adv-x="1114" d="M1089 61q16 -26 8 -43.5t-35 -17.5h-168q-45 0 -65 39l-273 512l-274 -512q-18 -39 -68 -39h-143q-27 0 -35 16.5t8 44.5l392 656l-349 602q-16 27 -7 44t36 17h162q22 0 38.5 -12t26.5 -29l232 -436l229 436q10 17 26.5 29t39.5 12h135q27 0 36 -16t-7 -45l-340 -588z " />
<glyph unicode="Y" horiz-adv-x="1009" d="M628 537v-488q0 -20 -14.5 -34.5t-34.5 -14.5h-117q-20 0 -35.5 14.5t-15.5 34.5v481l-371 795q-10 23 -2 39t37 16h160q47 0 59 -34l185 -472q22 -57 32.5 -110t18.5 -98q6 47 17 98t34 110l178 469q16 37 62 37h145q22 0 31.5 -15t-2.5 -42z" />
<glyph unicode="Z" horiz-adv-x="1001" d="M932 49q0 -20 -14.5 -34.5t-35.5 -14.5h-739q-20 0 -34.5 14.5t-14.5 34.5v107q0 22 6 39.5t17 33.5l479 826q30 53 60 89t54 54q-34 -8 -65 -11t-78 -3h-403q-21 0 -36.5 14t-15.5 35v98q0 21 15.5 35t36.5 14h698q20 0 34.5 -14t14.5 -35v-96q0 -23 -8 -42t-18 -38 l-480 -825q-32 -56 -61 -90.5t-53 -51.5q30 5 63 10t76 5h452q21 0 35.5 -14.5t14.5 -34.5v-105z" />
<glyph unicode="[" horiz-adv-x="577" d="M543 -268q0 -22 -14.5 -36.5t-37.5 -14.5h-270q-22 0 -35.5 14.5t-13.5 36.5v1788q0 22 13.5 36.5t35.5 14.5h270q23 0 37.5 -14.5t14.5 -36.5v-54q0 -22 -14.5 -35.5t-37.5 -13.5h-139v-1584h139q23 0 37.5 -12.5t14.5 -35.5v-53z" />
<glyph unicode="\" horiz-adv-x="651" d="M639 -135q8 -24 -2.5 -40.5t-32.5 -16.5h-82q-45 0 -57 43l-449 1552q-6 22 3 38.5t32 16.5h80q47 0 59 -43z" />
<glyph unicode="]" horiz-adv-x="577" d="M418 -268q0 -22 -13.5 -36.5t-36.5 -14.5h-270q-22 0 -35.5 14.5t-13.5 36.5v53q0 23 13.5 35.5t35.5 12.5h141v1584h-141q-22 0 -35.5 13.5t-13.5 35.5v54q0 22 13.5 36.5t35.5 14.5h270q23 0 36.5 -14.5t13.5 -36.5v-1788z" />
<glyph unicode="^" horiz-adv-x="1183" d="M1120 653q10 -18 4 -36.5t-24 -28.5l-78 -39q-17 -8 -37.5 -4t-30.5 22l-344 682l-344 -682q-10 -18 -30.5 -23t-37.5 5l-71 39q-17 10 -24 28.5t3 36.5l400 772q14 27 43 27h131q12 0 24.5 -6t20.5 -21z" />
<glyph unicode="_" d="M1034 -231q0 -22 -14.5 -35.5t-36.5 -13.5h-922q-22 0 -36.5 13.5t-14.5 35.5v41q0 23 14.5 37t36.5 14h922q22 0 36.5 -14t14.5 -37v-41z" />
<glyph unicode="`" horiz-adv-x="708" d="M567 1169q-19 -34 -60 -14l-356 160q-21 10 -29 24.5t6 38.5l54 99q22 39 59 16l336 -209q16 -10 22.5 -24.5t-4.5 -34.5z" />
<glyph unicode="a" horiz-adv-x="909" d="M821 47q4 -22 -7.5 -34.5t-33.5 -12.5h-107q-45 0 -51 47l-12 76q-45 -70 -118 -102.5t-161 -32.5q-129 0 -197.5 81t-68.5 222q0 153 87 230t232 87l205 15q0 4 1 22.5t-3 22.5q-2 80 -33.5 116.5t-128.5 36.5q-59 0 -108 -11t-90 -24q-49 -12 -60 31l-20 90 q-10 43 31 56q22 6 53 13t65.5 13t70.5 10.5t69 4.5q129 0 201.5 -37t108.5 -93.5t44 -125t8 -132.5v-344q0 -36 1 -77t9 -86zM589 475l-116 -4q-89 -2 -142 -40t-53 -140q0 -68 34 -99.5t81 -31.5q43 0 79.5 16.5t62.5 42t40 56t14 57.5v143z" />
<glyph unicode="b" horiz-adv-x="956" d="M901 500q0 -144 -24.5 -242t-68.5 -157.5t-104.5 -86t-132.5 -26.5q-78 0 -140.5 37.5t-96.5 103.5l-17 -82q-10 -47 -59 -47h-72q-20 0 -34.5 13.5t-14.5 33.5v1358q0 20 14.5 33.5t34.5 13.5h111q20 0 34.5 -13.5t14.5 -33.5v-526q37 59 92 92t133 33q66 0 124 -29 t95 -72q62 -72 86.5 -169t24.5 -234zM678 494q0 98 -11.5 162.5t-33.5 101.5q-39 69 -125 69q-80 0 -124 -82.5t-44 -252.5q0 -168 42 -245t126 -77t127 71.5t43 252.5z" />
<glyph unicode="c" horiz-adv-x="759" d="M720 74q4 -19 -3 -34t-30 -24q-47 -16 -97 -22t-103 -6q-191 0 -304.5 129t-113.5 389q0 106 29.5 197.5t85 158t134.5 104.5t177 38q49 0 96 -10.5t82 -24.5q49 -19 35 -58l-29 -86q-6 -16 -18 -27.5t-39 -0.5q-23 8 -52.5 16t-68.5 8q-98 0 -154.5 -81t-56.5 -234 q0 -170 53.5 -249t169.5 -79q35 0 71 5t65 14q22 6 36.5 -4.5t18.5 -28.5z" />
<glyph unicode="d" horiz-adv-x="956" d="M839 47q0 -20 -14.5 -33.5t-34.5 -13.5h-72q-51 0 -61 47l-17 82q-35 -66 -96 -103.5t-139 -37.5q-72 0 -132.5 26.5t-104.5 86t-68.5 157.5t-24.5 242q0 137 24.5 234t86.5 169q36 43 93.5 72t123.5 29q78 0 134 -33t93 -92v526q0 20 13.5 33.5t33.5 13.5h113 q20 0 34.5 -13.5t14.5 -33.5v-1358zM636 492q0 170 -44 251.5t-124 81.5q-86 0 -125 -69q-22 -37 -33.5 -100.5t-11.5 -161.5q0 -181 43 -251.5t127 -70.5t126 76t42 244z" />
<glyph unicode="e" horiz-adv-x="899" d="M833 492q0 -21 -13.5 -35.5t-33.5 -14.5h-496q6 -129 56.5 -199.5t181.5 -70.5q59 0 104 11.5t90 25.5q23 8 36 -3t20 -28l28 -82q8 -20 -1 -34.5t-27 -22.5q-56 -25 -117.5 -38t-155.5 -13q-207 0 -320.5 128t-113.5 384q0 114 26.5 206.5t77 159t122 102.5t159.5 36 q86 0 155.5 -29t119 -91.5t76 -159.5t26.5 -232zM620 592q-2 47 -10.5 90t-26.5 78t-49 55.5t-74 20.5q-61 0 -109.5 -55.5t-60.5 -188.5h330z" />
<glyph unicode="f" horiz-adv-x="581" d="M587 1280q-14 -37 -53 -25q-16 5 -39.5 13t-44.5 8q-32 0 -52.5 -22.5t-20.5 -67.5v-195h153q21 0 35 -13t14 -34v-67q0 -21 -14 -35.5t-35 -14.5h-151l-2 -780q0 -20 -13.5 -33.5t-34.5 -13.5h-112q-19 0 -34 13.5t-15 33.5v780h-109q-20 0 -33.5 14.5t-13.5 35.5v67 q0 21 13.5 34t33.5 13h109v199q0 135 62.5 204.5t182.5 69.5q45 0 93.5 -12t83.5 -29q38 -18 24 -59z" />
<glyph unicode="g" horiz-adv-x="954" d="M839 -8q0 -69 -9.5 -142t-47 -132.5t-114.5 -97t-212 -37.5q-86 0 -163 12t-138 35q-35 12 -25 53l27 96q10 41 53 29q43 -14 105.5 -25.5t124.5 -11.5q61 0 98 16.5t57.5 45t27.5 66.5t7 81v141q-35 -60 -91 -94.5t-134 -34.5q-72 0 -132.5 26.5t-104.5 87t-68.5 156.5 t-24.5 238q0 137 24.5 234t86.5 169q34 41 92.5 71t124.5 30q78 0 139 -36t96 -104l19 80q10 47 61 47h72q20 0 34.5 -13t14.5 -34v-952zM636 492q0 170 -44 251.5t-124 81.5q-86 0 -125 -69q-22 -37 -33.5 -100.5t-11.5 -161.5q0 -181 43 -251.5t127 -70.5t126 76t42 244z " />
<glyph unicode="h" horiz-adv-x="980" d="M864 47q0 -20 -14.5 -33.5t-34.5 -13.5h-113q-20 0 -33.5 13.5t-13.5 33.5v658q0 59 -25.5 89.5t-84.5 30.5q-86 0 -142.5 -64.5t-56.5 -164.5v-549q0 -20 -14.5 -33.5t-34.5 -13.5h-111q-20 0 -34.5 13.5t-14.5 33.5v1358q0 20 14.5 33.5t34.5 13.5h111q20 0 34.5 -13.5 t14.5 -33.5v-526q53 59 120.5 92t145.5 33q117 0 184.5 -70t67.5 -186v-701z" />
<glyph unicode="i" horiz-adv-x="503" d="M405 1317q0 -57 -40 -97t-97 -40q-58 0 -98.5 40t-40.5 97t40.5 98t98.5 41q57 0 97 -41t40 -98zM376 47q0 -20 -13 -33.5t-34 -13.5h-112q-21 0 -35.5 13.5t-14.5 33.5v780h-98q-20 0 -34.5 14.5t-14.5 35.5v67q0 21 14.5 34t34.5 13h260q23 0 35 -13t12 -34v-897z" />
<glyph unicode="j" horiz-adv-x="503" d="M405 1317q0 -57 -40 -97t-97 -40q-58 0 -98.5 40t-40.5 97t40.5 98t98.5 41q57 0 97 -41t40 -98zM376 -75q0 -47 -4 -88t-19.5 -77t-43 -66.5t-74.5 -57.5l-76 -45q-18 -10 -37.5 -6t-29.5 20l-45 78q-11 16 -7.5 35.5t21.5 30.5l37 20q49 29 59 65.5t10 90.5v902h-98 q-20 0 -34.5 14.5t-14.5 35.5v67q0 21 14.5 34t34.5 13h260q21 0 34 -13t13 -34v-1019z" />
<glyph unicode="k" horiz-adv-x="884" d="M874 55q13 -18 4.5 -36.5t-30.5 -18.5h-166q-37 0 -64 43l-272 477v-473q0 -20 -14.5 -33.5t-34.5 -13.5h-111q-20 0 -34.5 13.5t-14.5 33.5v1358q0 20 14.5 33.5t34.5 13.5h111q20 0 34.5 -13.5t14.5 -33.5v-817l231 366q23 37 66 37h153q23 0 30 -18.5t-7 -36.5 l-270 -371z" />
<glyph unicode="l" horiz-adv-x="526" d="M526 61q6 -36 -31 -49q-61 -24 -149 -24q-113 0 -161 55t-48 156v1206q0 20 14.5 33.5t34.5 13.5h111q20 0 34.5 -13.5t14.5 -33.5v-1151q0 -41 8 -60.5t39 -19.5q14 0 31.5 3t34.5 7q43 9 51 -32z" />
<glyph unicode="m" horiz-adv-x="1427" d="M1321 47q0 -20 -14.5 -33.5t-34.5 -13.5h-115q-21 0 -34 13.5t-13 33.5v684q0 47 -24.5 69.5t-61.5 22.5q-80 0 -134.5 -63.5t-54.5 -163.5v-549q0 -20 -14 -33.5t-35 -13.5h-112q-21 0 -35.5 13.5t-14.5 33.5v684q0 47 -24.5 69.5t-61.5 22.5q-80 0 -134 -63.5 t-54 -163.5v-549q0 -20 -14.5 -33.5t-34.5 -13.5h-113q-20 0 -34.5 13.5t-14.5 33.5v897q0 21 14.5 34t34.5 13h80q43 0 51 -39l19 -82q47 54 116.5 94t143.5 40q82 0 139 -37t78 -105q57 68 126.5 105t145.5 37q45 0 87 -13.5t75 -42t52.5 -75t19.5 -111.5v-715z" />
<glyph unicode="n" horiz-adv-x="983" d="M866 47q0 -20 -14.5 -33.5t-34.5 -13.5h-115q-20 0 -33.5 13.5t-13.5 33.5v658q0 59 -23.5 89.5t-82.5 30.5q-43 0 -79 -17t-62.5 -48t-42 -73t-15.5 -91v-549q0 -20 -13.5 -33.5t-33.5 -13.5h-115q-20 0 -34.5 13.5t-14.5 33.5v897q0 21 14.5 34t34.5 13h80q43 0 51 -39 l19 -84q63 72 129.5 104t146.5 32q117 0 184.5 -70t67.5 -186v-701z" />
<glyph unicode="o" horiz-adv-x="927" d="M876 498q0 -236 -104.5 -373t-296.5 -137q-193 0 -299.5 135t-106.5 375q0 235 106.5 370.5t299.5 135.5q190 0 295.5 -136.5t105.5 -369.5zM659 498q0 178 -52.5 253.5t-136.5 75.5t-135 -75.5t-51 -253.5q0 -92 13.5 -154.5t38 -101.5t59 -56.5t75.5 -17.5 q84 0 136.5 73.5t52.5 256.5z" />
<glyph unicode="p" horiz-adv-x="958" d="M903 487q0 -135 -26.5 -241.5t-92.5 -171.5q-35 -37 -88 -61.5t-119 -24.5q-80 0 -135 30.5t-94 87.5v-464q0 -20 -14.5 -33.5t-34.5 -13.5h-111q-20 0 -34.5 13.5t-14.5 33.5v1302q0 21 14.5 34t34.5 13h72q49 0 59 -47l21 -84q35 66 93 105t136 39q66 0 129.5 -25 t106.5 -84q47 -66 72.5 -159t25.5 -249zM680 496q0 98 -13.5 160.5t-33.5 97.5q-39 67 -123 67q-78 0 -123 -77.5t-45 -239.5q0 -170 39 -254t129 -84q92 0 131 76.5t39 253.5z" />
<glyph unicode="q" horiz-adv-x="954" d="M839 -358q0 -20 -14.5 -33.5t-34.5 -13.5h-113q-20 0 -33.5 13.5t-13.5 33.5v464q-39 -57 -94 -87.5t-135 -30.5q-66 0 -119 24.5t-88 61.5q-66 65 -92.5 171.5t-26.5 241.5q0 156 25.5 249t72.5 159q43 59 105.5 84t128.5 25q78 0 137 -39t94 -105l19 84q10 47 61 47h72 q20 0 34.5 -13t14.5 -34v-1302zM636 494q0 61 -7 117.5t-24.5 101.5t-48 73.5t-78.5 32.5q-4 0 -9 1t-9 1q-78 0 -119 -76q-26 -51 -34.5 -115.5t-8.5 -123.5v-19q0 -172 39 -246.5t131 -74.5q84 0 126 79t42 249z" />
<glyph unicode="r" horiz-adv-x="675" d="M667 805q-6 -23 -23.5 -33t-37.5 -6q-33 4 -63.5 19.5t-61.5 15.5q-51 0 -91 -63.5t-40 -209.5v-481q0 -20 -14.5 -33.5t-34.5 -13.5h-113q-20 0 -34.5 13.5t-14.5 33.5v897q0 21 14.5 34t34.5 13h76q18 0 34.5 -10t20.5 -31l23 -88q41 66 97 104t132 38q57 0 86 -15 q55 -24 41 -69z" />
<glyph unicode="s" horiz-adv-x="768" d="M714 283q0 -58 -20.5 -112t-61 -94t-103 -64.5t-146.5 -24.5q-72 0 -151 15t-138 44q-39 19 -27 62l27 86q8 22 23.5 32.5t35.5 -0.5q54 -22 110 -39.5t116 -17.5q65 0 93.5 27.5t28.5 76.5q0 31 -16 55.5t-43 46.5q-28 22 -62 40l-71 39q-39 22 -77 46.5t-68.5 56.5 t-49 73t-18.5 94q0 123 82 201t235 78q74 0 125.5 -10.5t104.5 -32.5q18 -9 27.5 -25t0.5 -37l-26 -70q-8 -20 -22.5 -29t-32.5 -1l-75 25q-44 14 -93 14q-58 0 -86.5 -28t-28.5 -71q0 -47 50 -80.5t116 -70.5q43 -23 86 -50.5t77.5 -63.5t56 -83t21.5 -108z" />
<glyph unicode="t" horiz-adv-x="581" d="M573 63q4 -18 -4 -33.5t-29 -21.5q-28 -10 -68 -15t-83 -5q-117 0 -169 57t-52 166v616h-109q-20 0 -33.5 14.5t-13.5 35.5v67q0 21 13.5 34t33.5 13h109v209q0 23 8 40t31 24l110 28q27 8 43.5 -1t16.5 -40v-260h120q21 0 34 -13t13 -34v-67q0 -21 -13 -35.5t-34 -14.5 h-120v-573q0 -80 69 -80q12 0 29.5 1t32.5 5q39 8 49 -33z" />
<glyph unicode="u" horiz-adv-x="976" d="M865 47q0 -20 -13 -33.5t-34 -13.5h-82q-39 0 -49 41l-20 86q-47 -51 -115 -95t-176 -44q-115 0 -183.5 67.5t-68.5 190.5v698q0 21 14.5 34t34.5 13h115q20 0 34.5 -13t14.5 -34v-661q0 -58 28.5 -87.5t82.5 -29.5q90 0 148 68.5t58 197.5v512q0 21 14.5 34t35.5 13h114 q21 0 34 -13t13 -34v-897z" />
<glyph unicode="v" horiz-adv-x="862" d="M577 43q-12 -43 -55 -43h-168q-41 0 -54 43l-260 889q-10 29 2.5 44t32.5 15h139q45 0 56 -45l149 -637q10 -41 16.5 -95t10.5 -101q4 47 10 100t16 96l146 639q10 43 55 43h129q21 0 33 -13t4 -42z" />
<glyph unicode="w" horiz-adv-x="1376" d="M1156 43q-10 -43 -55 -43h-188q-46 0 -54 43l-125 594q-10 47 -15 105.5t-11 115.5q-4 -59 -11.5 -117.5t-17.5 -103.5l-135 -594q-10 -43 -55 -43h-183q-41 0 -53 43l-211 891q-6 29 5.5 43t31.5 14h135q45 0 53 -45l113 -604q8 -44 14 -112l11 -113q4 22 7 51t7 60.5 t9 61t9 50.5l138 608q10 43 55 43h160q45 0 55 -45l137 -606l10 -50q6 -30 9 -60l8 -61q4 -30 6 -52q2 22 5 51t7 60.5t8.5 61t8.5 50.5l108 608q10 43 55 43h119q21 0 31 -13t4 -42z" />
<glyph unicode="x" horiz-adv-x="909" d="M884 51q12 -18 4 -34.5t-28 -16.5h-152q-45 0 -64 37l-188 342l-192 -342q-21 -37 -64 -37h-135q-21 0 -30 15.5t5 35.5l299 465l-264 426q-12 21 -4 35t29 14h149q41 0 64 -37l159 -286l160 286q21 37 64 37h135q20 0 29.5 -14t-5.5 -35l-268 -416z" />
<glyph unicode="y" horiz-adv-x="884" d="M581 -98q-31 -114 -89.5 -185t-140.5 -110l-45 -20q-16 -8 -33.5 -2t-27.5 24l-43 84q-10 17 -1 35.5t26 28.5l28 14q103 53 139 182q5 4 10 21.5t10 37t9 38t6 26.5h-69q-41 0 -56 43l-262 821q-8 23 4.5 37t32.5 14h135q45 0 58 -45l172 -637q16 -61 18 -125l14 66 l19 80l151 618q11 43 56 43h123q20 0 31.5 -14t4.5 -39z" />
<glyph unicode="z" horiz-adv-x="778" d="M722 49q0 -20 -13 -34.5t-34 -14.5h-559q-22 0 -36.5 16.5t-14.5 42.5v66q0 18 6 32.5t17 30.5l358 574q29 49 55 69q-17 -4 -35 -4h-34h-293q-21 0 -34 14.5t-13 35.5v67q0 21 13 34t34 13h524q20 0 33.5 -13t13.5 -34v-74q0 -22 -5 -35.5t-15 -27.5l-346 -559l-32 -48 q-18 -24 -32 -38l38 4q20 2 40 2h317q21 0 34 -13.5t13 -33.5v-72z" />
<glyph unicode="{" horiz-adv-x="737" d="M35 441q0 -46 51 -48h7q124 -6 153 -82q12 -33 12 -184v-28q0 -209 75 -310q81 -108 259 -108l59 -1q51 0 51 52v100q0 51 -51 52h-25q-103 1 -134 53q-29 49 -29 213v54q0 220 -154 291q154 57 154 291v34q0 164 30 214.5t133 51.5h27q51 1 51 52v100q0 51 -51 51h-61 q-334 0 -334 -418v-8q0 -151 -12 -183q-29 -77 -153 -83h-7q-51 -2 -51 -47v-109z" />
<glyph unicode="|" horiz-adv-x="416" d="M268 1094q0 32 -30 32h-63q-30 0 -30 -32v-1380q0 -33 31 -33h62q30 0 30 33v1380z" />
<glyph unicode="}" horiz-adv-x="737" d="M704 441q0 -46 -51 -48h-6q-124 -6 -153 -82q-13 -33 -13 -184v-28q0 -209 -75 -310q-81 -108 -258 -108l-60 -1q-51 0 -51 52v100q0 51 51 52h25q103 1 134 53q29 49 29 213v54q0 220 154 291q-154 57 -154 291v34q0 164 -30 214.5t-133 51.5h-27q-51 1 -51 52v100 q0 51 51 51h62q333 0 333 -418v-8q0 -151 13 -183q29 -77 153 -83h6q51 -2 51 -47v-109z" />
<glyph unicode="~" horiz-adv-x="1112" d="M1081 645q-135 -237 -311 -237h-39q-33 7 -125 41l-74 34q-152 70 -202 70q-67 0 -127 -51q-36 -31 -107 -131l-76 100q127 217 310 217q37 0 59 -3q31 -4 62 -19l114 -54l129 -45l80 -14q111 0 209 156z" />
<glyph unicode="&#xa2;" d="M900 349q-47 -188 -163 -292q-90 -81 -221 -81q-81 0 -162 35l-142 -390h-70l155 427q-81 76 -117 154q-51 110 -51 250q0 253 157 390q121 105 273 105q20 0 61 -4l140 383h72l-145 -402q101 -45 138 -87q48 -54 48 -115q0 -85 -94 -85q-55 0 -86 38q-18 22 -26 82 q-4 31 -17 65l-228 -631q87 -61 163 -61q129 0 202 86q32 38 83 146zM593 865q-28 12 -60 12q-102 0 -162 -74q-82 -100 -82 -268q0 -137 81 -285z" />
<glyph unicode="&#xa3;" horiz-adv-x="907" d="M799 176l-62 -176h-671l69 176h60q20 113 20 244q0 20 -1 60.5t-1 60.5h-109l56 147h47q-3 21 -2 70q3 174 114 294q115 124 287 126q107 1 189 -66l-95 -147q-106 67 -196 67q-142 0 -142 -160q0 -32 9 -182h168l-58 -147h-106q-8 -247 -94 -367h518z" />
<glyph unicode="&#xa5;" d="M1023 352h-426v-108q0 -113 11 -143q22 -60 119 -60h41v-41h-515v41h32q118 0 137 83q4 18 4 120v108h-424v73h424v144l-15 36h-409v73h377l-213 496q-31 73 -59 102q-39 41 -105 42v38h442v-38q-121 -8 -121 -62q0 -15 18 -59l214 -519l213 504q21 50 21 75q0 21 -21 41 q-13 13 -64 17q-7 1 -27 3v38h346v-38q-59 0 -87 -23q-44 -36 -86 -132l-214 -485h387v-73h-419l-7 -16v-164h426v-73z" />
<glyph unicode="&#xa8;" horiz-adv-x="682" d="M626 1228q0 -45 -31.5 -76.5t-76.5 -31.5t-77 31.5t-32 76.5t32 77t77 32t76.5 -32t31.5 -77zM274 1228q0 -45 -31.5 -76.5t-76.5 -31.5t-77 31.5t-32 76.5t31.5 77t76.5 32q46 0 77.5 -31.5t31.5 -77.5z" />
<glyph unicode="&#xa9;" horiz-adv-x="1556" d="M1488 678q0 -192 -95 -356q-96 -167 -262 -259q-170 -94 -353 -94q-195 0 -357 93q-165 94 -258.5 263t-93.5 353q0 193 96.5 360.5t265 258t347.5 90.5q190 0 355 -94q169 -95 260 -259q95 -171 95 -356zM1426 678q0 177 -88 329t-242 235.5t-318 83.5 q-171 0 -324 -87.5t-236 -235.5q-87 -156 -87 -325q0 -176 87 -327t239.5 -236t320.5 -85q178 0 328.5 86t235 239.5t84.5 322.5zM1166 431q-139 -203 -383 -203q-202 0 -331 120q-132 123 -132 324q0 212 145 340q138 123 353 123q70 0 185 -38q24 -8 37 -8q31 0 49 45h40 l20 -280h-39q-71 236 -303 236q-161 0 -246 -118q-75 -104 -75 -271q0 -182 72 -288q85 -125 259 -125q195 0 312 162z" />
<glyph unicode="&#xab;" d="M960 -8h-58l-394 472l394 470h58l-243 -470zM508 -8h-57l-387 472l387 470h57l-244 -470z" />
<glyph unicode="&#xad;" horiz-adv-x="1155" d="M1116 797h-1080v81h1080v-81z" />
<glyph unicode="&#xae;" horiz-adv-x="1556" d="M1488 678q0 -192 -95 -356q-96 -167 -262 -259q-170 -94 -353 -94q-195 0 -357 93q-165 94 -258.5 263t-93.5 353q0 193 96.5 360.5t265 258t347.5 90.5q190 0 355 -94q169 -95 260 -259q95 -171 95 -356zM1426 678q0 177 -88 329t-242 235.5t-318 83.5 q-171 0 -324 -87.5t-236 -235.5q-87 -156 -87 -325q0 -176 87 -327t239.5 -236t320.5 -85q178 0 328.5 86t235 239.5t84.5 322.5zM1177 249h-184l-294 405h-76v-309q11 -63 118 -63v-33h-367v33q78 0 97 45q7 17 7 93v523q0 76 -3 87q-13 48 -89 48v36h386q120 0 201 -51 q96 -60 96 -173q0 -164 -222 -222l209 -298q37 -53 68 -73q18 -12 53 -15v-33zM908 879q0 87 -56.5 139t-144.5 52q-38 0 -84 -16v-357q195 0 256 88q29 42 29 94z" />
<glyph unicode="&#xb4;" horiz-adv-x="682" d="M565 1390l-295 -345h-34l105 345h224z" />
<glyph unicode="&#xb8;" horiz-adv-x="682" d="M496 -209q0 -83 -68 -134q-61 -47 -147 -47q-37 0 -94 7v43q28 -4 48 -4q48 0 84.5 31.5t36.5 78.5q0 32 -24 53t-56 21q-10 0 -26 -2l111 178h60l-50 -79q125 -32 125 -146z" />
<glyph unicode="&#xbb;" d="M960 462l-387 -470h-57l244 470l-244 472h57zM516 462l-394 -470h-58l243 470l-243 472h58z" />
<glyph unicode="&#x2dc;" horiz-adv-x="452" d="M530 396q-134 -237 -310 -237h-40q-32 7 -124 41l-74 34q-152 70 -202 70q-68 0 -128 -51q-36 -31 -106 -131l-76 100q126 217 310 217q36 0 58 -3q32 -4 62 -19l114 -54l130 -45l80 -14q110 0 208 156z" />
<glyph unicode="&#x5b0;" horiz-adv-x="147" d="M147 -279h-147v146h147v-146zM147 -510h-147v145h147v-145z" />
<glyph unicode="&#x5b1;" horiz-adv-x="651" d="M651 -279h-147v146h147v-146zM651 -510h-147v145h147v-145zM399 -279h-147v146h147v-146zM147 -279h-147v146h147v-146zM274 -510h-147v145h147v-145z" />
<glyph unicode="&#x5b2;" horiz-adv-x="635" d="M635 -279h-148v146h148v-146zM635 -510h-148v145h148v-145zM399 -256h-399v123h399v-123z" />
<glyph unicode="&#x5b3;" horiz-adv-x="635" d="M635 -279h-148v146h148v-146zM635 -510h-148v145h148v-145zM399 -256h-145l8 -207h-121l6 207h-147v123h399v-123z" />
<glyph unicode="&#x5b4;" horiz-adv-x="147" d="M147 -279h-147v146h147v-146z" />
<glyph unicode="&#x5b5;" horiz-adv-x="399" d="M399 -279h-147v146h147v-146zM147 -279h-147v146h147v-146z" />
<glyph unicode="&#x5b6;" horiz-adv-x="399" d="M399 -279h-147v146h147v-146zM147 -279h-147v146h147v-146zM274 -510h-147v145h147v-145z" />
<glyph unicode="&#x5b7;" horiz-adv-x="399" d="M399 -256h-399v123h399v-123z" />
<glyph unicode="&#x5b8;" horiz-adv-x="399" d="M399 -256h-145l8 -207h-121l6 207h-147v123h399v-123z" />
<glyph unicode="&#x5b9;" horiz-adv-x="147" d="M147 1135h-147v145h147v-145z" />
<glyph unicode="&#x5bb;" horiz-adv-x="651" d="M651 -510h-147v145h147v-145zM399 -395h-147v145h147v-145zM147 -279h-147v146h147v-146z" />
<glyph unicode="&#x5bc;" horiz-adv-x="147" d="M147 442h-147v146h147v-146z" />
<glyph unicode="&#x5bd;" horiz-adv-x="92" d="M92 -393h-92v260h92v-260z" />
<glyph unicode="&#x5be;" horiz-adv-x="817" d="M672 986q0 38 -30 38h-466q-31 0 -31 -38v-54q0 -37 31 -37h466q30 0 30 37v54z" />
<glyph unicode="&#x5bf;" horiz-adv-x="977" d="M854 505q0 37 -31 37l-668 1q-31 0 -31 -38v-55q0 -36 30 -36h669q31 0 31 37v54z" />
<glyph unicode="&#x5c0;" horiz-adv-x="573" d="M342 0h-111v1296h111v-1296z" />
<glyph unicode="&#x5c1;" horiz-adv-x="1247" d="M999 1135h-147v145h147v-145z" />
<glyph unicode="&#x5c2;" horiz-adv-x="1247" d="M270 1135h-147v145h147v-145z" />
<glyph unicode="&#x5c3;" horiz-adv-x="793" d="M469 657l-152 -149l-145 147l143 152zM469 121l-147 -152l-148 150l141 151z" />
<glyph unicode="&#x5d0;" horiz-adv-x="1022" d="M95 51v311q0 263 127 362l-132 175q-31 41 10 72l82 62q16 12 32 12q23 0 40 -22l467 -624v418h-116q-51 0 -51 51v104q0 51 51 51h270q51 0 51 -51v-568q0 -51 -51 -51q-86 0 -117 -1l170 -227q31 -41 -10 -72l-82 -62q-15 -11 -32 -11q-24 0 -40 22l-413 551 q-51 -42 -51 -242v-107h92q51 0 51 -51v-102q0 -51 -51 -51h-245q-52 0 -52 51z" />
<glyph unicode="&#x5d1;" horiz-adv-x="915" d="M74 51v103q0 51 51 51h488q-34 0 -62 38t-28 91v482l-383 1q-51 0 -51 51v104q0 51 51 51l537 -1q51 0 51 -51v-767l85 1q51 0 51 -51v-103q0 -51 -51 -51h-688q-51 0 -51 51z" />
<glyph unicode="&#x5d2;" horiz-adv-x="730" d="M625 973l-1 -633q0 -170 51 -220q29 -30 4 -55l-60 -62q-28 -29 -58 -18q-82 38 -114 118q-27 69 -27 198v49l-193 -348q-15 -27 -43 -27q-13 0 -26 7l-90 50q-44 25 -20 70l191 348q36 66 90 66q26 0 54 -16l37 -20v338h-119q-51 0 -51 51v104q0 51 51 51h272 q52 0 52 -51z" />
<glyph unicode="&#x5d3;" horiz-adv-x="861" d="M52 869v103q0 51 51 51l649 1q51 0 51 -52v-102q0 -51 -51 -51h-106v-770q0 -51 -51 -51h-103q-51 0 -51 51v637q0 49 30 91t67 42h-435q-51 0 -51 50z" />
<glyph unicode="&#x5d4;" horiz-adv-x="905" d="M175 628h103q52 0 52 -51v-527q0 -51 -52 -51h-102q-51 0 -51 51v527q0 51 50 51zM820 820v-769q0 -51 -51 -51h-103q-51 0 -51 51v767h-486q-51 0 -51 51v104q0 51 51 51h488q203 0 203 -204z" />
<glyph unicode="&#x5d5;" horiz-adv-x="550" d="M443 973l-1 -922q0 -51 -51 -51h-102q-52 0 -52 51l1 767h-118q-51 0 -51 51v104q0 51 51 51h272q51 0 51 -51z" />
<glyph unicode="&#x5d6;" horiz-adv-x="657" d="M74 869v103q0 52 51 52h412q51 0 51 -52v-103q0 -51 -51 -51h-118l77 -766q5 -51 -46 -56l-103 -9q-50 -4 -55 47l-64 644q-4 44 18 89q24 51 61 51h-182q-51 0 -51 51z" />
<glyph unicode="&#x5d7;" horiz-adv-x="981" d="M377 818v-768q0 -51 -51 -51h-103q-51 0 -51 51v632q0 64 33 106q23 30 38 30h-120q-51 0 -51 51v105q0 50 51 50h706q51 0 51 -51v-921q0 -51 -51 -51h-103q-51 0 -51 51v767z" />
<glyph unicode="&#x5d8;" horiz-adv-x="963" d="M882 974v-500q0 -221 -85 -334q-104 -140 -350 -140h-293q-51 0 -51 51v922q0 51 50 51h103q51 0 51 -51l1 -770h159q109 0 157 50q53 55 53 187v381h-122q-51 0 -51 51v102q0 51 51 51h276q51 0 51 -51z" />
<glyph unicode="&#x5d9;" horiz-adv-x="537" d="M452 973v-519q0 -51 -51 -51h-102q-52 0 -52 52v363h-118q-51 0 -51 51v104q0 51 51 51h272q51 0 51 -51z" />
<glyph unicode="&#x5da;" horiz-adv-x="795" d="M712 973v-1241q0 -51 -51 -51h-103q-51 0 -51 51v1086h-399q-51 0 -51 51v104q0 51 52 51h552q51 0 51 -51z" />
<glyph unicode="&#x5db;" horiz-adv-x="841" d="M758 972v-487q0 -225 -85 -341q-104 -144 -350 -144h-197q-51 0 -51 51v100q0 52 51 52h217q210 0 210 248v367h-436q-51 0 -51 51v104q0 51 51 51h590q51 0 51 -52z" />
<glyph unicode="&#x5dc;" horiz-adv-x="855" d="M724 1026q51 0 51 -51v-579q0 -212 -119 -313q-101 -85 -272 -81q-51 2 -51 51v93q0 50 51 52q119 3 154 54q32 46 32 198v370l-464 -1q-51 0 -51 51v186q0 166 62 254q30 44 74 23l59 -28q46 -21 29 -66q-13 -33 -26 -128v-86z" />
<glyph unicode="&#x5dd;" horiz-adv-x="979" d="M298 819q23 -2 44 -27q28 -33 28 -92v-493h325l-1 612h-396zM165 52v767h-58q-50 1 -51 51v103q0 52 50 52l590 -1q203 0 203 -203v-618q0 -202 -203 -202h-480q-51 0 -51 51z" />
<glyph unicode="&#x5de;" horiz-adv-x="955" d="M333 807q52 -12 52 -70q0 -13 -2 -28l-96 -681q-7 -50 -58 -43l-102 14q-50 7 -43 58l107 760h-74q-51 0 -51 51v104q0 51 51 51h557q203 0 203 -204l-1 -617q0 -203 -203 -203h-155q-51 0 -51 51v102q0 52 51 52h152v613h-382z" />
<glyph unicode="&#x5df;" horiz-adv-x="507" d="M421 973v-1241q0 -51 -51 -51h-102q-51 0 -51 51v1088l-119 -1q-51 0 -51 52v102q0 51 51 51h272q51 0 51 -51z" />
<glyph unicode="&#x5e0;" horiz-adv-x="593" d="M519 972v-553q0 -419 -334 -419h-82q-51 0 -51 51v100q0 52 51 52h47q101 1 134 59q30 53 30 207v350h-92q-52 0 -52 52v102q0 51 52 51h244q53 0 53 -52z" />
<glyph unicode="&#x5e1;" horiz-adv-x="893" d="M298 817v-615h113q210 0 210 248v367h-323zM94 970q0 54 54 54h481q197 0 197 -201v-339q0 -485 -435 -485h-226q-72 0 -72 72z" />
<glyph unicode="&#x5e2;" horiz-adv-x="915" d="M439 220l-40 -15q160 1 201 51q34 41 34 196v521q0 51 51 51h102q52 0 52 -51v-592q0 -197 -125 -297q-105 -84 -275 -84h-324q-51 0 -51 51l-1 103q0 51 52 51h173l-120 562q-20 93 -60 145q-13 16 -13 33q0 24 24 41l71 41q44 25 77 -5q69 -64 105 -230l95 -436 q7 -34 7 -61q0 -61 -35 -75z" />
<glyph unicode="&#x5e3;" horiz-adv-x="873" d="M55 541v431q0 51 51 51h484q200 0 200 -201v-1090q0 -51 -51 -51h-103q-51 0 -51 51v1085h-325v-192h117q51 0 51 -51v-104q0 -51 -51 -51h-212q-110 0 -110 122z" />
<glyph unicode="&#x5e4;" horiz-adv-x="902" d="M72 539v432q0 52 57 52h495q202 0 202 -200v-348q0 -222 -84 -336q-105 -140 -351 -140h-198q-52 0 -52 51v100q0 52 52 52h218q110 4 157 53q53 54 53 186v376h-344v-193h116q52 0 52 -51v-105q0 -50 -52 -50h-211q-110 0 -110 121z" />
<glyph unicode="&#x5e5;" horiz-adv-x="885" d="M102 731q-81 141 -82 237q0 43 55 55l80 17q38 4 66 -66l50 -125l205 -358q74 6 99.5 66t25.5 218v43h-92q-51 0 -51 52v102q0 51 51 51h245q52 0 52 -52v-246q0 -355 -234 -403l305 -531q26 -45 -18 -70l-90 -53q-14 -8 -28 -8q-27 0 -42 27z" />
<glyph unicode="&#x5e6;" horiz-adv-x="937" d="M864 971v-246q0 -303 -168 -382l85 -114q18 -19 34 -38t16 -39v-102q0 -51 -51 -51h-665q-51 0 -51 50v103q0 52 51 52h377q38 0 149 -22q-37 19 -66 37q-71 42 -94 73l-324 429q-82 109 -89 225q-3 44 47 61l77 27q52 12 63 -40q10 -44 16 -63q13 -38 39 -72l269 -359 q57 22 74 122q6 42 6 153v43h-92q-52 0 -52 52v102q0 51 52 51h244q53 0 53 -52z" />
<glyph unicode="&#x5e7;" horiz-adv-x="903" d="M405 160q0 44 47 44h12q93 0 127 68q28 56 28 191v355h-501q-56 0 -56 59v92q0 55 56 55h655q51 0 51 -51v-555q0 -410 -357 -410h-16q-46 0 -46 50v102zM184 622h103q51 0 51 -51l-1 -834q0 -51 -51 -51h-103q-51 0 -51 51l1 834q0 51 51 51z" />
<glyph unicode="&#x5e8;" horiz-adv-x="835" d="M740 820v-769q0 -51 -51 -51h-102q-51 0 -51 51v767h-425q-52 0 -52 51v104q0 51 52 51h426q203 0 203 -204z" />
<glyph unicode="&#x5e9;" horiz-adv-x="1245" d="M563 1025h103q51 0 51 -52v-770h38q109 0 158 50q52 54 52 187v380l-61 -1q-51 -1 -51 51v103q0 50 51 51h215q51 1 51 -51v-499q0 -222 -84 -334q-105 -139 -351 -139l-555 -1q-74 0 -74 86v887q0 51 51 51h103q51 0 51 -51v-771h283q-37 1 -59.5 39t-22.5 86v646 q0 52 51 52z" />
<glyph unicode="&#x5ea;" horiz-adv-x="1066" d="M974 972v-920q0 -51 -51 -51h-103q-51 0 -51 51v765h-350q59 -27 59 -94v-362q0 -379 -333 -375h-43q-51 1 -51 51v101q0 51 51 51h8q99 0 131 47t32 202v379h-88q-51 0 -51 51l-1 105q0 51 52 51h737q52 0 52 -52z" />
<glyph unicode="&#x5f3;" horiz-adv-x="449" d="M354 975q0 -242 -233 -313v38q55 45 72 99q10 32 10 121q-109 12 -109 120q0 125 123 125q67 0 105 -64q32 -54 32 -126z" />
<glyph unicode="&#x5f4;" horiz-adv-x="874" d="M791 975q0 -242 -234 -313v38q55 45 72 99q10 32 10 121q-109 12 -109 120q0 125 123 125q66 0 105 -65q33 -54 33 -125zM344 975q0 -242 -233 -313v38q53 45 71 99q11 33 11 121q-109 12 -109 120q0 125 123 125q66 0 104 -65q33 -55 33 -125z" />
<glyph unicode="&#x2000;" horiz-adv-x="785" />
<glyph unicode="&#x2001;" horiz-adv-x="1571" />
<glyph unicode="&#x2002;" horiz-adv-x="785" />
<glyph unicode="&#x2003;" horiz-adv-x="1571" />
<glyph unicode="&#x2004;" horiz-adv-x="523" />
<glyph unicode="&#x2005;" horiz-adv-x="392" />
<glyph unicode="&#x2006;" horiz-adv-x="261" />
<glyph unicode="&#x2007;" horiz-adv-x="261" />
<glyph unicode="&#x2008;" horiz-adv-x="196" />
<glyph unicode="&#x2009;" horiz-adv-x="314" />
<glyph unicode="&#x200a;" horiz-adv-x="87" />
<glyph unicode="&#x2010;" horiz-adv-x="680" d="M592 656l-47 -144h-457l51 158z" />
<glyph unicode="&#x2011;" horiz-adv-x="858" d="M125 409v103q0 51 51 51l507 1q51 0 51 -52v-102q0 -51 -51 -51h-507q-51 0 -51 50z" />
<glyph unicode="&#x2013;" d="M1042 453h-1059v73h1059v-73z" />
<glyph unicode="&#x2018;" horiz-adv-x="682" d="M490 986q0 -51 -31 -79q-43 -38 -100 -38q-75 0 -126 63q-48 58 -48 135q0 119 88 215q59 64 171 105v-43q-102 -62 -139 -115q-27 -39 -27 -92q0 -62 38 -62q12 0 36 8t36 8q43 0 72.5 -31t29.5 -74z" />
<glyph unicode="&#x2019;" horiz-adv-x="362" d="M248 963q0 -187 -133 -283v72q43 65 43 168h-43v198h133v-155z" />
<glyph unicode="&#x201a;" horiz-adv-x="682" d="M498 10q0 -118 -89 -215q-59 -64 -171 -106v47q104 61 140 114q26 38 26 91q0 61 -37 61q-12 0 -36 -8t-36 -8q-43 0 -72.5 31t-29.5 74q0 50 31 78q42 38 100 38q76 0 126 -62q48 -58 48 -135z" />
<glyph unicode="&#x201c;" horiz-adv-x="909" d="M851 992q0 -52 -40 -86.5t-93 -34.5q-77 0 -126 63q-46 58 -46 136q0 114 74 200q69 81 183 114v-38q-84 -48 -116 -83q-49 -53 -49 -129q0 -56 34 -56q13 0 38.5 8t38.5 8q42 0 72 -30t30 -72zM371 989q0 -51 -38.5 -84t-90.5 -33q-76 0 -127 64q-48 59 -48 137 q0 114 76 199q69 78 183 115v-41q-164 -86 -164 -205q0 -62 32 -62q13 0 37.5 7.5t37.5 7.5q43 0 72.5 -31t29.5 -74z" />
<glyph unicode="&#x201d;" horiz-adv-x="909" d="M851 1186q0 -114 -76 -199q-69 -78 -183 -115v41q164 86 164 205q0 62 -32 62q-13 0 -37.5 -7.5t-37.5 -7.5q-43 0 -72.5 31t-29.5 74q0 51 38.5 84t90.5 33q76 0 127 -64q48 -59 48 -137zM372 1189q0 -114 -74 -200q-69 -81 -183 -114v38q84 48 116 83q49 53 49 129 q0 56 -34 56q-13 0 -38.5 -8t-38.5 -8q-42 0 -72 30t-30 72q0 53 41 88q38 33 92 33q77 0 126 -63q46 -58 46 -136z" />
<glyph unicode="&#x201e;" horiz-adv-x="909" d="M851 -2q0 -114 -76 -199q-69 -78 -183 -115v42q164 85 164 205q0 62 -32 62q-13 0 -37.5 -8t-37.5 -8q-42 0 -72 31.5t-30 73.5q0 51 38 84.5t90 33.5q77 0 128 -64q48 -59 48 -138zM372 -1q0 -114 -74 -200q-70 -82 -183 -115v42q80 45 115 83q49 54 49 128q0 56 -34 56 q-13 0 -38 -8t-38 -8q-43 0 -72.5 30t-29.5 73q0 52 41 87q38 33 91 33q76 0 126 -64q47 -59 47 -137z" />
<glyph unicode="&#x2026;" horiz-adv-x="2081" d="M227 317h427l-1 -317h-426v317zM868 317h427l-1 -317h-426v317zM1509 317h427l-1 -317h-426v317z" />
<glyph unicode="&#x202f;" horiz-adv-x="314" />
<glyph unicode="&#x2039;" horiz-adv-x="682" d="M563 -8h-57l-387 472l387 470h57l-244 -470z" />
<glyph unicode="&#x203a;" horiz-adv-x="682" d="M567 462l-394 -470h-58l243 470l-243 472h58z" />
<glyph unicode="&#x205f;" horiz-adv-x="392" />
<glyph unicode="&#x2122;" horiz-adv-x="2007" d="M1973 549h-398v36q44 1 63 6q34 9 47 38q9 20 9 86v492l-307 -658h-32l-308 649v-482q0 -99 36 -120q19 -11 57 -11h36v-36h-306v36q86 0 104 41q9 21 9 90v466q0 108 -37 127q-19 10 -76 10v37h286l273 -572l265 572h279v-37q-41 -1 -60 -6q-30 -8 -42 -37 q-9 -22 -9 -92v-468q0 -80 16 -101q20 -26 95 -30v-36zM801 1155h-34q-20 141 -194 141h-75v-579q0 -76 16 -100q20 -29 90 -32v-36h-374v36q68 6 86 34q14 22 14 97v580h-76q-87 0 -128 -27q-46 -31 -62 -114h-34l21 201h728z" />
</font>
</defs>
</svg>
